<mxfile host="app.diagrams.net" modified="2021-06-20T02:18:48.362Z" agent="5.0 (Macintosh; Intel Mac OS X 10_15_7) AppleWebKit/537.36 (KHTML, like Gecko) Chrome/91.0.4472.106 Safari/537.36" etag="MRhVud5zJc3iS1SabhUg" version="14.7.2" type="github">
  <diagram id="prtHgNgQTEPvFCAcTncT" name="Page-1">
    <mxGraphModel dx="3153" dy="1867" grid="1" gridSize="10" guides="1" tooltips="1" connect="1" arrows="1" fold="1" page="1" pageScale="1" pageWidth="2336" pageHeight="1654" math="0" shadow="0">
      <root>
        <mxCell id="0" />
        <mxCell id="1" parent="0" />
        <mxCell id="GS6s75to7frT3bZNYlam-42" value="" style="group;fontStyle=1" vertex="1" connectable="0" parent="1">
          <mxGeometry x="1023" y="490" width="290" height="80" as="geometry" />
        </mxCell>
        <mxCell id="GS6s75to7frT3bZNYlam-43" value="KEPALA DESA" style="rounded=0;whiteSpace=wrap;html=1;fillColor=#a20025;fontColor=#ffffff;" vertex="1" parent="GS6s75to7frT3bZNYlam-42">
          <mxGeometry x="70" width="220" height="40" as="geometry" />
        </mxCell>
        <mxCell id="GS6s75to7frT3bZNYlam-44" value="M. YUSUF MUSTOFA" style="rounded=0;whiteSpace=wrap;html=1;" vertex="1" parent="GS6s75to7frT3bZNYlam-42">
          <mxGeometry x="70" y="40" width="220" height="40" as="geometry" />
        </mxCell>
        <mxCell id="GS6s75to7frT3bZNYlam-45" value="" style="rounded=0;whiteSpace=wrap;html=1;" vertex="1" parent="GS6s75to7frT3bZNYlam-42">
          <mxGeometry width="70" height="80" as="geometry" />
        </mxCell>
        <mxCell id="GS6s75to7frT3bZNYlam-46" value="" style="shape=image;imageAspect=0;verticalLabelPosition=bottom;verticalAlign=top;strokeColor=#000000;image=data:image/png,iVBORw0KGgoAAAANSUhEUgAAATQAAAGqCAYAAACF7bisAAAgAElEQVR4Xuy9B3sjyZYdeOE9vbfFMt1v3v6k3R3tSOONpPHe+5H2t+1qpXnvdTmy6D0JEiQ8sN85NyIRSGYCmVVkd3W/Qn9ssoBEmogbJ871iV/8P//3frIvga9EIhH5/bBjk8lk4Dn6/eCLhp0n6CRxjg1+wqd9N+z+esHDKkFjgvfsjx1L+2979+518Lf7ufvvVCol+Hev15NutytJSQhuxV4X57fnsr/xGY7nK5mUXr8n0k8Ivtjv9wTTiGMhKno2/KH3rO/r/eA3zt9ut71Bt5+7v/3PZu/NfcYw2XmM2bTn9v+Osxb8zxA0T+692jHCe/5nC7sf/7MGjY8dd/+xYePnzXPEgRwlr2GnCHoe/3sqaklvLAafQw4tbvhwpQ85E0kA0FIUxOivoMm1QjlqoN3PHgPQwsAy+pN8N0c+BqABkPAKAgUIph/UrJBYQVHhTVI++jjeOZc9LxcYwM+cD9/o9bqSSKQkmYQAKbgluGn1DBjibwW0JPFtGND8825lKZlQ0LMA6pexpwSxMLl0F1pcQIsjWaMAzQW5UWMw7hxR1l7Y+eO8Hwbm9vqjANp+18WS4eMhpQ8BTY9JCMRxJKDFmcQ4x46a7DisK86xcQTsqY99KkCzwu8KIAAM4IUfv6Akk2kCElhXv9cHDHkMzjtXry/dXpef9yA0YFvJpKQM8+5BmLg1KkOzc9Lrd3kMjtX7wbkBoPh+QpL427wAjAnpDe3KuG8wyuCdOkSleMSJi8rQgi4ZF3yjgFEQi3Gv7TLqcSAYtm7CGFqc57GbaRCxCXqGIIBzmf3ws4QzNBWxhCT+wy/+H32rekRlV0GTGMbQwmTsMcDoc2doodT+EVTOsPHzq3QWEDqdDqfCFaC+pKQHwOp2PWaEY+y/7Y6Jf4OlgZkR0Iz6iGNdAXZloNfrEJDw4+7a6XSa7+G39wxkc13vPbxv1WMrP/ZY/I6rGsXBuTBwCRrvOAvdHfuoiz0MpMLW3zjQ87Mk/3niMLGw5xnH0PwyOA7M3Xvq91Ur0Ze7ISpD8wAtTOWMw7riAlSccz8lKMYR9rjHPiWg2UVtBcj+u9VqeTYye31rM7NMzYJQt5eUTlcBDT/2HO5v+11+Dh5l7GmW+eEadmNx5xQMzYKXC3yZTEbwk81mCVp4wf5WSAvftyCI7+IH57a2PdfGF3cuoh4fBiJh8hoH1MKODVrU7vWGF/Vo23MUZhkql9ZW6husOM8Yl6G5lwoDw8EzRWBov/R//SI0jcBXiE9gsLM63wpjaIPBUJPxwFz3kKYYk3LIvejx9nyjADQuuAZdEHbvwPdDxsrsEd5XMHb9rjGm01A1+CKgASpXMgV1zDyT9zEVP89U0E8kpAt1D3YsezoRAeMCyLTbHdq1LCA12z1pt9rSbDal3Wl76iaOp9poDPkYxy7ADOpoV1VS/Qw3RCuYjrf3nb50Ot2h53gg6GaC7TwTjGAXc+aNQAWGZsCLbC8hks0mJJVOSTqlQIaffD4v+UJB8rmcB4Bkb4YhKhDgnmED7EsKJ+LF9d713AlJ9HU3Hyw2O1sPJ7mfeDp1Ng4wuIs7DNxc+YwCxOMY3GMxtOB1Y+TJrIMoY+G/X9psh17DmIBpT/zHX/oP/SgnDxo8972w3dPabqyAjdopCWgjPK6uuuHaVvznfBRAo0X74StorGhbMveumwBUqIT0AQC6nIeAoCc9Rx0TD1AGYwQmpIb1niSl0+vTO9hpA7h0UhuNhrRabQEjww8/73Sk3Uvz3/gc/7aL2GV09qnsouF1zO48SmXoGbXVHZWw4y378o+glROrtnIjhIMh0fZsZpal5XI5KZVKUiwW+QNWh+8XcznJGNCThO7acFKkUvCkKhgD5PFKwYEBo4pRVQeLRO2B/leoyz9EcB9DFQ06dZDdc5S6HQR6lj0/BIZ4oB3HtjYOFMeB6oP5MF5+rqqQyAj3fQLaKJCJ+lkYoA1dzLjxw27u+wpoXNRmoABkHjB1DeMReAMHO1QvpcyFoGxYkLWtg2H0On1pA5wIUsqMAFCNRlM6ZF19qdfrBDS8h+MAYgSwRIa/LYOz8+fu4HZO3DAQHBcEekMbWQSBssePsm+6i48sS/rS7bc9p4WVJQAb1FAAWwFMLZ/nv8uFvGTN+5lMWvCTzqQkn1c1NpWCI6RDxokNMtnXsbbPOPzcw+7/uIAWddOLuo7czcbOhx0vVzX1ny9ofq0cBoFIHBITB9DCntM9h3s/41R599gnA7SgmxilcroTMmpiwwAND2LP79pwws71GAwtrifSVXOsICUY7mDjtZRx4Y2eMYgnBICG99VDA7Wx0+1Ks9GS+n1dGs26NBttabbb0qg3pN6oS6vZVkbX70mn0yOY4d+drmFjibTHyqwAuHPjMqqwnTtMcKDqRX2FzYF1Evg3tV7CNfh6MEzmBQCCCprJZPV3MkG2BqDL5bIEsmwuI1NTU/w7l81JKq0eV5UpODSg3usGY9mhY//wHivU/hL1wUcwiRinGGIjUcAnjKG5IDjuPFEAw32GQIY7ZtP7VhhaXAAIA7SRYOUyl5ADRwGaBYnPE9AGxkoXvBGwrOocQMuERuB3tkDVsdvpKpuCwb3bVxbWbMr93b3c399Lq9U0amWXNrFWEwwNzEMkmUip3YwhD9aWgGiw0S9XCOMK8GMAmstAhhaHje527HfWIeAHZmwD1g4H1TObM4A2OSmFQp7qaS6fpe0tDbtccuC4AIgBJBFOEh2ew8c0zqKOA2j+cXLHIOg8fvYWNM/jzvEYTGyUTMUBs6Bjo9wfVc7vK6CF3Xfc5wkSkG6IpyRYgIMADaqMARprdIedqi/SkBQB6v6+TuBqNho07kN9BKjhfeutxDkAflaN1OtroI0NrwD7oBPCsEE/Ww4T7iDmPNJOE7D7fuxYDzEKhIoYG55fHfXHoUGoPfZlNkl1IiiLA2ODelosFaRULBHgSnn1rGq4iIaMDIWNONuANRlEBZ+nBDQLUi6rHifzQUDgfy/sHHHDYeI8e5g2MGqco37HvY/EL/+nXwq1oY0bvDA9PqowPPi+Waof+31PUYmhGoVOYkptK0HC4AqaGt31B++nUoizSuut0BDdl35XvYsErHpDbpptgtbNza3c3t5KvX4v7Ta8jQidgPcRHkyNyrfC7McSHDf0oluWMBc6fGHP4v9C2C6bCFEn4sxX6GIKOEn4sQMvpmXusMRB7VQGlpRcLiO5fE5y6awUc2kFtnJJymWAXMEJERnwNKq2KQ1NGVokI+QpSKULAiC8F/Y8oeMdct2PYTrjVMVxczgKKN3vBqm++NxmtkQFsLAxCfq+e28fBWhhlPdjd2sPiL4DQAulyMbLOUp4rOBS7pgUCQzTUAyokYlkSjrtjrTw02rJ3f291Gt1Obu+kWarRcM+AA7szGKFnlOBFD9hcT3DgGbDPH5+AE1DQxwHDJ0rg3QwtbllJJ1KInxYMtkMgaxcKkm+kJfJyQo9qPmCqqWppOa5plMPQ4P86px/AY9Sjyxbdr39UTaQcWvJBc0oIPGpgBa0uQetnbiANm5DGAe0/vsaCWhhnqqwB/kY29owy4AB9yFhjMsUowzCuGOsUyCI9vonDek/Cjyq9kE9hCEf8WCNRkvu67CNNeTuDipmXao3d54KqQxREXGYLRrm4Lk/h5aR71jXU/d5M7SwcUe8nf81jtH4VWaXBShbBkjBfYv8U5F0OiP5AlTSvFQqZbI1/BSL6kGFkyGTGrA/9/phayFoQdpFBtlxvavjQGqcTAYBoZXPcWPlB7Q4DGjUMwbN2SiAHwe+4whEqPwY3Ej8yi//x9gq51MytDhxjY8tIO5zhQGau4g8FoVA126PdjHawO4actdoyO1tTRr1ptQRWtFpSbPVkVZDg11tIGwf+WdmMQMIme/oJp2HqHnDDO0LoNkxC2IuGFNNqk9IJpOiagoGl80i1CMv5UqJHtJKpSLT5ZyXnWBj6XDOsLi6oMWO99yQC/ffcUErDOSjqp2hGshHmA+CNvdPBbRHZ2ijAC1sVwp6P64dIBAUQwJrw84dh0GO2xke7H4hKqcFH6sOkpklElQrr66rcn1dlZvqjdTuG9JstqTZbEuj1TJBsiLdTk/SiP5nupFbfsdWpRiUTcE9ecHvPp/cA5XTe4BwP6dfIK06FLTzB87PRyyCqOeWVFDmiI38Hz7LECtxNgR7lKu2K9Bpgj7HEwG4afV0IjQNMWtwJJQrZamUy7I8P0lV1ca9uelXYRt50LhaYHUZWpgMxmFXQSodrhV0jlFgFoeh+dmdZaDj2JJ7jXHX8x8bdPyoc3gy8au/8p9iMTQMXBxAi7MjQaSDnOlh9oLHALS4TgH7PPieDV4FA6ve3srFFQDtmqplo9kSVLMAqDVaba1GkUwxfSmbHNQkA0OzgaQ6KcP1zLSsDgxEwwGgD5wC3kCHx0l/toCmE//gNW6h83OTBWAZmv1tMy0UxNRJY7M4TC6BqQCC8e0bxpaVxdkywz4mJib4g7/Ve5oLFOUwhuYHtDAZdu87Cvj7vb7j1ldcYHgMkApij6MITxDzGweAYSCbGAVoQYARtquPG1j/5+PURfchw66JpPqo1Ftrf5locdHcv6FdgQRhwG6Sfa0WgVzGLsviJMmuwKraCKNod6Veh1p5KxeXN3JTq5t0JE1Dsj9hu3rQ++6zxJnQuGPvMplR9xE2Z/7FOW4uo9xf0PO65/Wr+vacYe+71wxjL0NMz6j5pUKBQbtUP6cn+cPUq1KezgPdfGygN2xkWijTdd4kvdKZw08eJ1h7HLBEXU9xQjHGyVwYE8W9jFuHYeceF1sWheW5m8pnB2j25twHCVsw8QBNaQAXI3L9bCqSATGTmOTJScaoQIjG52eJhLRhA2u15ea2Jre3d7SR3dbwd13qjbZjF1MnQdhkjWMeo3bzKOAQ9ZgwIRu1m1rhjTI/Ue/DXRBhQPQpgDYOtN1zY8sDaAHUSqWClMtlKRRyMjFZNo6EimSziGlTYEunNVyH9eQY8Kw6Bv/2XThObONjAVochjYO0PzA5ZpfHhvQ3E133LmHAO3XfvWXQ3WUUZ6dOMIadOyoXD//onkcQIOQqZ0GYGYBDOnfvJ7vJtWEZlhZH5H6bbm7u5fb2p1cXl7JdfVG6gjDqNcFOdu9vtppLJvEJHwBtOhS8pQMLS6gWbaFYF16PjMZMrSpqQmZmZnxYtnS6YRkM0na5KSPum+mioqxv/pL24cBWvRRCk/QjguAUcDLPec4pjRuEx7HxPz377/euPv12HZcQAsDl7hqR5Tjxz1EPIbmxHZpkWhvDIMQvWdqlEO1bLWbUq3eyvnFlVxdXRHUoG7SjoZ4sz6Ynxr63V0rTMi+MLSHI/OUgDZOjlyGlsImZmvDJdS7CTaGBHgwNTC2yoSyNYR7lMo5Kebzks2qd9S+grz1MF48xmvc84QB0bhrjzvvOLY3iknFVTn9rH0cS/MA7dd/7VdiM7SggYkCUO73ojA0/0P5rxsH0Gw0PxmaB2hOIwbfyWsNzZ+8r90zhuzq6lrOL69MjmVL+j0Nt2j3OpLsaT1z11WPv+MyXHfSxgnXOOGM8vnPi8o5bixdQOu1dVMavKdhgphLlCcCwOXzOYIZ49kmCjI3NyfT09MMAVFHhXqv8UJi/ADlgj3QcdZO3Dkbx06jyIm7DqOCmv+8H8vQxjFDe29DgOYOqLuowmJvwgAtzsSMO3bcwOEe/JR+lODqZ5rSQqsYiwOaCHv+0lB/GP3hITu7qjE16fqqKvf1O6nd3UutVuNn9DCawoWocpHsQTkdqJzjhCTMSG2/N46+jzt/1M/jLg4/+8T3x83jp9yL/9xB14py/aiAxs3OAJrtZ+CUuqTNzKZW2fzRYjkny0tLsrC4IJMTE1RPWVRS22AR3GwiScIIrP9+ojyDKxuPBVL+84wbpzC5jAo6Qfc9DuiinvsBoLmDag3agxLJgx3L/1B2N4szKQSjmO3tgnaJRG9QVshF6uB70SKAVBN7XUmm0hrZb5gWsA1hGDD2A7hOLjTPsgpbWaPOyhj4bpNFGwcvijjuw59bOWIlj1M5h87/CLFf7thFAZhxgh3lHHGeMcr53GcYx+6jni9wYzYkymVtOM72dBl6P4n80TTVz9nZGbI0JMSXiuophQ3OrY+XTg2a0Fh7K55l3KL+lOeJA37jNrhxat8oORtlT/afNwpwhj1XAiqnS7HtTeEGXEDjpDptxuy//RMfdfC/bUDDhglAY82xXl+SDMkwFSpgN+l1CWRnpxdycXEhJ5c1hmFA7WQQbB81yIYZidXVvwDaw1l/CkCzV4m7eUaVScq0TaHx5Ym61/SYagJsv8fMA4R2lIpFyefyMjs7rXFs5RLVUA3iRSnwti/mUDf2KInb9hkeY7MZB1xhzC0KoIWNddgzWkzxE5Y4z+neV+I3fv1XPRtaWNCeC1oWPf0g6P/3OCH6GIH3D2gchgYbmmWe/QTsIRkmhUPFbLXbUqvd0+B/dnbGaP9acxA4SzXV/KAPgCdc5o8vgPa0gObfNOMI+zg59H9ubV7D1xxkMQytBcb1ajU6LUKpJYwmKiUC2tzsNFOqtLoHClN2h3I7rcoeF6Cf6vlHAV1UMAs7x6h4uKBzB51n1HN7Kudv/sav9V36axGTi9iEIVg25k7+A0oeo2RP0Pmi7ECfBmhOGAUqYkhCarU7ubmBinknl1dXXpQ/G4xI6kEZa7LWLErUDF5fVM5gyPiYDSuMGeB9m00xSq2JC15BxydMq7SBfGtdOws+ruz2UUIdgba2uQy1mL7kshkplYoyMzMlMwbUUNmjnBv0GnXjFMPGKuj9xwCzuOdwwWiIDQWs+biA5qqX4+4rCrNMBAGaFRoLbpZ92Ul1H9AFtrg7TZBARUFhD41j2NDswCGlD8UE642GnJ5eyPn5BQGteqMqJur302OZTLNrkvajdGx+HkNj3Ww+Avt0jCsV6zxsnMU+bpKjLuI454lzbNj14zxj2DnY0R0qoNPlyVVRoj57nOMeApqtBmwaJbvNlDHtxhbMjlMkAR3miKYzaSnmEZBbkdnZWZmcnJS5ySKdBviJsm6eCtBCx3tE+eynYmiPAWjuJpf4rd/8da/rk38Ag+wG/h1ynA0tbHHEAT//OQaDCwO9epM07gc7qU4X0lRQa9++AV9Tp5/Qcj7392Rjp6fncn5xKY06ksg1ZUldU0n+sm3d6LAyVuHAmvMDbIu4dsLzLSOeILQDTlCdfD3n6GtGAbEox9j71/kNKnIddh/qZeamae4Xv7GhsHhmCj06UdlMHTDj5M7ex6h7DpRBL95Cz+Aom+YNW/Dc6+flhHnYdDp9RpQJR5FJLSpZlKX5CSmVyzJRqdC2hrZ9sK1l0rDn2mbOCowoWKnd6YfHcIA5vvdjlKmxIOKOjTsW7vtBxw7P8XCwbxQW5WKI/1pRSU7Y9xK//Vu/EdrGLg4Vjrsjfwqg2Yfu9rUbOAXPAJoVANgyUAEWvTHBKNt9kXq7xzAM2MouL69pK6vfo04/avtrb0t1yyPqe3DucSAT3xH5XQDaw6fQst0mZyLCQ8QDtIBs8xEDiVZ2poGnaQqolJdBrmTIafYBgPMGXZw450PxYsFt6dzF414+jvzZa42Tg6DPLSPD74lKlra1mZlpMjaopaj0gQIEluIzXATlhxAOxBP6ulJ58zT8fjckaDeM5blA5Y6jfyNwGdSo548qR/7jxsmUe7x9Fv89DQEzAC3OpMcBuY8RgKgITWEfAjQnStsU90PjEcSMgXnVm225uqnJ0dGRnJ1BzYSK2WTCOmRES/moWqFVZ78Amn8uxgnfMGDEADRWIkHxAK0sggDWTBJd1bW/Zsc2m0FzZORIurGqjjcyKjv4GICKA4BWLVZ50moqtAEmu1LMF5hCNTc3KwsL8wS4VBI5odoXgoCGqrkdTXo327XH1MKeMSytahyg+TcGiwVxmVOU4z8VLF35ClNVE7/z27/5KAztscArDqD1acB9qNokRMspq+G1T3XyqlqV47MLOTw8JkNT9TLJbktaakZ3fDvBD7s0hz9hBHLj+/L3k6HFm+MgdXMwxg/OxfzHPhsIM8WoUKDZALGBtTqS/+vSbne1BpATChimNvmF33+9OAAV77kVlPDyFyhA6pPtCD87NSmLSwvqOJieZPs9NW0wvJtsVVXOaC9T7u3BwaPscKPGLgrjCnIWjLvbx2JoLgkbeo7//Du/9Sid08MeJK4qGgfQlKb7AA2Mi1WXNRwD1TFub27l5OxMjk4vaDtDQjlj+xHUCNkxdfyHrx0ddL4AWtCsxQA0jXtgVD3SiuZmZ2Rpfo5/Y/6qtzdyfnnBQGdUBu53gstGxZG1pwQ0G2PpqnX424vrTIqU8uhrMCETkyVZX1+TqcmyZLJpgXNBk91RuSN4DIPXSPRjg1iYGxcaFXTiAJrrzHEBKCicw+/4CWKlYYCbGAVocdTLMCocR8jCQDGqqtOnvUGFHawMsWV3CJY9O5fTswu5vq15SeUKZlbFVFDE92ylhRiy5Dkixu1Og8+jg2X8MYku2HFtaHFAIAzkA4uDYgOiPa8rE+WyrK2tytbmukxUymRtALKj42M5PjmRG5gK7tpDjWTsAo0TrB3nWVw2EH2Oh9moNWfouTTPt5DPSiGfkbl5VT8nJzXLAECeTqVtDxjj0DEe9QeCaWVJWaGfmY5aOxZw/TY0v/oYJZPBfmfcuEYFS/scfnuZ+37Q3wS0uOwqCG3DBu5jE7THTY4NAkaKCaP/21q3DP4hdFq6qzcYkrG3tyeXl5dSr7el0XxoFxvc9zAQwHYT/RUMIv5JHkz2wyG3E6eNPQahAu4u76oyYeMdhy3GAe3oY2GPHA2sQ+o97KHGdlYuFGVtdUmeP9+UmelpyWbS7JgFMwFAbf/wQGq3bTZjxrxDhXPHKP59fto3xi3gIYARtQvCg8WMBBaK7MnURIVq9tLSgqysrEhloiTpZFqyaXh24XF33ej+v+0VFNCiqIpxn9gCmv/co9RZ/zVGBdYG3Y97rSCwdOV/qDnOxwJa0OAFLbLHADS/wNodBQ/CqrJQGXsJdhRvQsW8vZPL62vWLTs/O5frm1tBoUYwsodAGTy93zagBbEMyxY9iDAI5AY8R32eoKeMC2jxWHhMQEN9/2RCisW8rK0syfNnm0whwqLG8zaadbm6qsrB4b4cH93Izc0Ngc7aSuMu0sc6Ph6gaTgQt10LaCKSy2qjZKigKyvLsry8IuVSQbIZlC5CTZmE9BOsm2wS5PUcw6E4Tw9o7poPG78wGfkUQLPXdcf6SQFt1IPGTSQO05f9i9syNPt+KplloxJUkz0+OZWjkzNWy0DbOATRIlg2EVC4PkwgvwtAG9rNnb6crqfMjk+4gERXOcfFpkXZZf3qyuA7MQANMX9IIUqIlApZWVkGoG3I/NyMZDMZMhTEa6GH6eHRobx7d8LN6u7uLrRv6WMB1rjzxAI03w7i5Y0meyRheFYE4W5sbMj8/IwUCznmiVrWrqW/zabMaG77AkBGB7S4ZqAgtjRuXKLIzjiADGKEQQx0KNA/LkNzBdiv38ZhaHEQHud1Ac3eQzqRZIHFdrcj/V6SJX7Ozi/V3nJ6LvV6UxBbCyaHEslBsaXDgDtgcPF2lE9XOf1ghn/jObsoh8v2axlPtcJnPzRA66Z0uykWsrK6vCjPtzZlfm5WMujQJDCUawza+fm5bG+fMygaDh6wNIxF3CTvuAsy7Ph4gBZ8lhRDhTSgtpDPy9zsHAFtaqrMZsiovcbqHRmMkGVm2KEHoIYioy5ARLVpRRmHp0x9GocDLoBFcSzEtqGFGRDj2tDCbUDh9iV3knAfIOPtTkfqjP5vMOr/5PSMhRivb+40UwDNTQyYDYKpB9cYFsjvHtDwjC4jw0IFmGGXtn0/w8ZOQTC6q1/PE91B8WQqJ0o3UeXsC5qUrK4syoutTSZ3I4oeTAaBtxgXZHmcntUZfnN8fMx4QoTg4DOEeHzbr3iAZsfa3QATkmKsGkwn0CISUsjlpFTKycQE8kFnGIiLEkV0FmRM82R6+B1As/kVvkDpoPv7FIY2jlWFjX8Ux4L/u0FsbNR7lP+PYWhBVTmeEtDsILrXoJey3aEbHyWxYV85Pj6lulm9u2NT30QCNDzBYEwIio0wd+0PnxOg2efT6qhqP0FEOUrT4DN4+/CDBRwmIE8JaPHAIobKiUbNKaT6CL186ytL8uL5pszOWEDThQtgx3Pf3iVlb29fPnz4YBw+dY5PnDI88Z4l/Oh4gOYPMzLOny5KdaHVnnrasVEnkwhhScvCwgKdBay1VipKqVyk+q1g5gKa3qN/wcc1+QQ96efiFAh6Pj/AJv7rb/9WHyVQxlHqOBPnnivcRhWQzc3oCTXwM8zSqU3l2co08pCfdRJZdl6CF3N//0BOjk+Zq4myQHBSDtRUNcb2Y+a7farQhz07CpfazzD2CDfRHFFNhMcDFvI5GsUXl+dlbn6GcXO7Hw5kZ3uPz9jFMzrNc71NJqE9KPkasrNouID3EdRZVN81Y5w2QZx6TlXPOR0mzI8J+tmcIEQKTKjdamkXVTBgOoRtGR0w5770El0TzmLjBPW3Zfj6/JqdQZ6YEn5vcqIsG2srsrG+woBTdDrH+3a88LvR7bPb1uHBkRwcHMnV9Q3NDbh1dU7DiJ6k3RQPMkK8P3GKB60Q3fuLe1KXINgFCkYKNsbuU5WSzM3PyeLSvMxOTfG9HMYlqX1sqYr1tJm1jqdRYYduBGNiAsdNrqj/Pj2Z9LG88M3zIW64pMNvkgoal3Gaml/lDAI19xwjAc1dkH7bWdRJi0dv+wQdql0ELSOcZqL0X/o+7Cntbpo2FaQzHR+dsO4/hZo/AEYrcJ8XoLnJ1QQ05CQCHlII9k3Q2zcxUZLl5WVZWVuUqelJBph+2NmT9293CeJoqWcB2wYdob0AACAASURBVKbWcGLJSh8CmgrXMKAlPA+xlonG1+EMQagEhRhsIY1FBS9cRlK5AsGl02lLs96QBotf4jBVcxUADaBpoXMnudocM5R/qUBFSEuLVEpFmZ+dkeWlRVlamJVyuShp2NaQnG5DWZLo45Cg7Qx5uaenZ3J8fEabWhP17Tqa+cFu6eiqjuX9ZIj2OIAWtEZQGAGLACwdjoGJyQmZnp2SlcVFmZioSAXFIzNZTWrvdugRHZgPDPNzSMFwALomv0cFtFEmDv85/IDmAXSIS32UrToMEEeBZuJ3f+e3RzI0iqQjhFGBbNxxwYPkBzQMupYotrYl3AvyLrGoavWeHB1il96X87NLdiunIHcBZtquTvMDUwqUj2AvGvdc7udhYO6W61ZAM0CQSrEQIAzjyPXb3NiQxeUZyRfz9NZ+2NmXd2935OLsUsNQDGDbWmFRAM0dR1AX2uskoeWiacfpSoq/ASJ9Ficsl9CbsiCF8iSj+dvNptRuqnJ6fil393XG/llWjecHizOtnAfVS8zA6DVMWSCrMiVEcoWsLC8vyOrysizMzbBIYi7LNjheoxEyOWY+kZcQ1KrVO9nd3ZednR25qd1Lp61OILdqypPhmdOs+lMYml1j3j5kQB7jj2cGFrAqbrkoi/NzLPe9uDAvU5UJzXftdgj8QevUMnAX0BTMggFtnI3Kle9RQBd0no9laK6mFnTeIS/n7/3n34EsBr6CJimu6hkP3dUuoN8ZpLfYPDW8z5ikRlPq9w05Or+Wk5MzsjS48LHIsaNpOpNDVJxA1aiAFOe+w845CtBYMAKCa8BMhVoYh4XUn9XVFcZjTUwVSLrq9ZYcH53J+3fbsr9/RCbSBXBTfR247JnkHcDQdKf0MbSk5k4WS0U1OmdzvAdsFjgxyt/AbjMxgcoQJcmXJpQRdFpyeXEp29sf5PT8Strot2DikPFYVDldcsau9XhDbYOoGQaGrSo2PJgpmZ2blo2NNX3mSkkKuaykSNMhD12nU5cGT2sBgQRtpXt7B/LmzVu9F9hV22qrGtgTozs+osqHHvc4DM3dZAagBEeIbspgYGBrKDmEUkRwEiC0ZWF2jvZVLT/UNJ2pBrIQV4ZdeY0CSFHVxVFjOo6hWYYXxgT9LC4BQItiQ/PvIlEnPt6gQkBgexkAGhc8WVpfWq0Ogev6GtVlq3J4ci3VapXhGRgYMrmeVjdQcvawicrT3PfoDWEU4FlA03sVLubNzTUGlk5PT0kmh+cHI+1KtVqT7e1defd+V2o1NG5RO6ECGmxG/SGN09rQBraRYUArFNJShpo3P89WbGBh8Li127CPaVFLFClEDa9criA9w9Rh8bu6vJJvvnknO7v7UgNL09wl/R7KnXubpAVYGjFp11P2hyRu7VCOEjrrGyuytrYi87OzVJ/SsA+xI5wCH7c6g0voBwGWrqCVoiPo3bttquSNFvJ3laH5bUJR5z76cU8IaCY7AI/cgROo35dMFgwe1XBLVM0xbxivSqWC+srMmrAxa0PmCF/1UdvszP+cVP8DyknFC2EyUB+xLFVUULRredz9jQQ0vw3N2/hD9OGgmwu7YXfwBgOrhnE7GYprtpxPQmp3d2xgcnpyLufnZ3JxfS+tpk42XgjTUPvJoNCj3fHC9PFxwhsPkIfPFmo/5GJTM7rrqEDZHCQpf/XqhTzf2pJSqSDJFOrQa5YDgBvs7PXbHdqM2m28T+sbwYLMxevtZ1NrXPqt44RnguDPzU7IwvyczC/My8z0DK/nUVtjt0LFiwzsZ+m0tNqI9xJB3BTCJV6/eSdv3+/I1fWttDuwuVnFxtqwrDEfKqmySU3jAZNOMgwBYIkI+edb6wzTQNgGgAwpQVqAQ48HRFnWzbpoRq2Ed/Di4lp2dnblm9dvyGRxn0pdh2Ozxs31x30+zP7iajAuA6H6bxj2oPJGn0Uu8TywsUIJRQAubGgI6VhcWGCKWKWc4/sENRTCxHfM+JHpuh5Qa7f0PbB/TUZhaUHMyV0z7t9BG0xUQHOv4/+Ou7YTv/9f/nMoQwuanDB72rgbi7Ib6CSq+529L1mKVlULyCc6lx8eHsnp2amcnp1Lo26AzNjY7IPpfY/2wIwT3rDJjSOwYccyPM7r3WhZE1SKrMzPTcmrFy9kc2Od6mevD7akHkOUz7k4v5TtnV15v7Mn9fuWaOgVGKwF/8ECA7i5QgQQsUwWqsrWJryJqwwJQC4hGBrGXgsO6j3amlx0GBjnBca51WjyPl6/fS+nZ9dy36ibWnLobjToZqT2PS0DhFcmo82dESQKZrGwMCeLi4uyurQo+VxWMrTl8YmcRagMjbY6qGDGBgGVEjY5hOzs7x3Kz755Lbe391Q7ITNwdTC8J6y2zjghiPB53PSxCKfkIai0wUKPjqeali+D6ln0LSiWaE+bmpqWjbUFmgcAaja8BeDWaTVZvQP7nDcO9KwPmJQ9Z+gGHJIgHIfAuNfA3+PmJO65vfN/ToCmNgkVZPVSaqQNwgtqd3U5ODqRw4NDubq+lpvbW+n3tGGJBTL7OzD2RqUhqjx5LfvsF8ZNetCJwwQE3jdrQ6MdiepVQkqFvKytLsqrF89lZXmR3sZOp0k1XJ8zoeEKhyfy9t22XF5WWbhSEkjQ1u7tQzt+Eh4+BRDcC9gWAAt/Q1159XxNVlYW2SAXqh8cErDXMPJe8XFoHKjlcXJQNLMju/uH8vrNezk6Ppfa/b0DaDrOUAutw8JG85PxZVNSLCIsZZa2QjhAyvkCe1wifEQ7L6lq6smD8ctxGnsAR2MjS6S1Gsfhqfz0p98whAOVVixrBRVGC8Knej0ZoCE7wthYrQnfFOr1mheBZQPEysWSbD5bkZnZGW2dl0MH9z5V+V4HrfNU9lG9mRsVmd6wrIwanzhaStixFsDsmhiEVEWfmTAty2WSiT/4r/8lFkPjgATMYpyH9oOEe0OwmUClYKXZVldanS49acgCODg8kovLS7m/bw4Zov0UNzCdKdixEzqaT8rQTNyZsjSoEgjVSMqUsZ8hSh5BpWlULqUNyTBRlBFvNJjHeHB0LAcHJ3JxeS09hk0ok+12bGyX5v3Z58BvABbGCuCFfMGXW6syO6MGf4Z+MJ5JwZNxZyaXmvZIGPrNGDKCrNeXw6MTAtruwbHc1DS4lc9ElVbnUAGW/2e9L7CG6elJmZmZlHmUzVlcYD/LVA/sDbFVeg8ELdN8HCYFhLZ42WtOYc9EIs3sgYuLqvzkJz9jqSjYFy2b05i00UG+0ZfUwyOf6tQ6o7rxuYCmaqdI3xRaABvLIVZtIitrKytku1NTk5KGSp9F0UgELNMYKWg6o3YB61QZVkXDxiHO2h4HVFYew8DJjw3uPY36jkc4/vB3/+tYL6f/QZ8K0Oghg4qZRAmgHkMVbmsAsws5OjqVk/NzqTcQ+6QLB7FZQa/h+zN70WcEaD2GLuh90SZFO1VS5men5MWLZ7KxuiKlYp6BkxgPqh6m4ztSve7u76V6W5O9/QM5PDxjqSSWTyKgWcaKwAn1ItprsTdkJsPsg62tLXm2viiVckFyuZwSL9TrN3miWARuuAPVBEyQYV0AQOTLfvNmW7Z3D6SKVDMDYLRc2XhCAq0CXLFUoL0M4Rlo74a/y2XY7UQykpIsy1DjWZGbi0yPQTwV1EdvCvvKMrE+k4m0qbByL9988w0DbavXNTaTZg4vmebDWmGfAmLud58K0GgZxUbiAzSsDRZ+ZKylMmDMqaTbBLOVxSVZXl6SQjHPIpIwH2RspzJjj1TvrxlbJ8YzbEzGqYfu90YBmrsu3VCsoOsGgeg4sOSGCkAb5eWMAma6C0dX58IYmpq3YftIUm2oVm9ocD49P6O6eV294aJRB1dS+h2nk7kvKn5w358foPVTJnDVABqYC9SDteUFAtry/Lzks2lJpmi4kiTi6Po96Zg+B6jE2+l15ezskqCChPzrq1uOWaftFKoUXfh2fgBo9JDNz8uzZ89kdWlGCrmMVrSAN63TYT1/IIW18dnqDpjfDlQ32NgQxZ7OyNnFNQHt/c6+XFVvjedR23qwjDS7b6nnrVDIkzkgjQesDAnXhUKG0fCdVkvyCdvejYgqPaenwzBDgwMEYGeYXx+5uhrWgli0nZ09uTi/IrPH83Axfo8BjRuNBTWNvh5sUsZ2THadVRUTQbfPNjdldnrahL9kCGh2PgFwNm80bB3613wYoIWt+TD7l70Ha0OzjP6xAI376B/93u8iUCIQnOPWMgsCtgQVf480DwX0eTuo07gMmWywz6CmGarMwpuHH+RrIjKdtjUTUmAbnul1B9HkobtvLMz1heEaH0UgI+SbQWqNc0GbdgLA7mtDDO6wKW25NzU5IZsbq/J8a0OmJycYLgFg6DKMxdiATMwaBIG9Ret1ub6+YRweWOxd7U7Ob9taZQRNNijIJjA5od6xqekJjXHbWJN5xp4B0LIaoMkdH9qJZg6wAKF5YKqdJkwE5wUZu7yuyoe9A3m3vUOHTQf9GWzIDbalZIKG/mIJsXWzDDVYWVYVE/cC8FQ1F4sMyemmtp0JYTFIPJAekyZlbaGq3vZ43Xa3K2enFwxr2dnZl3oLsW59quBxWNTHbMxRN/0wuQy6pjpk9GVtZxTBgOIDBPcUbLFJxg5OT4EFL8niPKrgVqRSLKhXnYxfbXO2GR9YPDcMU0XX8VPb3A9J0Gbpfw1CVtxPwhQhv1nIjxWu2YmiFxBCMmpuPJXzsQDNZQLuzSZp37GPaVzJJiARYRaADUwdUVuS0umho3mNrniktGCxXl/X2B8A6pbGXZlYs5C4mTBjfNSdIBQQQz6I4h2yx1BV6qonzwW0ublpefXyhWyur0ilVJJcLiMJAIQgqFSZ1tA50Jqv3WZzZJu0DlvS7nmNPRTAWHB+Bpp2OlwUsFEB0FDDfn1zTWYRLJvO0Kam9gkTKqHL6EF6TKKTYDEA7PCdfp+158Ce321/kMOjI2kYEMHCAisrFgoyOVGSyakKwQwLbWqizDAQBPTyeRhmY8DTzGfQzj1kZzXaAMcEgb4EeMTG3cj7nV15++6D1O4bZG49svjoO9nnBGij5Nj9jOaXfptqPe4feZ7wfs7Pz8ny0pLMTU+SveFz2GphhQOoKVhi7DT2UwmMRgjYcvaMAu0Fm3YC1cIx+ThBdrAgsLNLzT1+3NxQbv74938vNkMLZCm+aHx7caQWDwGa3XWwMxjDpg2C7TLyu6cNTY6OGW8GtROls8FIXB2aE2o8eH60jwNoYXQ6zjniAlq/B7VBGRFc6gAaqGI/+vor2VhbppEXNjUaxBhk76jWZvciSBn3N4ANP3jv8PKWY3Z7c0d7493dPZkcu1wlhZHmS0uLsrq+IktTUyxVQxuMATHaztQtNgxosCV3RePNzNgj1Qw1/rc/7Mr2hx12n0fWQCYD1afM+Cg8F5LM4Y1j9D+6imNhkZkZ+54J17G7sgW0SLs0vLLQzEXkpnon2x/25PWbbane3mvy/fcA0MI20DiA1kZCGBwq0FR6fckXslIulWRpEelkS4xZwxxAG4DThrF+jFnUdTV4fSqgBSsrftCy/w6r3ONnbP41PsQKHXPXRwHaqIH230gooDmxKDRmd7HTJuSu0Zb9/X1Wz0B+JtSnNntmDsIzbBkITX956KmJA0bfBaBJHxUxtOck4rHy+QxB5uuvXsnayqLksrB7pEAvJJEyydsWcszz+kvlWLC/bXXIcO/vGmwIg3CXm+sbqd5cS4MVMoR2NAj41voK3fxwCoBRQdhxbQtu/gTmZDfBYpp8IXjTlDw/PDqW12/fyunZGQ30xXKFquX87BwBrVwuaxoTODi9bnDfIgdRKwmA0SWx0AIYmn9+LdhZMAdDI/QmEmwavf1hX372zTu5vLpRuaFS8HkztMcANETq2SwBxhJShU8ywX9lRR0FSwuLtF1CTfdiDQlqys51rE0Mpyk4wHsLsk9j/h7Dbh5ChIIYeSSG9id/8PuhDC0MGOIA2nANssFOMAASTVOCatRotuWiesvGJocHx7SjgZlh13fHTm0KJun8EwEtiAJzDmMYXuIytARKSxibFWKyCkzMXmKGwMrSguQQHAmGxhAWOEncIFMVf1fFdye61evSOQBPMH6wIaD+/sXVtdRuawQ7Gv8zGVmen5HJiYqpilqksKMemdaxf2gNSXZh0zPNaBhtrpVNrq6r8m5nRw4ODuiZnl9akq31DZmemmSMG4JpEd+GcAwGzZKd9bzQA8aqpVNezJw1K7i7sivgFvh4nANo8PTu7B7IT37yWvM6vyeAFkfWLPj5VU5sNNiQyHiYlaEJzXA4wauNrlLrqysyOzdLuylCgpLIwqGWCbbgrjEY5cJzgu28BAHMuLXgZ2phcvzRDG0UoMVxCgTtpAru7u7oAprdDWzMWVtu7u5l//CE7AxlYdjZPIlgT9XxERBo2YMaMbUs9aeonGG747jdwP3euEl0AYh2H6rhMB91WZoHHsC1tSWqnEsL8wQzOBs1LkFVTh5vVAPcmyZ5D4DO3gPsbcj7TCZho0qSMTUb6HjVpCp6dn5BgIMtLNHv0GgPgcfP1OQkVUVkEQTZ0NDNmzZA2jv1CKifqBa8d3gou7sfpFa7k41nm/Jic4t5olCfVa3ReLpet63ZB2ToJhtB6cQDhhZkP8F7Nvqfz8/EbZgfUJQgwdxSANrRyfnPFaBho7FlpECddc30BBkFKF+OrAzYTpeWlmR6qiLFfMYcb1aUCd6mrHJBDQBtkE43kHrLkP3rJw7ZCduw7HoJw5SgNWuPpcoZFrYRZaEG7RjuBRlL4/UEQEqTLQWkCxLqJlYtPHTHJ+eys38gR6enZBn8vIdChLa2lgVHyx7ixRcFgVSQDh8GcmHvjxsn+7n3G4DGoFdN0EaK07OtdToFFufmWEcfKme/q3mqeHoCoaOShQEuciCtJwweYdqXesqALQuGXU0dL2dSq90SHBG1v7S4yKKSADRtcmvVEMMITaQ5R99JPofD5vL6ig4cLKTJ6RlZnJ2VXAaG6BRtNQA0sDRmKtiUTrcQodms7KJ0TQFhgk1wQyI847XQRKUtx6dn8rOfvZP9o1MtJ8Ud4ekyBeLKSpzj4zC3IPJhNwTNzsjK1PQU2+QtLc3J7FSF1Ts0BAcmAKxNNSdoAK5CG8cvJCRq3KYfpDaGAaBfUwo6d5g2NcTewdDGlQ+KMwn+Y6m8GEBjwKQJ5LOlb7DBglGgesbRyansHh3L5dU1e2tyA8bO7rmqTU0zq3KaTjdR7+/zATQN28DKBqCVyjnZevZMvvrqhczPTDOyG4CW6MOuqGAeRs0fCIgTvsLvcg8wVXFZikZYtQTe0evqlVSr14y0R7wY7GrLxuYFQaf1zswXAdVG/g8BmqqeyGBQdbYt+WJRKoUSm+WyuKJxgHgLhlWB1CmkYTia1W6DRHEvfkYatpu7gHZXa7DbF6qAHJ6cswtYXBtaVFn6No6LA2jWa8lxc26O84aioamU5At55u3Co46OWlNTE1Is5Gk3RdwfvJ9DwUeanyf9GIDmft+vXo4aM/+xYYAWdA5380v86R/+QWwbWpzJdAGNda2I/mrM73YT0mw0maqC3f3w+EQOzs5phwEFUEeBWwII0eqD6Up+XwHNYVsorFiuFOT58y35+quXMjM5QQ8UwhpSCNig8XUQ6Bq2S3lM2VYb4XcdQ6+JDocqirFlyAcKNd7V2D0JZZnQcQhGfKgn2LUBrK5nGXNJYHEAjZ+bi+OcmLNMLitp0bAMq65A/QFLw3vI8dRwEjSIhkxg01I1GqwBTgrLnMPUTgtwLqDBs3twdCqvX7+X47NLtb3GdArEke2nPjYWoDlQ5BIUnsOkfLD6bTZLeZub080L4R2VChobs1yNhkRZ+/EjANo4Fhe0UbnvuWM8iqF5Kuef/dEfhgLaY0yYVTktmKm3UgMEYcS9uUFPgGvazE7OLuTs+sbr4sOsAIdx9IynzN7X9xXQdLEqMAPQJiYr8uLFANDgBmAFUqiMxoIWmaH1DPtDDTUnKFfzMRGSobY1bhYAFnTNqtcZy4YjEOALLyiyChBe4dpKEFM4pLyxtpmGn1jbGn6z5R4q3lj7aWIQcqMFC7ucY1QPURBEGIF2QQeg4cc2kA5jZkGABoaGhHl4Oc8vrjXf9+cF0Hxx3QMbpzJfFhM1AemplPZuQKUTmBkWF+dkolyUfrejRSJZIcWkYmANhqTCBoFVGEMLw5JR5gT/dyKpnH/+x3/UZ0pLjFfQzhGKxLS7qFsYgq+lndQD16i35Pz8kgnFiPK+urmRWhPxVOrdg+3MvdYPDdAwDgx2nZqQFy+ey9dfW4amAa7oasXEapMh4NrQQu12bQU0dNrWLAN1qNiKE8h9BKjZOdAo8T5VUBQSRAkj7OKo9GGT2T3nwwPbhC1rPmDRnq3PxJhxzln+SHmcloYCQ0NPiK50wdDg5Eh0CWJgZ7j+xwBaq9llHNpPf/pWzq+qBDRmCsQI24ixDJ780FgMjQn8g1sydTU8RxorGVsbrHSpZpZLeRZBgLNgcWFWSoUcwQzagXpLWcf+owDNr0KOsjP7QS2MoY1KwfIYGgAtLPUpFIGDQhpsWop/mhlDpuoGd3PaT9C1517u7+pyenIhJycncnF+LXeNhrTRdk4LhtF+Zo3E/O4PjKFZQJucmpCXL5/L169esugi/Uv9nnSRfK/VDr3Cf65NK2hF9TsacoH/utImoLGhTEeTvVEQMZ1CrJkmd2M+MJ0I5QCgUdWkaoLQEe0VadXOoH2P8yo9Rv+zEgTAs4OdHtfQFC14c4cBDRuapiwxoR2AllRAA7sDU4ulchqPKzRX1In7yU/fkKFp05SfT0BT02lCkmnNG+ZmaIoc2AovsJmhCML6xhpDOpaX5iSbTmsWB3PgtORQmI09KkPDcWERE66nPkz9tHIeiaH96Z/8UWjUYSCqshDqII/Lj8R+dNXijD2NQzK6PMIIEFWO0jcoDnhydi63NzWGEnS6wWkWT74dPsEFvF3D5nGa38zRpO1JS/kgen9ra1P+tx9/LQtz0wx6hNrZ77QlgX6NI2Li/LubZXHKhgcqoRUqezxDH9zgPtc2SRaHQFctSaSsC9nrrQexYvZ6un6UIlD9NGzBvQ97bYKnKfhok9ft9yzDG61umDI4pHyqSvckJa1GW47PzukU2Ds8YqaERiPE00CeQBR4SnetuGMVqt3EuBH3fP65CDqNm0uMenRra8uytfWMVToQF4nYZys/GceOzcKZrqPIeLesZ31QQj/azePZ/eYU+54fwAZ5xcOhWu4aSHwsoI1CU/dG1JuJnbjD4El4thA2cHlVVZvZ6RU7nbMvANiAEw8TbUg+36PCAM0KE+4cjARhG5ubG/ILP3rF9m2ojpBM9j8K0MByrFqndrJBnp5lPXbH9gsSA1zp3TTeLcwH7PXGU5bsoxrHoAmHXTiuUHrnZBqOnXtTo80IL65vMx1sQ2U7i0OgaADZL2sITfGOZxFQXAud5TVs45tv3g8Bmi2Q+V1LyncBaMFgBsZvog/6Xcrf1FRFtp4/k6mpKdarw3tMXEdbQ4bXcLZ5OrsRDgjPoCGN2oajZ2b4g6j9GoiLJUH2uQegFxfQbAyRnxkEARyOQScmm8uZSKel2WiRnR2fnLC5xfn5DdVP1DZD3aqfF0BzmRLsVhsb6/Kjr196qU8IDUK1US03+tAq6zIjd6FYQANggAW5wGEDUi3gUQ3o9Jj4Dxsb7CdgTFA3WC2422M+JFXBVIrljCyjcsE6CLjZns8HaBBeNyhWVWBNeQpSSTxV1xc8bQGNrJPVf8Ek00z1Ojk9p1Ng3zA07QBmWlJ9x4j2uQCarayhGxx2LJFsNsWG1vNzc7KyuszOUuj5wHJSbTVXEMAC0tNsfTX1IwxiF6MMt5+hBdnJrBxZ76sfe4YY2p/96R9Hh1Ob6WW+4U5QGMB5Uf50H6fZ4frs7EL2DtDp/IyFAdGKjLYUNof9PIQvymSMO2YUQ3PVAng6UdIHgLa5vialIhLGk2wX5xbjC7ueO/Y2g8APaNYWaT2MVPng5Wy25O6+wU5PiBsDY1TQ0RhAXJ+dmbJZyRe1MoeNEwvb/fk+FosTx+aqvy4bs2BmAc19Fnf3HZa1QTmbFKOnYPBOy91dXYtOGpUTmSY/74Dmjpsdd1tqi2ybhTi1bBTkEAwNgIbwHQRbw+Pdbze8TSfMuO+y/XHrwv3c1RbcDcx/PgKf80U/9nhr7VMALUztdIWSbMB4YJDygyKNBwfHsv3hAwsT1hstpllYJSJoAuIM0Od0bDigDUoBoThQOpFgcvqrV1vy4tmmVMpFyWYV0Kwty/9cYQzNZUBWtcN94G/L3uDRZLhEoyn3tXu5qd5Ko6H2MQAW57WnMWgAr1JZ8zwn5ybohRxU5xi+K1fY2ZXdlolymtjYngaKeVCtnZxBczr/Lu3fLHumnA3BkK3xcC0A2v0QQ7uHDY0Kws+vDW30egKJGMQ4wiwEVoZKwotLC7K2tsb2hrmMMmiaJBx7rlZlGkQiWJmMs4ZdhubGPA7Ad5hvAdRGMrQ//7M/GcvQhqiyl7ailwxiafZ9fNYxgKY7fk/Oz69kf/9Q3m1vS+0OC8skO5snCN5RBrcYtkMEAZkfUL5LsBu6b0co8PSIOYPd4vnWM3n1cktmJyfJ0GDRBggFLfqwHdGv5ln10osVc+qoNW7v5Pb6lj0KwGbgAUXpH43gV1MBAA0CPjk1KTOLUyZGbbg5jTvfnvpoGxIYGXEZmmsns6qMy8bs+YJ2aS6hHry3akwGoMFxgupIADQEZ8OGdnhyyjxWPMtjhG08hiwNrSPHgRIHAMJk2O8UGCXr9lgb0KxzZkoPoYt9LivTM5OyvrYuK6urMjVZohx65gGrflJGhkOroj7LOPkNIkvjnAL4TgKANg4khhDReDn9A+YKpDU+YzG12EWo9McepwAAIABJREFUz4hwVNM4PjmT3d0DVmZAMUe472G/sfXow4DJCrA7caMGz96Pp/t/h2jmFzZCheMpQhlqROmvry3JLyBBfRHucy0CiQqkfgDgxIV4Pl1Wxg3FlqF2ktsxL2Bpd1e3cnVxKRcXALSWpJIolw1w0DxaXAPhG1BD4AmbnK/wbwbOmvt3AdTayKjKOLmZLuCFxRJFkcHBfKuzg0Df7UsqnZW7+5ZcX12zgi4KPF7d3NJrzpp7AQwt6sJzmULQPMQ9z1OLYRxg04o1xjMNJ5Qp8ol0PLQ0ZIHI5WVZXJpnLTUAHQNvGaCtKW2D/lEDchM0l2Hayigtz7/JuSV3/CzN2wRjA9qDChoDpmYvMgxoKGUjTBRGOSC0YAOgXVxfS5eAZntwhk913J0NA+ouHJcFPLVABZ3fL2So+2YNqDgeTVIQyLowPyM//tFXsrGxIkUKD3I9U14qigvOowDNtUW4hSCtgwCft1otub2+kevLa9o072p17e3ZR4WOJh8DZbJz+Qzr1KOL+/zSNHMBrVpqxxj3YoHTMrRkxqQ++ZLqP3b8XQGGU8DzjoGBpaButlil5e37bdnbO2YMGryfKPAY5BT4FCAaB74f+4yP8b14gDaICHJZG9sqJlGnLy8TExOyur5EcEMvCs49s3f6kkW5ItejGRaL6mhyQfcXBk7uRshN3NHiwjTDxF/8+Z9GYmjeCUYwNCvgLqB1pSutdldubu7k8uJKDg5P5fDwWG7vsYC0dDIXIGOvBrXO/ZMbRlHDACQIBOMIcdixHyPMwYBGawBd49jtAFwzUxU6Bl6+2GIHdZq7faW3xwmsjfuy42KBBu/b2C88G2xot9WaXF9dMbgZnmfEccEEwPxZ6Us+l5F8Mcc4OdRNW16Zo6EYgj5YAOrV8ntUU1l1LrjjZe14Qex+1GL2CzwAzTK0PrzoyZTc3jZke3tHfvb6jZycXKJoucanPRJDc5/DzzYeA4ge6xzj5OPhulKosIRfWfbA/A42PjVfYZWOjbV1mh9yaOADmYWfDzKKeSZomUKsAQ8Tl6EFMjcnbjKUoUUBNP/Jh2ucDRhaEKC1e23Wyzo9u5TTkzM5Pj7n3+gfoFHkJlbJNOTQpirDLz/DGgdM1jBuzxIHDO13nhLQ8OxeTJhZeqD5E+WyvHr1jBkDC3Oz2pcTu6G5qagMzb13G4tmvZ4u0CGY+eoKebQXcn11I3d3Taaj4d66vQ5VjGJRA3/LlbKsLM3IwoKpQGtUYaviugyN9paMBgS73kvcV1jE+Lg5Hd6RtWoL55mpUwmW3H7z+q28fvtOrq5q7DmFTISw8kHjrueXQTtf7logFMQoBPpYoDXqPPEBzQZD61ntpoPnxZzSGZDvk51R/ZybY0l19IuAVYH9CczGpUG1wRbLjwG0B7jjMDT/PHjn/8u/+LORmQIPkNCWKfWNKo4LArRGt8n69uireXB4TKfA9VVNkumMVpJgrp96Gji0AQ4pdxE80KsDZtcKH451wTCOED81oNlilaoewgOZkMlyUTY3V+VHr16xczqr1pLe60NGATQ7Dy6DspH57CtgzgOAQ/wfyjYB0K4ur+X2ps7NB6EarVaDaVDFkgG0clmWF6ZYIBDFIKF62I0D17TOB894zDpoA29ulHkL2siCVIt+33R3N4CGHpzVm3v5//7H/2SBx7v7Jhuk4H3YBXu2bLhzgTiygK/5gdmVrW8DqKJe4+MBzQTNOumGXshVVphBMFGpsJPU6sqy1s3LZ5WlmSbVWj/vaQCNzx9QzNUvH4m/+ss/DwU0dxI9uwxrV5nUpx7KROuFVA3oaOky0/kch9ZafeZqwna2t7dP1RP1uDSHT9MoLNqauL0Hcxe2C8YVyqhC8VjHhd033/ft7GD5CLBdXVuSr7/+SjY31qVQzEkC6U8oighwMD9qTRjUf9etwPz0BzXn7HNg7prNJn8soAHc6ncAtBu5vLhmQ+eb2zpDOOgdBMim4axIS66gyeorK9NkaNMz01IqlnhNWxm110swB1CBLiXpLJwZepsWzNjsxS3tzIm3aP1QDN3N1DsHmBkbgiQZYyaplLRaPcrX//P//g+yfzwLozloS8U1H2tGv/vzxF0LcRikC4aDzADmC3AO4ShAXBrKDm2i9+csgm+hfoqk2VyHE6qDxJTH4VZ3en5TPMHIhaaMDldkDhtl93zBG11fRgKaW+bZixFBsT6VUpGeRpQjt1PLLCugIdK8Y9JbrmodNj05Pj5lJ6f7u5Z2IGIZZo1BGtxcf1DL0XmquJP43YvdgFEF3Yv7PPZv2CRQ3WJ+YYaAhtxOxH+le11JYcMA4iWHuz8FtRyTvoY02B9d1ApoGHd7PTgF7m5rUr2+ZmEAgNnt7b3c3N6zThqOS2Xg7cpKNoeE9pTMzBYIaCgECeEGWMBbSrtLIkVhL5crWi2DXdCdxHZzT6mEFm/0XhbgxhQRdGOUUDqc/UahUqbhEGjL7u6+/M//9RO5uKwyeNvWAEMhBNuD8nORi0+5j7hr4WMBzW58vFc4k7soF69VUKByrq2tsg/GzOwkNzuYR9gEx+sZoRDhAg/mbJDzqTLqAto4Fu/f4Ow4Dl3jr//qL/rj1KuhE8GQDeFDeRiyMzR7xc0hehsVHjS9BfFnKNR4fFGTDx922Sz4+qrKVCgwNLr2ieLmoY1Ax5mATxGMb+O7IxmauQEX0DBuk5NlefXVC3n16iUNsBkUeyQzM/0rTbCqfs/kXLI+h2Vo7aGijHbDAIBZNYnhNK2WNO7vpXpdZQf26nWNHaKgriGFiEZfhJMA0LIZAlwm11GGZjydSFdDYUgAJQJuZ6ZnZW4OLv4S2/O5wMrKDWwoHA/Q7P0PgXS/azy/KaY9nZ5eytt3O/Lm7Xu5ub2T+3rDAzQthvvQLvttzP9TXOO7ADR0HrMhOZgHOIuwqW1srMnGxir7UCCWEpUCIDfYe4kZfjbuqO5h4TvDBGd4BN3vBIEf5XscoAVSOxT2M/3plaFpQwasMQAacA7CfnVZlQ+HZ2RosNXc30HlgYvf1L036gZg0D7Izwegcf/jM/tpfqGQY38BsDR06imgnE8CaSnIsbR15UwMVkDLMW4pTlK3ZWg2Qh//hk0NINS6b8hN9YZxaNdXt3J3D3bWlvp9XYNWM5o5gIIfjFlKtmkchg0NGxIKQ2rZ7S49n/CAAvAmJqZoEwyaS+0hEY2h4fuuOjIANQ04RsxcvdGW7fe7THdCfvB9vS1NgLdROTnGAY6mpwCbb+Oc3wWgMQLBmEgwB3ACFIs5ZregMOnC/CxLeaNCB+qe+Bs723nEb/c8ftB78JlvQF1i5QJfZIYWOEFAXyidADS2ywJDU0ADOrd7HQY0onM3+zW+35OLi0v2TEQ0ut2hbSMD3oypfPptCMS3eY1whhYMaBhZAAGAbOv5JvM7ZybKbGtnu/do+7sOW5Dp62HLMYypGyPmbhY2rIOxaPU6U5+w2VSrt8yFhP2sjTpsOLPp7YjQm363K7liiknLYGAoJFC/1ybGDKFIpFi6m/a1Ulkb2hovJ2xq7FHA9JnoDM0v4BbQtLYeyoh3aDN7++a97B8cUl1G4UhoB9xd2WHLqZz7bU7+E13ruwQ0CxxpzicqLZdkdXWJToL5uVnGLNLzCbMTq5L6TSQD54qVT4sD7sbuyu/Q3hclbONv/vov+2H0z6oo9qREWtrPTLcmU0hD3bXI+0tJs4MdEupmU3Y+7Mq/f/NWauhi3e156TWeQdfaz8YA2jiV+Ilk55NPGxfQtPRKT4qlAu0TGxsbsr6y6DUDVpDQDkqeABCthluO+em4uzPaQFvOJeYKPR1u7+TmBoCmVU/YGINzrAGsaHyCn2IZLe8mJJ8rEO0azYY0Gw0CGlg31E50686ZEtqMKmcD47SkwDBTCNZEi7zoDM2CsatyssFxs8OQkw87e7K984Gl3OvNgUOE+6TJVuh1fjgFD74LQNOKo1oEFHMKQIPTCC0YZ2enZG11WdbX1tjUGOooktzxAmPjxmiY9jBDMyWl4Fh0PPj22CBMcuU6UHOEyglAc3dCK0Durm4/H1xEG52w5r1peYUHZMcw9GmsN+XDzoG8eb8tR0fa2gw7p6pC2hpr6IZDDMJW7MMA7ZMR55FOYJmIu+j8m4F7KTdw0S0NpBOuR8LjCfXt+fNNeba+SjUPgsJKF33U39cSyd4kM/sA1UoGlSjcjciNzbOC1Wu3pdNuSavZMv07G6wp1ryvqw3NCCbADCoqyFUSpYRMRVnUukOVW4BgG6WO+gmNSQITg0qI9mmZjDY+yef5d7ZQHEp0ZqUM9usc3Ld/0drwAVuWu9dPydHxsezsfJCD/SO5Qh8KaAX3atLwv+LIj6vmDqkyTxhvFgZSccQzjJSExf2NOrd7P/gbRiT3PYTRkgAnUc8vRXa2wZ6fi1KpoBerVmWxBn/c23BvT8ftPKbRkQtiYTjlPnvib//mr4ac2q6eahelC2jWFG3d8Xoy1KzXqhoIZgT1//BhX95t77EqLcsto747+wtoNsCQkBHQbBjCw6GOI5BxhOAxj/Xf4yghfQBotiosw13UuYJAWxjfnz1bl61nm7K4OC+5XFoBA/VZbTS3dY0bB0tQU1i7A1rbmgXgBBgYqseiEKSxq0HdJFO03WwEWQBgaLC7afUP5pcybAIOHgRO15WpIYYpoawsk88TfAli+RxBDX/niiWNLDc17rkLGtYfNB9cUKb6Lr4HZ8bVbV329g5k98Mu4xpva3fMFfYcI74TxZGf7yugPaYW8xDQrEagm4UHaES1npSKBVlaXKCJhPa0YoFB2bT7GrXT1l0bFH+04R2je+u6eDSKeHmb99/97V97gOY3uhFZHUMe/+1U2xjouj0N0+h1aaSF63xnZ08+7B3Rc6aAhh6JA0N4MKBx6X3SDvuYIBX1XHYXsWPlH3j/eR4CmqYI4afL0jg6JYz5WV6QzWcb8mxjXcqVEm0U8Cgh7scdLRrbWVIuOOgqSA1lHp4FRMQWolAAK9wqwIF92UwDpja1WxRnm9JEOxw8negPcQ91teVVZUBvTgCYsjJtTUe2VihRFRwGNDglh2OWguwoeA9OiL2jC9nd3WMK3f2dskrY0z42C8Gdny+ANuyowtj0RMNk7NrURCfzQvkh6TPLZWl5QZaXF2WyMimTUxWG9miFYw3nUAG18qm/E+KzqTqT4ccj+5H//SEm/fd/9zdDYRvuwWMBDU4B5mEC0NQYC7f50cml7Hw4kMOjU4ZocFF0tKKGjUXR65i0AI+hfT8BzZtbpyQMwQnG6YAXymsP2MTDeDw1oGsZF1D4+YU5ef78mSzMz5HO53NpyZnkbzA2vsxchDW04Mg+SBRXryluO2UEjd3NO20CWpfd1lXdJKA1NcZNc//UbID3EeOGDAP8bW1m2dyAoeUAaGBsUEVyhQeAxnBLJ8DSVd3d4QNgXlxcyE/f7svh0RHLHqEVImQLISG2qbIZEO+rXxha1K1Zj3vI0B4Cmh1TejbRvSytcYgItp2bndUYtZkZyrD6rwaVq91O7KiROOoVBGojAe0f/v5vPUDzH+i6+nlLhqFxPbL+/wDQ2l04A9pyVb2RvYMz2d07YYu6TlvtbLrzKwthriAX+w8D0Pzq5bgFNArQcC61XWmuIiLu4STY2lxju7HJiQm2HyvmMgoeJqcS7Iqbi5NY7BcUy6wG7Ecnkh5qyBW7/ADQtHxQF2aCdtvLMmjXlbEN5ERBG0ADGynet4CGumpwBFDNdAAtncmNBLQgZmaBs1qtMgTop2/3aDer3zcoU9wowROG0uYG/xg3Hz8EhhYPskYfHQxog7jHpDUTGP6h+ZxaUiify7HE1Pr6uqysLPFv2IO1ErUBDie/cZSNLwy4wpgbb+cf/+HvPC/nKEDz1CqY9D1AM54wVNTotFlT6wKep90T2ds/ptD1uqbrExtymg5CADR2/TEnIjuwVPT7p3LaXc3PLMImS0mVl3LujQveBcsAoNlGxAhqhIF9dXmB2QNz87MsAImkcdT5V3uWYWiwUZLiD9RO/mVa1fkZmhJKOwcKiLCpAdDss4ClNRqwkTWliRxJU1+NdUK64rE3OgSMR5NADECDLQ2szAG0VCoreCZX5eQmR+/tIMOBKXGmhR7iyuCBPTs7Y0WN/RNUOm5KF8VBTWA2rtVpWTuaZQS6cN3mVoOlHKyaf19VzqcFNNjQrMwCzmy6mmYQYA9NM0FdWxgWi0VZXlmR9bUVWVoGqE06geHqybf9AWzmQNj9u6aSMIBz54yA5i5E+6UwlYk+yn6aOQFdJAnDGUB1E7FnTTk+OWeBPZQJgrEYToKgV5xdM86xcSfWfV6Xbj/lNUftSnZ39OxwCbjIE1IuFVhob319VTbWlqVSKko+m5ZsBoKkwYypZEq6PdgkNKtgIAw2y2A4wZ0M2culVRZNJ49x9GBeGZLB/pZtubmtCkIgYFuDGtqstwh0AMJiruh1PMf+lMgkCWaZXFZSubxksln+G30iVWVVpm6roGoHdQQMA5CT0mbzFqizHanW7uXs8orpc6dn53JXuzWhItoXwQI17g1BtO6WyEJIAR7K8Pn9PMp1x5XjUU6oqOcKPccI1u8/NyIfUomkTExP0qa2urpMu1o2B493ijGrcGqh1h5zC0JsJBakgubJD2xuJZQhhuZ6wXRnCwCjPgANijNK/3Sk09PKB+gchAKOu3uH8n57T07PrqTVRDeh4OGMAxhxjo06efa4zx3QMH5YYtl0RkplROPPyDqCGbHzTZSZwI6ODJhUFt/r2T6aJvVoKAvDGGKdqG87zxgHBTSAwkAVVftnl2EVzVaD3dyZ2F5vMrm9Ua/T25nP5IcaqCSzYGdZxqylTDd22NBSGe1ZYDcPC+7IUGDVBpat6cnt3Z1UUa+teisXV1W5uq7Se15vNKRRv/c8n8obEAiEYo4Dm6X1jXwBtOgr4jEALZ0AaPUlmUlJuVIkmG1ubcjc7JQU8lk6tABo1CyoWDzsKeHescvQ/O9b2X0AaPZL0QFN3bVQOwBoEHrYz9Ct+t27HZZBvrm5pyv9C6A9FKg4DI0+JBjzaYvvCVKjlubn5NnmmiwvLTIGCP0HoMaiMxPDAd0UE1MpwfZLHDBAEDEFuMH8K0OzgKbhEl0a3E0VAnpCEdoB9l1DMC5DJjoMtmRPArrqE5LKpSWbQ7hGQVK5LG1psKmlcI9UE1Vd5P3QgQLh7tFbCcfS+fkFe7ciJKN6W2NsIz5DQdB2q+nlpXJD4v0hPM/p18kMCh37IM71haE9lMvHADTAFO2Zib6gtPzMzJSsb64ymwBFS4uFHM0LGn4EBBntFHDlMyxsY0jl/Kd//HuqnBbM3N0zMFiPnlctFYKAu063I23WqG+x5tnr1+/k8Ehz6uB9Qs2zLyrn8AjEATS11ivbQkgH2P9kpSyLC7NehHalUqI3CYCWQMHIoT6XD/skWg3MTo1nL6PBXwHNyoSqpZpJxB6N6NDV7TLt6ea6yo73UDvxgohi56UtDfeDgNpCXrR6rcausdk0KhXDieGVl0lIq4MG1Hdk+SjPfnF+ITe1mjRa2mUd5YkgSYxlpGdWFUtPJW4PmiCTtTk7/yi15aFsflE5H4xJHJXTlAJgknoqIYViQebmpxintri4ILPTqKWX4gZoTQWjOKSrXobZNy3ocd4BaPaNoYjbsLADsyNCMHEBCBvUTcSboZvTT1+/lbPTC2m1utKmChBc6SCOGhnn2OgEW4/83FVORNKDuXjFNZBykk4xxQR13hHMiB6KM9MzUkLsV0oT161H089Phs1JdnfUFCf7w4Bb82+MEWwiKkyaFI5Xs47aaTW5rd4wnxN2NCAOBJUBtfkcA2oBapAVKrEI9TDecgRa0wmAGMVuV06hVl4hSb4qtfs6K35oXwAN9UmntKQ3aB1Sbqxwg7Uhmb7VQMkjpqoMy5yvJpeVjy8M7WkYGnq7agZLj84fLRKal/l5zSZYWVpkYjtsaLD5BvPnwb1FsaE9ADS7U7pfhsCE5VNhh0wyTy5B0EK5Ftg6tt9/kDfvtllXC30EmC5jE7oiIM1jAddjnSfCLXuHuEbMcTtPGLUPeh/qpqpmCJoFQ0IBb61qAG/S7NyMrKyuyOrKisxMTUshC6qPfDoTsMgvawiItTUAmAh46N/DeR5U6EAcGuxPLEBgKJxGhmvQr34vKe1Wi4ntt7e3rKsGNRRQoq3wkB2QV0DL5Rhk1ukrWwfB0uRyVTfB4lHl4/2HfTk5PaUsMXbReCeTaezmADChOgvQnpqqUJWFc+K2VpOz03Pmo+JFkNQSyO6qiDGVwQztKWUqcN5DNJuwB3kMp4A9t3suynVI9SU/GcD3wdBhouAmjCR1U7VlfnaaRUs3NzdkqlKhgwBqJ8qODTbfQd7nONuZfxy8ewFD8/IxTV6m5zUy/3a/rF9UIzRc64g/QoONi4tref9+R7Y/7EujqWrCqOjtsIl5DMF5jHPEWAEPSqI8JqDZqhG8HxP8CsDpdFoELYAamsGiMez01IxMlFJc7GiLR7sV7GvGpgYbVp82Ma1Gi9NZkIMMQE0A2OD8HiPU7U+F1KizsJEAiBp397Sh3VSr0myiYTS616lzIlMo8DfsaIiNayPzgIKuzgeMEUGp02WS+et3O3J4fEwwa6G8FNOjEgRnFkFOiExPVmRhYVGWl+elVChR9i6vr+Tt23cENZteZ6shW1U9XjW0zwPQXNYRRRafAtA8m9UYQKNoGuqP1DdWOHGKMveTfZmsoDLHimxtbsrc3Izkszll/sm213sW69aeJ5RMjRgMft/a0FyWZhdkMDBoWzDcMJKTW80OjbcI13i//YH2M3ip8BOWMDtqgh4DjB7jHFGEyL+j2TF8MkDjBVmxcKh/A1JMKpWyFApFKee1pyJKZJfLZVa9hW0NuaEpusrVpglVAIogqo3apG+rTiZZCmrQ1RwgyEBb8z6+z/g0qIb3YGk1ua/dESgBdtlsXnJFZAZkBYG0kBXmi7L0UZ8OJLxQmQPnBaC9eb8rB0dHWr4INC6pie24b9j0JipF2VxHbNO6LMxPSy6rYIgqIf/+k5/K9vYHqdXuqDFALhm2wiKkD0vYjJ7bL4AWl6G5gObK/kD773Eu51AUcn2VHnoEiHPjS6PQgmoTLuOLs4aH7Gx+QLM3F6ZyamR5RxucdFHGpS0np5eyd3DIhPSz8ysKLX+8BOc48PDw2DgPF3dn+7Q70297O5nTPHjUjhlH5RzSnJx/gGHRkcMqsMqK0umMpBJtjc7PZb0a8DDMIoEY77NGGKrPZtJSzmUJFIWCtqWzzgoAnWuHo0eSDG0Q8wV1D5H6ALXa7S09nlp8QCSXyUkOeXxgV2CFLPyppdlh50LoBTY8XBc2tCqySw6PZf/wmP1b22CL1luaSrIZBwKLX2w9k9WlRckhpimdZbgcgm6/+eatvN/elrOTC6mbyiHK0jg7oXbc4Ln/AmhWPj+GoXnfweCaiAxsLmD/MBegyQoCbhcXFrmhFfKaXWJNNnZO4qz5B4BmQcA9CVXKIJWTvQNaDJhF2gkCH4+Pz+T99r7s7h0wO8B6oxhpENMWECRkcR7uBwdoTtT/oKGdNiDWyHot5UShAKvqt71uS5jDTBrglqG3SasfKAAD0BamJ2V5cV5m57R5sFU/wdAUCAyw2RxQUy8eYwyTQsMA2u3NDQENjAnfgzqRzuaY4UCHQMqWE8qwMCRSpaCiaimkPo36B4cn8uHgUBqtFlVTAmG/J7lMVhYXpmUL5Z5Xl9kfFG5/NXkoYDHg9vScXcXY9OW6ylJCFmC9lRVp9/oCaJ/C0DxAoqAN2DH8OXAEVEplNllZW1llzmelok4ku5mOUjnDiIDFKU/l9APaSBsaQzUgLJAmlHNBx51jZgcgqBYxRFh4mqsJdSFecb0wA2kcUItzbCQZH3PQkzK0EEBD5VdvZ7JGC5jrE1rXnV5FE96gEfmopTaI+YEQLU6VZHN9lXl3lYnSgPpTbUOxRFU9cSyNvSk0l1WDigW0Zr1hGNod38NYFHJ56REEEaaRgaWYtjBkCiTQVs40bcF5cG44j96/25Gd/QMyLAAa1FU8X6VUko31JdaEW5hFtymNY8K5YUNDmzo0RUGF5KtqVY4Oj+XD7oFcXF6xoKg6H8bHOg2m+AugPQagcUu09f2MDQ75ntl0WqanpmRzY0NWl1dkZkbLDGFDdrWCIDIVCdD++Z/+IbRJiq224dJAtROhJLOmyrRbHdndP5Jv3ryX7d1DqbfbVEXZa9J46KKzLhg+optw4wGXrcYQDcLCzh0YQ6ZkxiR622DRoZTKoYvGUTkNNA1q5LNqMAAKhvkObWK0j6U0Z7bVS9NhgGuobcLEAZp5s9eGQXZ6ekI21lbkq5fPaZcC3mEDqtJjqPandCbNLAWGS6Rz3k6qRTtRILIt9QZ6C9yxUCSIHW1yiTTNEmxtB08nPaCaPQBbG4HSpL+Alb3dP6RTqXpzw2eFjQxBxDNTk8yMWFqYlYlikeomEujV+JyUPgsdQCVOUjuA2QOyCJtuu6XOBwR/2017lCnAKqjRJETn282bjf69aEfGkW9bndd/5ljniFnEMngsBznZVhuw92Q3VhQuQPFSJrCvzpB1swagaNUOzoPvXiATdG45tRRdVdOzv0UBNJcGWi9nn7t4lzY0C2g7e0efMaCFpHJFky3vqKBJdPV/66nx2wTcy3wKoOG7YMD0SHbBUGCExw7H5E1pCwANZX5UAJiPSVsbwjAQR6YGWCS2VybKBIuvv3ohi3Mz2oqs15Ua48p0AwCgQW1l0CzSWoygwS1vY9UQsoFy3GBoCgoJaXUHxn+rUgDQ4JXFvxHOYTeHVqcjbw+O5O3bt3J1VZVkOimVckWmJieZMrM4OytTkyXJs12adhlThIJtLsGMlHa7R/vtDgqLvtthulS3o8cziJeTAAAgAElEQVSh+Oj3DdDCgCgUkEOCX787QPPnDeuUKailWLwUndjXNxBDOcWeGZlUQjKmbHpcQPPm91/++R9DGZq/fJCyMw2aQ0CR1sJqy4f9I3n95r38kAAtLJo/SEDCAC0mVj7YlRQcTF6lsX0poCk4A8wK+ZyWPc7laPWqtzoKLiZNqNtFIrmyKbwstYeDAC3q1leX5UcANDC0pEbw15sNeght9QyqDv1BUUm7g7obnasi4O8G+0rUveviOwAy26wWwGaFEEzu4OKC4RdXl1eCHXxmTutqTU1M0OWfR9wSx6Av6YSWn2KMdyIhjXpLarWG7O0fENAO9o/lvtnyKr0gDedzBrQ46pU1Bz1gYhFCK8bJ4zj26v/+aIY2DGj+YzH/qJe2ujYviwvzBDUEiwPUgp6RYSAmC8FlZnZe7b0lRgGaVTldwbX1s8DQaEdptAhob95ufwE0AzRhQvcxAhUGaN1eh7FmczPTsrA4JxMV9EZMSaPVFhjp0Z4OAat393fSRPoQE8+tpxGsLkcBWltdlF/46qUsL8wQLJDKBkYHGymOgWqH5HRG65tEd7vT2oBIT4013irKRRMB13XWUtN6aQqoExMT7A6FkBK7EQBuqnWU1d5joC7Adnp2RqYnp6TEardZgi0yGFCmhtV0zT1B5by+vmVv0ddv38nJ8blcXlSF5AxpWtpn8QcDaKEb7WcOaK7RX2MekywIOTc/oQ2B1taY0pdJq73Xr8qPAjS7rqgd/eu//NNIhuYOoGVoBLWO7voAtJ29QwLah/3jH4zKGWe3GsXQgs4TR50IAzREYQPEVlfQHWqNOxzjthIid3c1VqpAddfjk1O5ua0xHKKJIowmAh/2q3w+Q4b24x8B0GbJBtk3IA1De522OiZ993pSyOYkQ4eDpkHZlzXk+g26yMGEUV5ZfIPxYuiyDkCDIKPwH3ZpyldCKDfV6jXlCcwQ8XNw68N+l04z8I73B6Myyn6jtJA2hUnIwcExYyDfvUcs2j0T2VnykZ9bT7Cy2nHzGt2Ca3Rex2kzbsOK83kcGVFd7tNTDMeNzacwNMvq1TuvWSgMDC9lZGV5SV69fCkLczNakYO2j+EccAKaZw4ebFAP7mkUoAU5BVyG5gHa7oG8QZWNL4DmLZpRLC2OsIYBWi6flanJCgMVNzfXZXZmhqEY2aSGcSDO6+LyUnYPDuiFPjtHjFab4TZQK5FShMoHqK324x99JUuLszCxE9CQXHV6dkFwgQxA8KYnJ6WSVfuHDe+A2mfVUsvaLLh3YJUw1W2R63l+fi43NzeUP5vdAJUDzVMAaFA7my1Ncsf4MJbOBNbivV5Xy39nU3Dxp8k6AWZQp9++fS//699/xtAPsEuwUfZYMO3Thtz6Ywzfnwug+VWpcWD4+TkFhlVOa77CvGIetfZdUlLpPgHtF77+mtVjUPcPNmE2VXFeowDNJRSJf/vXf/ag0F1odjfz66uKtH3WxYIqgbpY77Z35SffvJX9w1NpoBmKaWdG4hhcbCN4flhWJrpIhQFDLMAIEfCw3SrONd1z2L9HOQuCBoXR9/RsokpOlylL8BqiGQrA7PnWJmtOVcolxpjlUxqoKJJiutHl1Q3js9Aj9eDohCAFBsZu54Us49B+/KNXsrm5SkcBwjVu7+7ZD+Lo5JRBr2iAsbX1TKZLWY9VuYBtWbxlbwzZ6WuwL96DnADQDg8PBWW08dra2qJRGGCJ43TanfI/JncTzg9beNJzuAhCP1Att8PMlJ/+7I0cHp7K6cmpqVyvzExr12u1NP8rzA4TJn1h9iJbWdg9f5jshGXOhB0f9P4oldO/fi0rCnt2//tx7MZh53aZlSsjYc+InE7ILjqwf/XyhUxOlAhmADXdOKFVaC6eW0FlCOy8IqV9GQtodqcYXsg9T+WE4fft+1352et3sn98Lo12mwZllg8xycJBCzXwAb/HgDZOtfxoQIOapNLDgpraIi7LOlNI9l1fW5ap6UkpI9UI3sNkVwNaE9jlRO4bTbm8uObC/7CLwpuXjK5HUC48owDDH//4K9lYXWIaFK52cXXFjl37h4esfoE0lZcvXsjKXIWAZiO7rcDaZ7OAprKSYCAl7gVqZ/X6Ws7Oz9kTAJ+vraGP4xIZWj6fUwCycf00ACN4VmuaoaOYxpNpfqf0FKzRXPg9ZO+bt3J+dil38M5aN0pEQHOZEAEzhAo9BqDF8TiGAcYPDdCwCZdLRdnYWCWgzc/PUA7Rd1arLqOQbJfyr70MHs6QuzlFArRhUFOvG0rtYudF/BH6b37zdlsOjs6k0dE4NI0T0hSobxvQwuh5HBtBXIY2ViVwOkLFEWwci/CLAUNLsooFSnG/eL7Jmmi5fEabu6LKRr+tLZTA0ZIZFths1Btye1uXg+Mj2f2wz+Y1aGqTzWRlbW1ZXr3ckrmZSaqsEByEPLxnG8J9ubqsMnzi61cv5dnqnMfQ/AuL9+nkf1r3vD0O9jOws4ODAzIuuO1nZ2fp9YSHFgCFMddEeljvVC0hO4MQs4QR8kvRO6DHTIPziyt58+Y9Qa1Wq0sD6rKzW49iaH4g8+YvRKX4AmgPJTxsTOyRURga5AaeenQ0e761wRJD8Npjs2VsJTOT1PabRNjQpwCaFUYXAZX2IwgOaU9NJiYD0F4D0I7PPacAhXMEoAUCwCMxtMgAGhDANw6YgsAoior7sQwN1ITfdRhatgBAW5FXL59T7dR67UkCWsZsYIzaZ3kgpLBpVgci6o+OjuXk+JT5lPlCnk0sYD8r5FBvDEnkPbm6uWX4w87evlxf3bAs0ddffSVbawportps7SEW0Cx7c50HLqhdX19zIwSIAcxgU0EOKirR4vpppElxEjTODecFoCGrCiomk8/bGhJyenoh2+93Zf/gmCl4YHKqtEJJ6UqPPSNNyfgRE4treHP4BdDGLYExnw8ITBRAI5NHWahyUVaX5uXF82dkabARswcBSTp6/qKxyiMBmrubqctVaJzVXfdW3u3sypu3Ox6gIaBRU4JV9Qh6hVXDfQwbWhybRNzZi8Ou3HN/CqDRluDZ0JShzcxMsAvU+uqKlCt5KZWKUgBTS2c0Or7dofqFjADaNFMZ3k7t9p7qHzyQqVxGJqen2BIvmehxR8T7tWZT9vYOZf/giOWvZ6en5atXr2R5doIgRJCxYGNaFFpXPADK3QjxPkAOdjINxEYp7UFMnBX6dq/PoEqEnpin5f3ic5QTurtvyPnlFevutep1ua/V+Td6V1xf3hDwIJgW0LrS1lzCEEDzg7KdKxaqDHg9BkMLk7UoG6L97nehcsZbI3EBLcmm2TAvTE+WqXWgXePUdIU5yLalI88a0lDlgcoZNrnWm+U+kLUzYCeFcALQtnf2WM9q/+BEGgjoNA4KW6rmhwRoFoiHBDzMc4ad3zz8ANDiekpUDSOgCcAhKZkcEs7TsrS4qEGJMxNs8IoUkkIO9gfNl8SXoPorq04y7xF1zDBvjOpHJYtCgV2jUCIIwAP7WqvblZOTc3ZYQrMSeDi3nj2TyVJODfjGS2WBjaWFTI2zYUDT96Em2u9ZNmTviXLa70mz3SY701rz2o3KWtVQUujs4kp29/bl+ORMbqs1BtMifAPMDNWRsXGyOrf5D7XbBoD20Clg5+OBcyAGoPEOAxidikPQRh5sfgkENKb5PHwpW3/4vntm93yPYWb5GPOLXRLuRh7wNDRPwYfFzmGFrGxurNIBhZp3SH0DS1NTqhbDCCLQQ4D23/7tX/phgGZvYOimkG4C139P247V7u6YP/fmzbbs7h5Js61hA7BlcFHR0xQwAYHUPjiXM2wHewyvUdjuEzaJduHiex4TGfTjGDpd2H3bLuVRdj7tZ2SCN9BRnWV+9NqI50KQ6vTkhCzMLzB0Y3ERtdEqGsvj9Lkc2KdMNyhTqFOfE5H3WsRRGRF6RCAotsHy2rCtzcxME/z8LwtmWozAVCg1PRrxbx0DBVU7ZuouGqxKAFqHlUvh+NCmLNptO0k18q7WYKzZ2zfv5eziQm5uIXsKlu517d/uPVJTCMCRMJmPK1NR5tBbR4HtWsLPEMPhH+c2AiPxY51gxMFRtCMXTzT0R+UDMo1S3bQPP1uXqakJyaP/AJg2e5jYCivDNzAE4P/9v/3rg7AN/0IcVpeEuzw8bph8RIPv7h7I6zfvZGcb5V+0ygZ0Xgq0E13u3kbwYv/8Ac1laHF2v6EpCAH5IDlBypGXAGUATQsyKqOCEBTQrXpyUiYqFfn661VZXV2VyckJno5GddMMFsfbDtf4zOZecr46ugFZVs4S6wnYSesUNti8wJ78L1f9VNaloGu7TFlAs+Cm7BG19ByUSSSkzbLcACk4B7SWFuxq1etbOT0/k6PDU4Ia/t3raukkm0vqZ1lRFucXQIseHhVlPD3QjhAG5eKJbtC6yWI+i8U8m6l89fKZrCwvSqmA4qToVZGQHnrUBjgZQwFtsKMOJ3L7AQ3CCIbGCG+mrByxyN72Nsq/tBnw6LVIe0JAi2N7iDMplmkEfedj6fwwoEUPzgOg2VAELHIa2wFsNjaH3swkq9LiZ2N9QV6+fCkrq0tSLORN6IMqrMrSHNDhpqOA2WEXcr0vCBZjyBCX1kMYjpbnjtPwRvsGmE3NoRq4h0Hdf1tVISGNLgz999JsouemqptwXJyenMnh8QmdEwjTaDTagiQsK6uuChtnjl1AG6i3j1PAIOw+NAs3+uvngaFpU2wtLqpB3EmZmpyQly+35PmzdZmolGAZ0aIESTTdfjh+Q2vy//7v/xbK0OyBfj0YcWZgaBA7CN3e7r5883pbtt/vy129qbYMc9anZGjRRSP+keOo85DeHmFXGs9Og++RnYxgVTKJ2QQzMiUFKNuRyXKn+blJ2dyEYXVVFhbmWVFDE0mwmBRkgE18PuP9pNqIloOmCzmEC0yKz5iwYKY2jNDF6jEz2wIPAdYqBPZ7dhdGFK0WMzahGb2+3Nw35eLinOWDUL0DgIgYuouLS5boRql3ZAVABU32/3/23kNLkuy4ErTQOlKL0rIFBMGd79wdyuFQczjDmf2cPUNyALRuVHdVahFaiz332jP3F57uIaoSIBpA9snOrMxID/cn7jNx7ZqWXxkoWYIiGUju/ibJQks6apIOz01W1h8ATUfLxxM9+LQyREM4qmT8/NkTefXquezt1KUANZk0Ym252EKzRECLWmhxgGYLCSoOmHykz7/77q188SUA7XvpANCm1qlIgW+VpRP+fjOXc9nmWv89k4AkfvP6iRKzDlaBX/QdNtkcKbiXFm/CSQaN/YxTrEWJD5qauK5MeJ9atUT38+joSJ4+A6gdSp7pb7PSlBqBk3A2QTJAgUUbjOi14F7m8lnn/mnNnXbwcp2kYobMJ9WqKxhvoanLDumjObPksPD7g6GcX7fl7OxMbhu3TEzABUbYAlpp4JzhPnGPAEJ2KvWbKcf0lfVvMSm4Hueq/gHQNoHo+IMi7gr+HllwObH2phNq42mFiya+0JoRVTAPjw9UpZiAFi/UuQBof/Kf/++FOfR/uTxAqp3TIe538u5Cvvn2e/nyi2/l6qbJDYjDXxedPl508dxHDO3XDWjLYmR2wket11WWGJ/bKyT2x0G/XxwzKLyqFj8sMwAaZK3RyUkzQzM24aWgEDOaUKbIZbJS36pxUezv70mlXNSMERqjZLVXIk5ElDrB9Aua9U6nTACQHwa5brq1GldT1nY8S3sxJGFuawholhQIS5i0ETuyrTc3N6wbPblsycXFBRVCEDsDeFkXJ6wzcOroeqOo2VmnNtb+Oo2uKzrKrqbT1iFe49MfFv7Ge+2quVx2UMWtnbkTmlwLMhKymWv9rfeiTQ/bdQ0B/0BJuieMq71/Et0ENpk136HbCUBLp2Rrq0ZK0rOnj+XocJ9SV3zPyJtF908qCmj+6+MWit0kTnz8NxgO5fLiUt58dyZffoFWZBcyZQxN4wU+J8ksGh/gFu/vt8tCiztVktzwTRaaT6fxx8QWycLkO4Y8f+e0+VFYPjMV1qnKOFGNgmqxKP6dUtcf7ma9XqV4XiGfYYwNwAYSYw0yPmV0XUIHp7GMJ2PJpDIEP5BnTbkDFrZeVzOhq05f+73p5ul6UYUFK1aHy4k4Gay+y8tL8t3enADYLknFYHNlJ2FEd9IpZ/DaGIfJKFBj8A9KO8GjoEbai5dV9zeaD3J2/fAZzGVOjnnGua5JILIZoOmzfuhH3L0sO6g/FNCi42FrOhFYQc/xtf5wgKaE8d+jowN5+fw5FWHK1RKVZKwl4515cze+FND8xRIuCG0RZowfyLggxvEOVto338l3UK2FqgOZjndPx7hTNRzEzSS4P3Sy1/n7qAUWB2hqqyZ/RCcVHcS5vxxDnddEPAyABb6YdcFxpdXMcmLSM+pyAvCUooBs4YT6YOz+hIlxxdzwMMHhgcWVRkBV5nQ1wcCu12uyvb0lW/Ut7VxOpdm5FAtF6r0fHhwwc5rPK3DCfcQz8PoxH/GLNWxj6AMaX+sADe+LbumnZ+fy+ZtTqoLADVUdM0tCpPnsC8DlEk1Rq9/uwz8kWGnhvAVbj3idH3eLHipxgLYMBJLuIzpUmwFaPN9snTXrv+aHAGg2L1i7etirFPf+3g4rB9CcuIp2jNBKc5l+H9D8eV8L0OyP7SslrCD5MpuyFKXb7cnFxa28efOOherovIOfR11Wf3Dvo1Jg08nd5PVRIEtaGPg5TGatNlv8sIVu8SWeLjSrNYSPuVM712lC0ArTjtIANkwwGB6MfrnGrSCpohk9ax9hriP2BYvFuVG4Pi0hpx/m9xTAe2ZzcEtztNrK5QoTA1pWkmJDkr2dXRYKQym2hgxTFr0FtN8UADH6keR60IIP2vqFFhrmnYkO574is4kuTV98fyq/+vZ7QWkUe7oiDssaTgVRi8lhHAp2Hy6xYPekneW1fSLf23h4TrGEEOmoJwGIOQJvMFeWzPJrQlcsnHUBTTZsGHQfWc77ALSkx0+6tj8eKy00HE4uyeMDGrLq8C5ePHuqSi8721IpKO0oenAteFLLXE4fyPzvdU1gI0CvHkXqY7m97cjbt2dU3UCDCgRyo0RHHyTiAI2Zr5jM9n2YyMEpsCaq+Rt1YcC8InO7FDZZHKAZYZzSwa4ek8nFtNakGdBFr2/UDN4zLk6paXVBCIoIfblKAGz0yXhEwMHvJq4zur63bmpYQmyogvZ1rsOOShEpsND6Smv7OaTJD/b35PjwUB49fMC+nQAydjGPERFMAjSskThAw72wJo+F5gq+UMl4c3Ejn3/+JRVnUX7FxidzFEGZVah2MDZ5lnOgfTeVra+wzcyslWS5XqIKarqo/AiM9UTQda3rmZUVHkhG3dS4pRMXRkl0rzagbdCAvwfxyB8moKm+AsIjx0eHLPF7/OiR1MvgQoZZUht7P6y11EKzCYyeQGzIIZqdwMDjRG23B3J6eim/+OxLxkRMrdR3Pf3F/9sOaNbN2QfCJGCbQh8uxhvzr+EfCFPGxVSz3z7t9zZGocWgev4ETEsMOEMJr2FGcTJmDA0TOwZvzAvGmlS6kVBRK5lJQ/dsKiNwCV1xsNYjCGW58QnVA0gGHR3sSonSRBnRfp2LH8mAZuRa3HZooWkpFPpxhuEIyIafNlryi198RgJtrzdUekYKfUQ1le8XF2g3sfj4lrmSFrPjweFe74OPJSj8ecHvMy7rGz3M46oQ7DXrWmib0DZ+mwBtE4MCr70vCw2aaFvbdbqcH796Jbt15aRFLbQFQPvTP/l/WPq07umDhQ/7YjyFptZE60oyaRlPp7TMQN8A0RY6791uX6bzwkJ5irKCsQkR2NWPMBMaT2xMPPHmd12gJEsMWxFnvP+B09g2JDeCO90pE+y4Mfh+wg5HeqMqRqjl02ytxcJxcK7GrpGv3hO4eOxU7oirSJTYx9g1yiXTn+3mtIYRH6xkhOVLxnyKVhTGjPfprAdIN+Hv0IQXfzcZoREKuFszybh2dbCERlMoUIy1RwAsFce0hqIrAvyZIThdKUlD4jqHhq8ZdlyS+YR9MH/66Sfy9NGR1Ctl8t36kxGfiW62U6MN3GlnbUFJA2OU86y5mZPKRlxsxJKlGbO1KDpnY+HpTM4a1/L5559Lq9kU9PrEpshmcgTfYi7v1gmsxIxMoPYCXTiOr8gQ9A/E3lw2HeOA8UAWFRZaMVvU++Xi0FnAerUx892i0bgfrAmsD51orbjwBQbNkrNxiIuthutb33Ss0hFqEjL4jdACYzdBiWAgM+34e1GwTMoWJpUYxu0d3/KM3fiRHya+Z8wfJ+7VJIyBd2AuJ2qKzQMikXbK5MDLZ0/l008/kr2tutb7slJG93I0W51aBWi2SIIJA6BRdA8bRQuAcXpivwPEvn97Jienl2R4X980ZTTJUPbFNigNacY30IDMPpwqKwmX8VZA3MAnKVjGDWosoNFNUyAxa4euG0DKdRfH4CG5Z41TCWhU0tSf6WsngvgIaRXpLBcpYl16H/oJELTnJaDZv7E5IUXsqBkKcgpY2PRGgjVQyxAY5xTBK+ZU1BGlTQjuswA9BYt5RDlrdG8ajAYyQu+H4UjQLm40ngZs68wopf1VMebg+aCzUi4txUJBXjx7xOYpjw4PpJjPUv9uSsa2coEYC2MhOcJwSoNgj85+n/et0twZyWXzPAgAXqgRRRIJnwB4UDQa6HIOEcpekz0QcKhM0S9AUlIulaVaKrNmFXG/bBqab1kZy5RuK7OaqbkMB0MZ9IfS6XU4FuC4IWs7HA1kMsThqf8GkAbt9yhtpYkLdpx3Gwk6ceGan8ncTb4edphmF6ODBUmA1P6lIaDFrlT+kIxMZRTzvrXPJAdQC+m989ZwL7r/fi8AjfJ3WP8zqVRK8ur5c/n4I1hoaKKi5X7Rw8LGKfVnf/qfEy20KG2Drgw2MVL9c3QHmmpsl6AG9Q00uujK1TWynpq1arSt6w+SBEqMDMDDnzUXM1AC6HofaVIs1/tgpizmlGC72oj2PC20TEqyGe3ozIybs8ay+ZwuYgAajFNsKhzXaV3UZNlnssrxgr3lCKDaC0T/PSIVQuENSxqtu6wuE5pmFGqkNLVqlMEGRHYT1okBIZVeYQllHKMf9wKLLpfj4YFsYbfflf6gJ73BQNqdnrTabXa2xzxhlDMT7egEdY1ZasrO5gC1aqlE/s+nn0Cldl/y2QyBBr8LQZqai07NAxbMhB2brq9uZDQeSblUkWK5LEWoeaQzpPf0ByMCK75Hwxa8Ht3Oh/j5fEArCPJHsMrQ0Wpne4vJCdSoQgQQY4oxmLrgJN0bmcloOGaT416/6wrWtTfCaDSU4WAi3U6fZF1IKiFMgk8FMwub6Nyx4N1lVAmMtNpdjM2+B6A5ILRyGH+fRF0uW50EPIKflYMpiVl7p2rSxf/QrXHXrU50/xLqg3+QFhr2Giyx7JyJqdcvXsjrVy9ku6rxXJ9ga0T34EBZBmh+zMEQkJuQJxJOetDgsKSUQAfi5Xgyl25vyFT8u7cnlOXu9wfSZ49GJAp0IZlKi96IqyxgCHixOcIyuNoE0LiYVgS1NQOn4DJnNhFWgLqXPMXxmQ2b7eLeGAMD8IBqgca82bQ2K2G3IsSA1I0kMLlu38PJMEgIwOJhmzbQK8DSz+cJaHTb8jk2/4XVRYvHZUABghDFg+IsNgQtZSplqLQQxhSxy/5oQLcLANLqdEivOb+8kpubW1Z4zMZwHWG9ANDUQsO9o9cASI3QpnpweCSVYp5gCSuHiUe3/RC05jOlUqzDBDH27fdvpdPtSKW2I6VyWeWJsjnGVPEJYAHAjmGxgf/mtNFmMqRlSiDbUurI/u6ubFWrUi6X2L7OFg0t5GDDOxLueMw5shZ3AEfc73g0kV5PwQ3JK4zLCL1K4abTYh25140pPNkdK9hpjM15qDi8aKlZWZeW67DmlMkLTyDS3Vc0WaAudFiEjT2kBp6673FBHzva/Wv9PgFaNic81D5+9VKeo66zDML3XQttIWb353/2J2tbaIFZ57JLhDJQFkxlARYTeVBp6qShMcZ3J6fSbnfJN8KJ3O+PZIKOPQ7EzALX+j64EncBLcnnR9A47iP29QC06KrhSaBWT/Bs6RQthDniU44PZsRS1epXkqll6cD1glUEcAHHC24SNjE6FkEW2zmc2iTVWRYAIFpuBMQUdfXRnRxOLAAFFh7AC+UgGA/mRCl+CJdSKzMZe2MX9BQ7paObOMZjBuDE/VHldSqjCZoOq94YQef6Rk7enZLQ2mpDbBGxtqmMGcdRUx8Asre7wwYqoHHUqmUCNCxsWqrk0c0IACbYCFeTbfPOoB47kmyhIrl8geAMKgruBWCCa6BjE2HeceoQJ8ylR6zhA5ih+8/x4YHUK1UpFQDwWYIZYrZMEeDAgdyRq7qgOwgXkE1eVF0Ev0LHdLibeDsAF6xRjR8iBKKEZLjhANURrMbRSM4aTZmO9dkAeOqfu0yzewaC5hRS8wZQiy6ndqo32grcXHUzEZ40y1A5iAqYPCgwY0YZCVq2xSc+Yhf976CFlsunZH9vVz55/UqePH0kNVjpCYAWWGjLAC16ytwdSJxS06B0gXwSWjVZFhNDnvu62SSYnZ+fy+XlFV1SiPMNJ1Bx0HIaMhA46ZhWjWEsmN8ey9v/+WaAdtflBMCZq2fXxYbG/afzpQDQwPuybCTlx/mMAJS05GFdZbRzEXpOQq4aTUWKxbzkCSzKRfF7Cs6d/hOTdynhNUCnwFjSErN4Glw9bBwUlOO+6L66noVouksVWsTBdENAyro/1kYquD9snhF6PHiyQM1WR75/eyIn707k5PyGHcax2RGcH49npH2gCTBcvGq1wgYW1XJJCsUC59SsUgACABJAZrpk+DcOLVrraYB5CFo2vixvmaI+NCfpHCxYUEnSslfPy9b2lhwe7MnRwaHU0IyFfTjTHBtq0eKZ0eH8oaYAACAASURBVLEKYOUSOH4NqZ+sCF09YBIatWAc1Kpi0w3GYTBGADe1FgFip2giA/e1p02SAXq0rtI5tejoOqvli7+bkC+nAKrsZ+eSMtaGAx+cQF3faXxP1zbk6OE+8b6axtUPXAr/gh0a53b+vgBavpDmevjk9Wv2vqgWCwsup4V4zOVnSAyAtsytW2UB2R/7CwtZKyojQCiQpv6Q0i/oDXl5eS3tVlfanT5dD8RzsMgYvyDI6aYx98+oD7FWl8tyGvDaayxoaPErWyTKtlcxOUvDZ+DqISgPS80+EdfIoAWb616VTnNjIciNyv9qtaYlQqUCrSFsuGqlKlvVmpQrZVpncD3TTjBRPV0XjIGr4uSwNaqmuVdkEVEQTuBjOtMyciAe6lFuFp5xzvS59en0WQEWqKPVFIjG+vRZMcYAQ4wzGtsgGH9yeS2NVkuaLcTWOmzQOxyPNO7FDGvWZTWdZeFKn1S+SAETGx4bHVYL3xeeGX4OUxF9epwVxrF0reksZoRuT/U6Khaq8uiwLvsHB+yeDXcahwVii+z+xNhtIKLEoITvjpl1HS194vjwPtlQ0VnhOl4cdUozaRrTqrr6PXVNB8MBLTeNiGjgH24yMqrdbpdKvgA+6P9BCNM6uTPEgAQJXNsRQA/ClUiQoMBfARJWsVqrmpQgMKLwPgjdpCXFmjQFwGj5YNyeRFvDX9dHUiIiKT5HYInwNZO8LBws8DqYlMFh4BSMsd4r1QI7m8FCg/BjhVLxi2odhhWBQfIXf/6nG42EH6z0B9AHD04SJgurJDWnqY/Jb2EhNDt0O88uLuS20aYufK+Lkx7ZOGW82wKNDkp0woxxb+a7EREJrhrsCb7aIBug6WIXjYkhNuaycgQ1BrwU6PCJjQVODFxIlAY9cAoAcIcYrAedgy4mGjtkGbhmGROrEpF+dqBDTJvJ2E9moJGH2zRgQROcvAfVth9hvCWYOFIANOOGD10QoAAgpqZ/oy9xpzzjd0h3q0XQ7w2kM+qT1Io5ALC1Wj3p9vrS6yPGhSy2FtIr1UZkMFQ1WRvnGeJH7t7IN3TvBWDL5wvads7FECHzjTmB5QiLtFaqkGO0u7NLQDveq0mtVpVCvsBYmkpxq3Ub5b/5JGbfi/A3vq0h/aojauCPMePactLmmnlXImsunaelbOojXMuO3gNXG2My6Pel3etKtzuQVrdPADQrGNelAi8auqALFdsFasYXKsDtToeHB2N4PPRhgSM5oeDGRMV4QiqHUUPMWAiSETHI9dsEaAtr1MUJE8EW8wxyNzerrnYcmIgfb+9UyYd88fSJ7OzUpYxY9X0Dmlk74Q3a9lvERUVk1Bq6OJsz6wfUtZrJTaMhrWZbLq8bjLVdXV2St2buZxQg4wbEAC2K/v7JET1FCGiOFY7vEf9i8J9KFEoF4MZIAdA0+I44WRkuWKUojx89lOOjfdY6IsjLWBboDDhloI0uOHHUmrOeCpaZNDCYIvZHFHNA5YYO7mw0zEerx/mr0eeKBovp6iE/4DIuVn6kG0E3trH0+bOMWgagd0DmutXpSac3oCWNpiTtbkf6tDLUUpjP0Q9zrLJDrlIE8UY8H1xVtRwzVExQ61atV1pbWUgpp6RULLE4Hn0KILG8VatTpbRezEkWulfk+M35VYHmLqDN3OkfuGPG8nfAa9QgWzO+HhtPdACaWZlGNHOAB0qSqpsAS7UsTPX9zFJKM0vKfgagqWA9T50rjiMM2W4q8sIdVas1m87S2kUW9rbRlHarzaxsp9dnBlazvqNAXQR/OxtP2fvWt3aWARrW3q/rY1MLDfcRNUaSkhkIURmgEZRduKVQKsjB4Y48ffpYHh8fk75RRvNht0H86y9kmf/yL/5sYwttEcz0HZjidqROWgxOVdUsYSwiBJ5RVYBTju7mYEQawTkVF94x5Y+KAzX19RT1bzY6YUZW9R8uusmDwWV0XjeZRuq1bhIWmsXHENOBa0BrTdTKgvtYLhekXq3IVq0iT588lO16DTxUxrSo3Y8YWUAQVqsuaFTiegJYOp/3x0oLbxStNIeJgkUe3gJYu0oBsz7iAI0JT6e8wZ68bl4Qt6EVkdK2cRzbFCwIxEA164yDBi4UwazXY8enZrtNmXXw2jrtPmNIqkumFqDWZaoTh9ijZnZpltFShVuJYD+D+9mM7O5sSaVUkmoZXarykuPPs2y/R1Vco7l47P64jRp1OaOv8WNPsPj8sVoodvfoEbhGZrrYX5R1umyxp2RrtfJ0/mC5gX5iUuY2x6qRrwRpABpcKgAo4m7I9iMMAwut3elKp9und4Lv8cnfIz43mrBdX7ivwjBJLDhsIOu+KfBtAmgL6zqmTPDuHsbhpfXLWZdgwxoqV8ty/GBfHj16IIe7u4xJF0Bvcojmj4G/R1KbAhoTPrxRV2BtmZlAZA+uh1NnwE0GTwBTHC4SvqZ4umkd6EhuWy05OzuV8/MbOT29llarxcnHZFpaP24SfUBbiJc5N8z/GcHMxXOCZADqGpE1AbABzBz/CwBXTCPQn5VCsUiXaG97i6AGBc0KgpNpTcNjEzLtbmDpnhcEW1WMcJueA+ciNguLLwQwdT0j/3Z50uiph0m0Imz7nR0AgYWG04TZNt2EADvMm2VvZ/OezNCYmCVGcEdhaYE4g8qPmQwnE+kO+tLpwBXtSePylvw2FXtU4LYYHb5HYoS9B8DBc4mUQi5LWgrKqZDsqFYqbHxRgsS3cx9wMKCyACBg88yIEofibnY6uphtQRugGODrVCxSgThuXsWIH0LB7/LBnLnGNBT2VbVec+95VUdX0bikJbjw2qlqycE9ReySiQDNaGusWOkgmrBBtYKGY9AzFaIOyBRf3d5Iv92TwQBWm2ZkLSvrrwMfHJKUoTcFr7jXvw+gbRJDgwULlkCpXJACGALFAhNEsNAQO0OlChJHPPQ2ttACwmcYeL1z+jE2FSpG6ALS+JB98vTGf26zq3ICHWQuJ4RnMLEwy2EBoKv2zU2LMkQXF5fSaDZ5cuG0sniXBr1cG1qemmbpuNIgF7PR6HkYWKd7AQIqLAgw+FFoDReIFpm2WLPvwYPCpqyiEzkVKUpSr6quGAin2KBo6qtV/+Anwd3A9ZxlEjqSQZWATa7FcBb9Ss9AdgxyG2/1NCNOqCm12gESmRzek5H8tFZKKQHgOyE96KnbptLqEtElo4+llgVxD9nUFGpDQbNQ1dhBR6sO2MTYATgBwmVRUYpEbhwsFCfdra3p1DVXqonST6gR7x7PyunCZDaseVB4tFO6K47QUEFgFYax1jvrM0JINas3KGT3hjRcWy6mOgkPFBt+XXYaa3Uri4cxxgCWhWZcjV+pmWra2sEhr78jPcgtS50HdW0ht4VEAVRrVPDyUq6vG3LbbNNiI39uqskEuLO23wzcADgA1ehqCdab+0V8cCgZ8mzdRmWjbMUmuZH6dr78kSrSWCzQ1jSuUyjmKIoAqhPcykqlKuVKiRJXOzs1fsXhB9UXKhXHxJPvupwegz7qvsU9blIWIy6TYcxos5bs+qErpDV1DFT3h3Jx0aC1BmLu9fWtNDsd7ZaNxixwscnXAsdqJsW8blA9AUP1Cgye3QvpDvm0zLNFmWeUmIcNhqa2+Tyyl1klb5ZAnchIvVojbWGrKAQ6cMQAcHRFnStp1olZAtFnWzbRi9bD4ugu+ztzmfz3skyt784yjhfd0F7MadGa0bZg/ryRVuEIxnavNldaA68ZU4uR2v3YYsUm1UNtomxvV3dn72H1l/6Tk4/nJzCcGxhugMgzRWNonkXuj2/celywamKY+JaUWteyiVvP/hwZ4BvoLzy3ew7bkFQe6SID3ZCL66acXjUIcKDDjEao/lCqSKgnp3LmnDMk1Fzsis/tEjRqXSlhPDhYESBYkomMWldh0Z7evfE5DQcU+BUuNbftWiW6OAziyoixIo4Ij4jGkEvE1StZqtPWuAfLUgOolUtU2qiWi9To08qZ+LptvKcvHKAu5z0BWtwiAMnRBtp+b66R/TvYMKQUDJggOD09l5PTMzm7uGLZDiYUp7ZlHzGYGZYbuXgYLQa1khCkxVeVmtbgPnhR6UJJs5CgYADQAGa1iuzvblO3vFjMSblYYjF0vWT1iGG2M9y0ljXTje27m6vA7L4AzYAnWFSB9thdJYrQQvQJoHoQ+LElLsgIoOFnuuGQrUMVglobBmjUZ3NBdJ1PAJpm76z+NM4ljAJaUobSXzP2fTR+5l9/E0ALrudn1hOQbBk42oFi69gOBH/cV827vRbWL8Itre5ArsECQBKh3VGqE0rXWm093BGPZibVBDjD3qf+exHIXFw2AF+GPpKpFesCWjBUQbYYB5Nap+TmORDl/nAVNkwU5XKsIikWS7K3U5b6FrT3qhRbKBa0e5mGKjShRH1AF96IxRivOfSvHdDMQoveSNwmY+JgPJFOpyPXNw2C2rvTc7m5aTB4imA1Qc1IiMZWZUAZwKPgo6VYqnYBQUO+F7p3F0pScAFqxHRAw9iu1WRvZ1vTwnApYQGmRErZEKjMIjPgMhBYCEZ6J2B0IUefPWlzbGKhhUATyvBgIyEe4WuEKYfNucdqjgUHDGEqUrZjgGbgZpsDQEbWFgDNsrLI6XqumL5W40j4JqAbWA2wA8t4zAgtiOhBd8e6j1hW7wNo/lgvjEECiTvuns36iq7l6LqwA93/eXTc7WDCtRgzE8SZ52zkDfJyp92VZqNFz6XXG8igDw5nWKkRtbTN5TNlY//+fWs/amz4B0gAbF6JTTSDGJYTukoYxjxUtw7GITwbKqOQcoHAf5YW2M7OjtTqsMwKsrWliSKKNDhDg54UM7eOmK5lLLFL59ficiYcbAu8Mv/kYNG3IxYGCxKlIeBpQR1iMCI/6uLqVs7OLuT6qiFX1yif6jj1jrmkcu4Bye5HITfSumlqh8ESQ0kNrTHUPRa0LIns92pVKqUCVSXgbm7Xq1KrVpgAQPBR8/QakzAws0C6Mcf9TeRvjuhGSdoIcT/fBNB8UPUthFwmv77L6VyPqMvpJzns2ny/2WjBPY0+t73W5tn/W4yjzXn8mISAFncg+O9lwXm77/cBtOgGt3tOkhmPO4QM0OIAK3rgGCj782bX9A+RYMxAf4HcEjL+yECPRiTzgurUBbiBN9hpS6fVYexNu61pxtUsxeh68sfLADQKaFHrjL/3ZLp8QMNrTQcweK8was+9hJCN9rQARzNDV7JWq5HPCdGBYiErlSr4hyhvU/4hPCuNUWslEpV5mOHXKNoyA+HeLLQkQPMbVMSdSjawSqfQBsbGm0IwtNMdSOO2zQqD796eyMXFDYm4+F3ftcjDwxLQGJjX4nEMHOkYuTQBbHd7S3a2ND4Gfx2ZShaFI6OJBAAKs8k5g/gg0xYLC8OsDR/QorE0f3Fwsj1TOG4DRcdsE0Cz6/sLEwsaz7Nso/ubnxsyxkKLAloAUE480j/FbVNH3XHrjG5zboAWC2YylzEsQC/NH7XK/LWDvrD+4fi+gBYdJx5gXvhlnTnzLavoPRl/z9aFudU+FcP+Hl8Di5aNYVxZIIvaNWuKGBqqMsZDHPhQU+nLzfUNP287sNhQxYDsqGaiyRJAajsaWgh4ipaFX/waXcc23gtz56nX+GCWBvWCvS+wr/JScfScne0dxqlRRocmPPhEMiCbRWKgyCQRxstK/9QjCPcgY7FeeVjS3KT+y1/++UIMzX/hsg3mL+okMHOrLnHxRRcimcJzTIRlTaHtNReUo4DFfnZ+Ke/endBiazZb0h4NlVvGxiJZJgyMPlAsoywpwyzlwcG+HO7vyl69KsVyieYtrDP457iHLAUXNQunlljI31r6bC4IG3U57N/LOHRxYGbuhn/i+2PkbwjbPNGT1uRo/Gso4IcWcfDeXlDaAqt+rGIxrgVlCQh6usVvAWjHsg/Y9k76Gu6BL3ntb9ZgvEytA9QXT28fv7f3jlq8fF6v0iJqdQTgG+FAGUj7B82C1We1oQmAlrQXksDUn5/oPflWGn4X0GwW3lvbFlrIgBnooOBdPRnE0OCxIETTQMnWcCjNZkeuri+1vylpH1MZjIek7PCYRsKHBSA6xr6V6AOyrR+OF0tfQwEHxMYYH7XwjlOdIUE9ryKhoOKwc9PhoezubJNEXUTsDDXOMCCy+ATBXLPZ+qyOi6g3ouV7LixCyzUB0HzP4L0AbR2gCzZNTCbJ34SLqA+OOcQSrWgdbo62PBsOp2RZn59fUC0CEjjXXS0hgWghPkAYZb/JfI5+ebFclO0d8FkOKQ63VS5KvlBQbS0kC1j7OObgsVbQNPspIhrPN4579iig2WJYBWhx1/I3Hi0GbyHZ935Wxz9YbGL9zLJZYbowHb3ANRAxNjBf4+g1AD5m0nQpBQtKgUST5lpmxad02bSwbtSEEFk15QpQKdbH4HRInLWFykwoaAdzJVPr2NlzL1oOgbXHAv2QjW5jkDQu+D1+54Nq9O8DSzMB0BbWqfcPu2f/9/568EEiahHGWYhx7xO8R0ShmeEZUGogezScBM2bb26V+oH66UYTrmnXlWG5JBDEQB19x8bUDhH/32YlA0x17WnlREBsgbiD82pyObiUOerq5SESCi5ZvS6PHjygYgaC/VBNQbBf1WTUtYQYqQ+ei7gRIZknAJoPzKm/+i9/Ea6iyGgmAdemgBY3cXHXYGlqSomIFptVc1cVYmFywzK7ub4l+fbk+lrazRZFApFMKBRAsQBo5VnovLOzJTu727LNjjEFKYF7llfXkiVOTm0hXDA09LXcJiggDwfFd3v8oYq6EtEFHV2kvpsSLBq36SxDZtc02oMPdLb54q+rqh02fkazsHIgy1DyfRwzH98r+18Xum9BaKG7YhtjGK42kz9D9pg1u1oKhWsjDqIOk2t75zH/yU4ycHOZMbqiOOnnurDNjddFqm9sfC2bJ7jVZmHYGPhj4oOMP76+5Re1ilYB2ibhA3vPOADbBMT89eZbgnFWISo8OEepFAHu+uZWbm4b5HRe3dwQ2KAMzBibdi30sCPM1kfXtT2LWbbo9YD3VwFGZCLR7lDBTPmcIpVKkQbF7u6OHOztUbEF1qUqp+jcWXUAlK/jDqe4gyLuZ7ZmgjEhoG1oZm8KaHGnVPw1FFD0IzRxoWFlgUnEEJjh6Q/kotWQ66tbOb84Z21cEXLN5aqUKkXZgThgvU71izziZWCygxBLsqZOfNTlIGnS+DsJbefjFnaShZY0AbZoopsN146rOrDkib/ZrdzG7tfY5JLKqZID1EtcbwJYXHqPSnNRkc0JKTDwPxiPRHmTU42wsi0/uKz36gGacYxwz9QZg4IErAQFN2q5YQ4ZzKXuho45619dmz6nTIrMbDaN0iklOyOADGtb4QyBYqOGqMUGug75hZ4cOMbBOG42HwuuSKAcrPcRfTZcl3ObkOX8EECz9Z9kodnh5YOJzfni3lEr0/+dAb9VJvBaUI8eoFZ0QJf09PycYZpGE2yBrgwHUxmPFttM2kHqr01bbzPHJjDQx3uRkF4oqJYfhBkKBanUqrKzXZbd7Rr3HqTTS4Ui2f0I7IPUbuo5KnqqBGz/UAq/j6kQiWsJ53Pv8P1//au/TAQ0f4DjNmHc7+/8zAs6R0/Ou3/vyl0WABY/c13YnavB4t3ZTDrDvtzeNFncDqCj7DMGsaTdv+mrQ2TRKV+wHZuyGAJAW1hkfoA8BuSTLDQDJtskcSfOsrHyx8WAyl7vB5B999Nex8CvU37FzwZDFTOEUiu+QsIGsZaASAk5IYIQGqjo/sXf9/o9HhQoPofYpG0aWjXW3FgNLwdUiDVrYwXMx2iiAorKhJ8HBEqtz3RVI961FOzgsmQkn8lJCYcN0/taPmXNWPD+2ASk4DjhgHJZ+YW0CBCH8WqJzQqzzWjgZuDnn+i0NFwxtAFHUlLgfQEteqit7a24KoMFQGMvBVeZYFLezjIuUE/PFXWhusKFbUBAv7q9JQ0KuoRQLUZNbruNkrZOkBW16g9bd/7hqSFLpWXg5zis9PBR9ZlypcL9VqvXZW+7JNu1EpWHGVODBjWoVlRzzvJw0rNQAQ1S/v4zcp26KoqQLeIym6zduxsKWji4lgHafbmci6dMyIOKbnJOggPs4L1TKO5lk8cFVwh/i65GkGKBOi7cHQxqCXwWKDzQrYQAIxIFWigcEKica5P4fOzaFNMgNFLI7IN89BReZsXaKWsnnr/ILe1um9RPw+N1qqelWS4DHcpsDwYqIT3QImj82z7tGloqpgsMxFc2THeqFnDZVRTANQNx1RZcwK5gH+NtC9u+kndGS1ArCOhCIg7notAK9lrPiu+VcKuKvwpW2icgxyynnvwEL25QnXNkow3kkPypVIQ/gwUAC8HKzmwTqlyPhhXwlWvCJUWiIBYFNLDS4z6SrO1VVrg/t/6B5O+JpMNOM51hHBNJs6jVGVjvrvwM+33idOBIY4LoJ8rWBkMWv6MKodVEiVWLhgBAzQ5EdsnyQN6UZ9I5BR980horgYqRJ/3i+PiYQIYwj5YMpqRS1P3nKtW0bnU0CZSYzQDgPqA4pj0j8pqm7edATJuWcIi0KC8+th24nH/9138V/wpvlH0TPnHwE0z1oH4srswk5mJxJ1jSe5rKqBWwMyHgfPmoS5l0jSTgyXjikbr4VH4a5nwop6P1f+xT6pVbGVDBbfIXPLWuJugOteg2KPNbQQFACosKbiBbsU1EhiOIBSqJEp/4HgFf4x3h36bfNRxout5+Z2BmAfM4iyGORhA3Xr6VY7+3Z11nfP3NGH29zZed3NGNa0DJr1lVEDZXx0rTbANiM+FnSg8oSrmi68Lu36w+e51Zg7gnxFlt8+qhorFF39WDV6fXQ+YxFCTF6xEcXzygwjK8pNCOb/mvAkjfUvTf5y47S0fYxlEPHPVs+oOxNFtdqkifnJ1pNUIXzXRG7iCH5aThiSyaTxdSrLOk+ACqaLZqsrVVl+3tmtSrSsHQQwihBK0UiBoxfgzY5hiviXO3/T25ajzs4Lf3S/2mAC36gHEPEjexyx7ICqXNXLaT3T+x/feNA6+k62dmpmZqp6QTgHepbv07tWYYXEcGyCvzws+tyTIzfLROZnSN0ViXAAUJJaqjDikVg2uibAvxQLRmQ3AX+nHQ4KfGvbOi6FoOVI1E1U5VkYGna0q7QBmoRYPfcZaBjbt93dQyXzZH/rWWAZrFcPzF7q8HH+jGkyHBxFxRAyCMkUlB4Ss2oCqmKL9Q63EBWClaF+Uy2uOZQoiWyNVKavFZ5y3ev9dWUJ9HAQ4HmbpPrmEKxx+6etpLVa1X1yrPNRFaZv1tcpjfee2SCofo/EIKBYlskHMvr67I8YQGHlRvQGiHCgjj1ilkK8tytFeVvd1d2d7e4piC48mwDr4W1e1XS1fdRSv29OfPX4f+4bXMk1nHirXXBBba3/zNf0200IIXRTg9Sadx3M+TLLT7AjQ/uOufwlFXYlPLErpYC7pZRK5Q7UNrGp25TJVSbeWGP9KNi9gUmPU6AgAd6NQj+H4LUb9+nwThbk81sdDTEvEFEw9EazYAGugUtNoo2RwCVbhIfS06BTTferLvfTCJzmt0UWwyv6teuwmgmUUR9Qh8oMXvDNACGSQPNAzQFkEWvQjAL1SgAagpgx2AB0CzTZmR44Ntt2lLgZtr4AROIzYy3Vk0Z2aIxK4dxpj4HGl1nRYOOaPVRwbNv9dVFomNTRTQrGY6Oh++RRf+Le4vR+4f+5l2enLdaMjp2Rn1CaGqCwUcREsxTk8eHsrR4ZEcoKVhQS1TNgdieaES2XWOtF+qZcqjRkx0XpcdcHFreNUexj2kftOAZg8ZB2jRAVg10ThF/A1rC5yWihfsXYb0SQsobWAViZulIOjogtBYrCyER7ZQMswSwmJSAqQG56ktPxw5FYUmYxaXjXbgPkJhBE03ZhM0N8mq4DZ0s6AwgpIPk7UO+jmagCPiincdjfgF7MVhvOfZ1LRfBV6xB1qM8MEyK8Wfz3CjLBbVWyzJ1pBZqOZK4qtvGVnGlIefNRZ2zYUZuHbxIVja21vqWqFwWoFOe6MiDgcpG1CA2ESmVOQBJJOpdtmiVleKIoWqgOEUmWg5geYAtnaSY6hPHQWpOEuDmcGY8A2SPHEffrDfLCOzvuzfAC54Cte3DfaXACkXcl7oo4pEzMPjYzk43Gf9pR4YGvtMsWmN0+Kw+t4VSij+/No+it533OG7bO35ezj1t3/714kWWtRdWWUexv3eqBDrIG7cBvPN1uhDwXJJAkb7+aaDEwy4k1Xm+5M/qm4lVi4yMQAzuobIIs7TVHvt9nt0FREDAxjBwhoPVRap0+tSermHeryulrBY3ItZSBdQ1zHQRRsUhLs4jhJZXWNaBvONehJuFMb6Ih9Jp3qcpfY+oLXsb6IW2qrrRw+Y6PzrJtTQsJsRghQNaNeWkE6h+5m6o+qGa/s6XTN64AWz7bLeiOmMVXnXxYQgdQNmHTp6mU7XFhq7bG1RzADKLHSH2XdC3TFwrbTzt/H3XF/WmAMoOh4BWCUMlD+X/lglWWiLYZBwq6vVqf9G2SCI5FiDKKdCQ+rrmxtyPjFeKFtSQNtWlx3ZaedisubS3at/ABlAh++xqBG+yr1e9fukQ/HeAC0J7DZJCkSv4T9UnCVF1rqzxPD7IOPjfhYFyLhrJN63AzQqpzqRClwfnb/Zk3IMcx2ZxD4Lg9vdobTbLaddpSKImj2aajyMmSbEzEYs4fATC6Q/sauttakL+XAZNijWZ1NRTQU0BewwAxQeGGHWyD9E4kBtU0BLGqtlblIU0OKuEQWt6H3RlfCkaGzjhAeuupJIpJjop/2NjpNyGm3MjawcF9eZyyjouRqSkZUjB/cKxG0IHKBbFUroUL4DAIREtFlwIHRD+obvbWV1sGy8elV/Q8YduiszdRGLLknVxl8D4X5CtjQsudKs9JyNbaA9J0PG8wAAIABJREFUCI+h0bilFtugP2Yj7QcPjmVvb18TK5RyN35hyD5Ytt+iCaVVgLXKO3svQFu1UG2RLX3dqiM55verHjaYpIRrLwMu2zw2+AYO0U0CFGNWcjplAN6KfvEzWFdQ00U7OJxmKC3p9GGJaWEwUtQGrkpF8YrAEVszFV4r9QFbx8Uh/P6MesppuVL0w6wOfU1ooaUSGjUvm6N1p+h9AG3da8e9LtkjiJeRSXpGBKuTLKHoz6fIWgYy3K43hqP9WPBbrRqXZQ0stDRFD2DJPHhwJNWaNpxm31aXOc3MRuxqBVqRJUE0M+ssbZdEgHXPblHu7yxObCEV/3Cy7PhyZ3bRndX1FB0TjS3ip7gmRCUBaLDSMoUCkwL4RPaYa44KvJog8T+ih5P9LsmT8gE3egBHcSB5fr31v8zl/F0CNDOBbdDiXCHLDCp9AqVWYFp3WWZ102gxgG86VMgGgYyKiR8ggO+aZdAKoLFlBdaqR68TrQsrNUfz2nCR8WBwyrvrA0A0lqLW2h8A7e4IbgJo5u4H64QWsiOBOrURc3sV+GCFKTUDSalqtSy7u7v8ClBDD9dqFcmEshQzcxebg8qEAqLSPKySw3Vodw2JqVrhaEJ28Jql4+9N3E9SDC3O0lkFDAjloNAd6x4xX/TbQFa4VqszrqiduayAXEcq8MTWX8D6d8FBvqicHAW6dQ/kpS5n0r1FXYAfgoXmuzFRMDN31dRCwfXqDCbSbkFo8lquIc9y02CbPXQiJ12EADZjsxd1F8O4jTGdzaUJ6lLdoZhhveo6gBZEibypCCIWYb0r38CRD2O6/ySdmhuuvd+il6+yRxZvNa6yL2nNmuUbrhfddOyrOUSbRe3ezjgeE9/qVurrVeoHlhVoImwOUwQfDtUrJdnbUqsNzHr8m9I65TID79btSmkgiNOiQfEsKOcyQIOFhPcKaDouHpgUQ/PnPnxmX+/fAZLrdWCvR7zRiNmS0Wwny5yyORc/C2NwbuWp5ZZAfF21eJZ5Zet6bATIZRba7xKg2Wngm+sGOBbvAo8JMsc4lc6u2wQ0KBeAeAhqBcmuKOLWbqjKXUbAntnWxVZpUdfR/3daYKEtZu7iLTRslhh2dED61bNx8bSOd6/WPeGWLbxlrvyqBfu+v9/kvhPjoQllbHH3pDLjGrO0NaNftUoDH8z0ZVUFBrpvFnpRowWuoi/No1Qa1KhWi1kpkr+lFhticQC7aq3qemKojhiypyhYKJezAWkVlhqA1Eq9bP1YDHkVbWNhHFmlsei2az+dEChhdZo7i+SskdatBtMsK4KZx+ZXaYL48qRleGJjF33NOmC2sP6XAdqyAK4fpP0hWGg2UPZMxqSHywhuGD5xIiFugPKQk+su+TkAOBBaLQuE75XPlGODNJTyyHSCMP+CCQ2VEHUPtLuP/zEVlcrRcXNF2wkxtBSzlndjaNoF3adjmMv5mwU0f9O/L2itWujrXvc+AC2LeQ26NYW6+9DI90uX2MQZ/ELXNcsvlA+5cMpNZINnxMmmo6BiAdeyJjyw1ixEoaCVk0o5IzvbqlphJV5W5mVVEyGhVVVPVo1jYHWy90ZMZ2JXwuaz+nHNaWoc3DdEIhYARFd9SKZ9D0DzwSyKJf6/k3Bm4X7+7u/+hsGduKxKYlDW5ciD31vOPG5ElzCYV02APahvVfl/EwjgcUytNw1AxhW8uhfThHfjrs0ltMwIwf7LyyvGwUCrQMedZqtJi+y2CX5YnxlK8p+t/R4uxBiZs9DwXnAPwJJmLEzfaPGxF10k9moMRtwBURCmjbhTBLSYE8/ThtIJXY/jtB44LK+Xi14jOXi/3rutsw7WudJ9ABqIob71HL4vJKXYUssVgbtO6q4iQN8b8x5WBgS9axX1BYcTX+c1tLFAP15idBLK8uQzUq8B0Oq04NjPtAS3TxUuaN1V4K5CMUUkZ6oL7oYDRRO2jHT6Zwz4zyj7dDdIrwF+Cj/w9a4XB1afU0Lh37jExcJB5pYLwyiqtXtnulatEf9wju73ZSDngyHv6e///m/nq1K+CyASkd2x322aAVsHbePx0efS6CtwLZPe1gCpY/UHDOaUTGYTOHrSp6RKV4Z9BD07cnl1Q3oFGur2hwNaagiGIl1tUsZKKHIxr3laZqjHpN4XNNUQOwOA3j0h3/cZ/efexOXSe9wsvrRqjBd/n2wFrAM4y16T5A186HUXNt4HXGzVhvyQOYvuIXsvgF2xpHE4jWHlpVItkx5yeLhPvTHUUbJyYYZyMK1DxZrB2lTpbqX5IE6HTxK/sVbT0bmMZI49Mck4Yy7peZPWa9L4+UTwZWtR97iu7agbukAmB6AlaUAlzf99nISbbnb/Iex7J+bK2+Q9OavJ3Dj8HIF7AFNvNJTuaMDOOc2bJq2xQQ90jC6LxXGyoJ8nLDIAWrc3Ih8H/DG7NvX3cYKhTt01mU3TBEeQ/y6hNWn8Vk3ih2yOPwDa3VHfBIw2WfObHjar8NTu0+JTeD0tOEqcaWICX5FB3T/YI6htQ74HoJaCfBaSDgA4pQHRokJNXmqujUcoL2/Jo6gVldz3Evsj+mFuuX/PPtiselb7/aq9sI7ltuBy3iegrfsQSa+LN/X11fY7/6smh1zPPgpe2GShJlKDmuCLISZ2227JTastV1fX0mk2aVoX82hkilq+InW4UFSMxAC4N2fn1xTDQ+s86zLETti8rprkFB4kJUMVGdb9WDWJHwJod5MR4fite3/JG3X9Z1z3vaLWyYc9e/y73gegLVuz0d+97/stAppp9jkuoisjRkwOBF+4m+iaBNcTTUbK+RTBbX/vQOpb2rQXIAZhRdOzs74ZWs8ateTvthEM5sZ5KNG58asQGG4JPKJ1aMHL12XUCltmod0BtA93UuI5JIHlFLMaklyMZZvdTgX7CkDTAGmWiRZl3CO2kSUQITaGmrSzywu5vL6V85tradzekmNTKZTkwdGRPDx+IJVKmbIomRy0xMb8m+9Oztlwotlukd0PSw9AFhIZme8hoFFrLSZusKkVGrdpNrcCNiOdbvaev7+Atsk83AegUc6csVsFB+wLqnu46cXPNeamVluxkJHtel129/ZIgEXsDckEyCeBHgLVEVNqRrnSXUCLl/LhHmat8uKH7cFlB9I6h9OqPbKOhea/D2Nov+2AZgskZN9bWh2nD1LoOuCaiRTpdnpyg14Dt025ur6Wk5MTubptSrvfl/lkwkanh3t78urFczk+PBQ0HdZ4w5yJAlh0FzctarKjpq3T65FvNhlDHVbrAdmmzamC4k21fcjixyaW2CYWwDLrJy57tczy/QOgrWdLbhobWu+qi69adN80EaVWj5az8XvRsiWjCdkVVL03w4MZqiC1eoW9ZgFu+/t77K9RZJ2pNiiJ8SIZKo4DY7/LVhxIRUHnQ+Oh/nrdGND+4R/+LjGGtslJ8z4T7v/NqhPQzFlfWUFkyhAB4l/pTJbF3ugqDfG6k7NzeXdyKmfnF9JBc2Iw/0cDyWXS8uTxI/n41Ut5/OhYauWysNc6s5+qU4bPi0abVh5ADU0moEIwopR1inrtUMOAl8kU91yLdaNm8vssavubME4YWlyrxojLfIPjaZ3rRSA69qTe5Dl914GnfyTQu8m14qwGf81Gr21ukY5TyAP8kPe8j7+NKwvSe9dOS/FZQwxeGCgXZGexD+Yp8uBU/w2Z0qo8evSAtZg721tSrUPnP882cul0qOOmFBCv14arfqBlmA5VfP3x9Q/s6NqPm4dlh2cccK065OP2W+o/EtBsYflfkx46Cmh4GCgc4CuAbDKbu3hZRy4ur+XdKcAM/QmbtKhgxcFc39vdllcvnsmzJ49ku1Zhk2FCIlxKFpSrWOJtr6vuZ6ujgNZuU2wRcbV+D6A3Vj19SAUxpqYf97VRbLKim9DeI+mw+U0D2qq52xR0PgQgVoHlDwnQQv5ivJvP+XeS3BizmWQ11ssMp7BxL2hNEKqESsY2FWbr7vuaVMoFV2uq/WnxWvwNiboUd1AFE13Ufq2wxanDRtqrDvJlhtEmRk30sE8EtPtwOT90IS77ewMJfPWlpTHwoFwg8N/tDwleoGGcnl2wKQT6DUDnCVIwMMnrtbK8evVCXj1/Ivs7WxSGIX+M5BoAkwoxQhK7NxnImEW6A2m0WtLu9KU/GtNiQ2yt1x3IlOA3J43DqC/vM0HLTi4/2OqDxx8A7e6o/VABLdbNS6BH2VNHs4szNkZRBKJyrONEgoGJfQLPBNlQglsdvLaiJhH296Ver7p+AWhSo70YLHYXZErdG0ffN2qURK1+/2BeZ4+vgyNRIPPfkxZaEqD9ul3OTSwaP35m+vooCkfgH7EygNnVza1cXKMfYcvJ/KAVVkoyKBouFeXJg3359NOP5fjoQKrlgszRqWg6VsOe1pZr8TZNyUQGlPmBXDb01vt9aJ9N5LbZohDe7U2LnLWR0z8zGlqc/7/OJMVZMro4w9nxJzJZIHP94+k+XM4/WGjvM7uLfxMPaI6FlHB5/s08JL+OUiophZ9nmEjQrCNSV9gvMAQAVGw3V8hJMZ+lxtvxgyM5PDzQuBtlyYusM7V4GqWWnJSWvx6TDtokgFsHS1ZZeh9soa1zE/54x22Qda6xamPhGtbkAa/FBAHIrq4bLBw/PT2Vm9umNDtdaTa70h+OBQ1RM9k8GwZn83nZ36nKjz96Lq9evyCYFcDVATN6An0zBTRtVoK2bHNJ5bSZCbKbHRBuobU+nEqDLigA7ZYE3V6nJ6MBpLLDtvU2Jh+SFIiebNHJ/gOg/e5YaHGYZdyzJLhUQAvL6sYQpmQvhDwD/8h+ct9MoMcHSSsVUcDPoB6eY+mVqmhAiRZJBCQOYLEdHOxRzFJ7NmQTAS0KMNF7Ndmj6MHsvy4a51wH1FZaaEm9CNcBo1UPtY7/vArQfAkVvB+IsiDEvn2HBqpn8qtv39ByApD1BxNJZ7MyZHelrGRyUBEty8PDHflPP/1Ynj9/oo1q6W4iGYC6SsQDUJIJ7X7IX88klZtIiq3P5tIdoAwKFtqMmuvo1N5stFlp0Gl1pN/rB01O/BPqvgAtbpL/AGi/D4AWfca4WJZKsWcq0PlHVUGRVlg2o4H8Pro5IUuPRjyI9argGVttGvUDheewzCB39OjRQ3nx4hklkJAVhWII3FX78F3OuPCKX+9qgMZ4d1xaNSYp9MGA9o/IcrqPqH8ctRIsMB/nF5urFedjb2KUJ7lsuK6J4sHVQ0/Bk5OmfPbZ5/Lu3Zn00KtyOKHnl8rOZJbS5hXI+GCSXz57Jj/79EdydLinJjkIh+x1q6oJEEAbz9ACTtt9kV/mxBUpK+RA7RaA1urK5W1Lmu0eqSCj3kjGfe2TaffJZ3ZW28KJxOMqpjB4k0HyXptkyUUvt+rQiDs1407cuNv0Y1fRE/c9H2vpn83T6xM3qZr+HvXEd6BkTa38ZdbIJmOhlA0FEqUEOT4a667n7EBvsSKs73I1w0J2xMWQwUSvU7ge6FkLAVLEkyE8isqX8WjEy1kRvXLc0Dg4zcTB48eP5NXr5/Lg4TEbdW/ltWDf3EwfL/x9b2v/fTw1f9/7RkHSeot7De/xn/7x7+dxC9L/gySg898s+hCbWHfR60RR2q5liE938+pK3ry5kM8//1JOTi5lMEEPSy2NzRWhfTEJTGY0tXj1/Jn85OOP5WB/mzQNZgCYDHCkYNA25lq0TtY/uj5REkjJtJDehpUGl7PZ6ct1s8PvG52ejPtDGZPKASWOsDie9cKxqzi5zGSTRR83R0nA9bsEaGpmbPDxAwU065rgKhj1gdlze84Cc3zCLQSB9sHDHdna2mb1AEmzSHLN5gQwKCtfXCr1CMYA3FAc4gZQOLBVEkkbPW9tVeXJ00fy+qNXcnx0JHuVor51pPGQb+BEY2qbHqhRQFsHyPzDPPgegOYjbhR9o7+zh7Cfx5mISWbpOkswzkKzwbI4GtxNANpXX72TL774Sk7PLmUEaWxgFFLVxQxbdKEDj3brqctHL57Lp69fys52TTswzyYa9zI+EgFN5a75TA7QrN8mAW04lgbafHWR+ezKTaslt822DPsjGfWHmu30xfcS991vHtCWLZAkayT68yQXehML7X0PusV7Wb+r/Tprbp3XJMV64p7nfp7R4mOLz6rlmTMmu1KZNNc3LLMXLx6oqmy5QskixJmhkYa4GqhIoDKdX1yxThkNfdjIh7031fNRCy3DLD8qEhBH+8lPP5VPPvlE9qvFwJrzny0O0JLG0sqkktbaOoDmH+BxB3RgoeGF0RuNnv5xk5QEPv71NrEM7D2XWWgYfFhol5eX8tVXbwloqLsEoE1Qy4mgZwGQNaP/j3ZjmPDXL57Jxy+eS61aYuwMUi4zaFU5Cy2F1nFIEjjLbT6zzkvKcxuMhjIYjKUFjbTuQG5bHbltQWaoIyMAGiw0ZBSAhRPtKcBxUP5j5OMPgLYOiCS/5ncf0KLuHcYCy5uA5kIbmZwKQKIB8Mtnx7TUED+bTIbMvqN5NdKV+UJBet2+3DQacnNzK612T9WXR2qZhV2wtDMW+J3olP769Uv5o5/9kTzcrWpczlXkmLXm79e4+/Xnb1U8eV1A8w2pWNf2v/3TP2xsofnIHHejvoW26kHiTNNlgIbXm8v55ZffeYDGFol6cmVnyGgzdgZAgxb6q2dP5PXzJ1KrFgloaJM4nSDz47SHHaBp3QH6N6aDxr6oEIDyBqy0Tm/IxMA1VDtaLcYnxqOpTEbqruLZYdKbbpY9nx/22YT8umrjrxtDizuQkuYmycK4DwttVbOMVc+rmyhe2WTT51nnvew1v2kLzUCGz2ufWLfoC0tSuSrYmoX2/PEB1zt+NhkDzMZaojebSbFUoq8KClKr2ZLzyxsyBMCxDDTYKC2E9SuMpcFKe/jwgfzsZ38sHz3d5/uAyxmAKegczruJi6+tO7Y2Z1FAS1qDcR6hD3KpOECLTl40hhYFtDiXw497rftw0Zv1EdhMY3xFHADKsgC0zxhDu5DhFBaaxRbY95eTgEmGy/ns8UN5+eQhLbRMeibZtGssoap0jDnAQtOej6jVRKs5rd0cDIfSZcu6sXSg3tFuSeO2Le1uV3qDvkxGqDJwreZQb4f4hNc2jZaaa5KiBaC/WQtt2eKIPeXiRPiXVEFs4nJ+KKDp/cZrzyV5A/fhAv4mAc2sHW2D5wRhkRpAj4FsjmvUuk5hjSNG/Ph4R1Vl0xlSkdTTUJY/qBesd05nqAd4cnYt707OSTvSqQ6VNtAVHZ9wK/b3d+WnP/2p/PjVA74HAM3G2G/W4gPapnPgA5pZfKvmKwnUeB///Z//aaMIqw22XdQC9Zue6uwF6CwaAysbmCha+++F18LPhzT2mzdn8otffiZff/1GOuCCYfYRuMSEZIQBTkwEuDUPDvC5K1v1ihTysNvhbmrreqp0TibEGQO00QAW31S6PW282ulBG22s3Z/Qrg7ZIjYLxuecCU3cJ4iMuEcGUD2d9kCfHWJ7qbvqBUmg/z4ue9SqsAMozhpe97Dhst+gQ8+qNH30fePWT/S+MRa63vTgMTFDI12bS+QfuD7YbvKsH/LapL2wbKNGjQauJZLC3Xp269pa3uFZi/kC42alYlG2a1qfCQ6asvy1HA/XzeYBdOCmZaU3HMrldVO++eZ77iH2xQCdwx1iJi2EeBrItq9fv5I//vQpaRzmdhpJdxXw+GO4CuiSvLKo25p0ncBT+W0ENN8391HbbhoDisTA2fmNfPbZF/LFl9/KTbMtI0wMTijmpLWxA+IKmIyj/V15sL8j9VpJCvmspBjjAqClSaRlGRNstBnMdGQ1Rbq9HrlmyGbC5RyNptJot8npQVxNXztRGoaTWDG9d7T6AmgjMAsXVIFPA7EQhVz344cIaAZ+cc+4yWZf1PDXXB/GD/QaO1i5PjAPc4gYaof0hY97om2sO1/v8+z+34TjMxfI/CBOBj4kDulUFokAdC5Ps8FxuVSQCjpKUQ/NtcVD6RI5lqbuOpV8sSBZ9A+FhdYfyMXVjXzz7TsmCLRCxiXCHABaggBKuS9ePJefffJEDg4OuJdgpRmgbTImqwDN9vkyK82/z7j3/o1YaEkPYmRZW5hxlp5ZajytHDHPTmk2NLltyRdffCOff/61vDu/pDuo8p6Io2lKG6fKVn2btZtHe9u00Eroao1JTwtNeIo2jicymWvHc3x2OhOmuRFEBU0D8QdUDfRJUITkNjsNsMRgxvcMVUK5IDKQaQExV6+NmlMDNNdPZa318EMAtDjLbRPgSgIB/xqmtspaXvG6w3uqGVgjVBXGBnW8LUqlb+SDrDUtS1+06bPHARqYF3D9YF2lUNWC2BkLztMEq0IuR9UMJAUgGVQt5tlZCmtOu2aqhQZrNodemtQMTNEQuLppyukZemn0GVLBgY7MKQ5e3DveN5dHz9CsPHnyWP7o48dyfHzM0A1cXNuPcWtzWXhj2QGX5Eaua6HZ6+7V5Yx7mGXIHHU5/Yn1H5BEVwdoBnwAByhhvPnunXzx+Tfy9Zu3cg1lDXScxqnmWokxcFqsyG69Jge7ddneqlJpII9JA/E2rV2s4XLi5B+PR/y8vu6zEB11onBnR861nKdUcoUuD2NjSEBgsYWAZlYayI14DoAZAdOyn+urdd+1OFbsN3+8fTcmbh42BctVwLXO9TbZ7KEbBBZ8jhYvD7ls2HItal34ljDXk6Qku6KBzIdD2OIVNnnGYCMG0thqWcH1w/okoOWykgagwUKDoCnKlqB9ls9LMacaZ7VKya1nBD20lg/XCDpQwbqdz9gMCPJa3S68DIRuOtLv45CesnkQDmrtK4rxTsvx8ZH89KNH8vjxY5ZIAUDfx41fxz1dBWpJFppd+94ttF8HoGFyAQh+mzD8DA8HouvZ2SVjaL/88hs5vbhi30yz0Gzg87miVAp52a6VZGerRtWNUqFAYUd1OcGzncpkDktqJKPxUG5uBnLbaNDlHIynMprMZAxRx6ApixN1hOsKMHPujsXPmD1yCQKLn6mGGqoQfndcTrOwVy3G6MaNgkhSDA3jaJY23B185CoF9kM1q9cPLONnCAngK+dfRLJOmv2+gSvpevcFaHkE8/M5SecyCmg5pWDACtMDOSt5NDZGH0985lHLiXiZMOmlczMn3YPSQinh2EBkIZ3GWKbk9PSMnc9Y6+msXew11Hni4/DwUH7y+qE8efJE9vb26HaaIbJJgmfZmMStnbjDcRWg8QD75//2j/N1JiDu5Pf93k1NTQOlhUWBMaedvLhUOICwwUFapTqsntDj8ZQW1Jvv3sovPv9SfvXdW2l3ekwMzGnRoXwJrqWqCyB2VqtVyNuBsGO5mGf2Mc/mrtpjcwRAQ8Ph7ki63R6vh0DqEG7jZEoLkM/t/o8YhC4ceLsqyBdYRrxPBV/KDKHjjrPu6K66hzUdKzyjEyO15FbgOK27GUNKw2rVjU0J9KaUqvOedEf2C5eeW/fGI6/zDwZYCwgdBFyoomtqg/gk1oakaLXgAEFdLRpFjwYDJnVYrbHBAZKQ4N3IUl5nP/mPG/d6KDHDhczks3T/IIEFzyPr5H1gvVkhOgANcTPomtEiSwtjbPg3uZYCQQcNleC1+VJZKvUtGY8m8vXX38jbtydMeGEc7V6YGc1kCGJ/9OlTefr0iWvIUtLSQFYN+AczBlrb5cXWx1jry+Bks2/iBUx9vPEBL+7n/vgtBTQfgf2LrmM+2u0uczmjiMsBjdkpdo0oZwVuHLKQ5xcX8vmXX8sXX30tl5e3pG9M2KcTCQKtnSzAdE9pPAGxgGq5IuVCVirFnGyxp0CWMQRVrB3LAGTa4ZDNhpHlRGZzNIaQJALQGkFjDwPgEl1IKyUJ4U5dNPc6xnZUkNKa1uL3bLziYj7M0lsHPvdVbYzV4BSO9/r+7KZ8ONPIimJU/Byvb4XGHYxm+Zn7DlCDhYavk/ycB5yNSi6TpbWCREyv25VWoymDft/1Z8VBuH7t7GbPGI/W9wFoiMlC9iqT14bEeG5YqhZKsU7m9vMsKUfYP3AYUjzAMS6Qx4L3Meh3yU2DhbV3dCy17R02A/rlLz+Xd29PCWiYR3Pr7RABoP3xT17K06ePyRgolQp8aM0wB7KmesSnNMkWzkw4PsZf43b0JbG8/rL+aMaBWNSSs3+vDWg+12SVNZYEXPcBaPbeZhIHX8ETm4yl0WzLt2++l5//8nP5/vsTJgfGbN8FkXQocGLBI/4yIQBRkSCXl1q5IA8P92R3a4vWGnxPdItiAe8Mp5rqrQHQ2p0uEwOU4Z4JQRNuj1pX2iEdgdjweVkm7ywZBSXtSgXKyEgLi0HCJZiFXdejgKalyb8eQAtITpF9uWzO4rbwOrGzVYZadHEuLFIGqjPc0NhIowzY7GqR4XXYuPhdPpOjVA5ADY1wtC4Xe219QIvjuK269+jv7wfQQNcAf0yTWwAY7Z+hlCBaYqBj4Cs+XcYev4M6RqlY4CE9QUx4NJTJSLu2725vye7BkaTzBcpuff75V3J+dhlQN5iZn834WsTL4HL+Xz99JY8fP2QzIWQ+FZQAaMExGgAajZIV6zXwYHigx6/tVVZZkoG11EIztI5aW5vEypZtDgMm3wqNqztOstAQ+GSrusFY3p2eyb///Jfy1Ve/kgYCnSPQKWDy4FOVBKzZBBd/NseY2pMHx3Kwuy31colBVFyPQDYY0kWE4i2sMwAbBCXRMAVJAcTTJlOtB52hqoCupZY88X7pISuJVjcVzzV+gXwkXVHcP2i85FWF3DW/XGpTK2qT/qBJgJboTMasPT5WjPu5qcJFHKD5PzOLDW83TmsIguvQFVnDLoALhuQOS8/YUFfbZbgqtLVwKWn8NvFK7gXQcBC7npx0pymTja9ocK0Aj7gaAvgAFzRQx+uQiEJopVQsSRHM/ikqBsaC3Ge9WqXmWTqX5x6Bq/n2+xPSN9CZAwjHAAAgAElEQVRcBxpq4G4iWQBgBIA9fPhQ/tMffcSeBJAYQjmhWVlxFtqmgAbm5rJDMooRvmEVhy0rXc6omRc1GVetkiRAY4o9wn9JknqJorU9JOSzGdeazuT6tiWfffGlfPHl13Jydilt9tPU5sMcNGqkQzJI+3gC0HbqZXn++KHSOWpVLgZYXaPhSHqDATcFJhc1b7AEobHWbrWZLVIpcI3pjSdzdUcnWDzW0k4XngKdSocz+YANmIGykGuJZwQDBxa+haaTt751pq9f3+XUGMjd6yfN2SaxddTGbvKRBGg+kOE1XDM5bcOm0k/a4Iavc+/J792bU2dgo3v58FZ99wFojMeyH6Z7NuOVsX0dYoZwSTNqtcFiK2hNJmJnSCaUUSWTLzCehvgwuGo11HrmC/Q23p6eycX5BasFrKYT6xSAhoQKrlWrVeXZs6fysx+/YrYTYGbJgsW1407sFGKWyy0u3zojlsS0yIuCVtx6jMMlXm9ZUiBqmeEiyyZrE8vNWN4GTrYIkyy0qLvJmxctTYJLNhhN6HZ+/c2v6HpCFWNCxYw0AUiZ5TjZXOlIKiXb6DHw9LEc7+3Idr1CtxTAQzG8mSoS4BOUDT3xUT0wk6nbWCTkklybIqkXXaMAajZOTAa468BVZb0niusZoIV7C5cVyglqxZkiwaKFtiwAfxcyNgO09cEyZDbdfc/YNRGjBbcM4JIADT/XALSCFz7BQyPfCo1ZXWMQJorYk9Vll22OmLlb/zl/W2Jo+swKaLbBYc1jfjEWdME9lzNdyjCGyAxoPi/lYoGZfAAYGgFVy2XGGeGSo+nP23dn5FgCxJSGhFK/KfXPMMa4/u7ujrx8+UJ+/PEzynTjd2hybEZNaPmuBjSLf/sHFK4DVel1LTSNSYcHZayxBUBLWmhJadlYUy8hPZQEgLHXoFPmAude4Ws0eRAscKrNwmVLyXA8k/PLS3nz/Yn827//nCfQ0AEIYhEatMeTggagpvn+bl1ePn4kB9s1qVcLkiWwQF1jQjcKX2EB+pMBMEO2CPEwtM5DJmo+T2uyABpUc+d2WlQN7iloH6ORDAYjAuRtF4TGsfT6fel0ezIiCMIzVqY7NiZF/GbJ3ayTrKhVLpP/d0lzY/pY/vzjtcgn+i6Av8B8i5t/x4xJuLKiYQNb2MtcuSjIBSc3G9vEfCSkXuPcmqTxu48Y2jKvJO62o/FCRTCtCTZWcGDZgIsWlCmpt8HPCsizOu6gbuzubMtOfZuWHNe1TKleiybat7cN6XQHyo+kR+FfUw8OgCKEHp8/f0ZAQyMVkGoxPhabhIuqe9MZDBlUKOBAUTfS5L7smeOeExbaHastAlzRMYuCmhlHgYX22wRoZqH5IJYEaOwJ4E5ixLTAgH53cib/+u8/l2+/f0eeGuvUCBRO60yUUAti4vHBrrx++kQOdqpSLRaomUeryllkZhEwq+k2i1IwlKkO9jXS6GkkzV3MDIACq4vucxqLUnsVIC43GoxZ/3nbB1BOGI+DYgfcW/x7PAlPY4AjVHOTPjYBtCho2N8mHVhhWl4BzMCHvZUX+lnq6c5jIhD/c21eeWiHvD17jmi2630ALYlakcQliYO//whAW8e7CV7j+lyk0lrzEPzc5Tfw7wDMkHEsggyrSRMkSXa30d0Jnc1SMuz1pNvpSrfTkW6vI8PhhN6BqXHAOtP5CylISAjAOsMnlDzChIAlvlyii+tBAS2VVloSdVMtpELA1DLEuOdHzw+z+KLhhXXWvu818vt1eWj+xeMWQ7igF28jeePdNQzN1Yq6l/6//c0DGSB1+eYynafkttWWs7Mr+d//9u/y1bdveAqRi+QGjcCYShHMUDby7OGRvH7+VPbrSuFAsTpeQ8LmWONtZoUYy58WoWmdwcTPauxCq9pN5Va/klirrRJppY1HqESYSnui7fdanY7cNJrS6mKRjdidHe6RPq/GhDYZP10Yd8c1eg3/REwKE9hz++DnW2Q2DvZ709XCPehBoOsgOpfR93s/QFsep0k8Bbxf/DoBbZ2N6L/GDpYFS4UHAmS2w8JxtZLDjHiQ4UTyoJyjZYZSPlYOlCtSLBQJYu1GU9qtFmPDiBEzbupceLwHLC3cw3SGZABEHbKyu7stP/rRj+Sjjz6S3XqB2U0ApsX0jLah46ifADQlj+u6taoNPCuYBbYeFsYnpRU29pl0yCbhT9RaW1r6tIm7eF+Axii62xR2s1F3xRAd5GmcMgywS5q1lxB7/P/+9d/kq29/xfIOuIwgJDI4T+KulpTUyiX5+MVTef7oWHaqJSlmYWpPZM4kAz7V6jBXysxz3cjhorLX2FhRvtv035UE5zTS5mzugut0UwXXxLgl142GNEEEHQHQkP0MAY0njskbrbNLlwCajaF/CjIBHIMNZkUZGOEZtZ1ZmI2NApV/0GAhz7UNh4YEXPLHP03tcfz7ij5i3O/iruFfi5aydyE/HrnqUNbff3hSYFNAW5iTYELUArIDCq8h4x9rDy63q6AgnQPfl5SrxpIllHtltOCrcXsrfXYm07gte51pwyhm4G3f8vografnDP4fHR3Ij3/8I3n1+qVUCxkpFuHSakxP1zxoUMHIB7QNs9AM0OzwNyUUf09zbbBzVahQY/ezDNiiIObPPwFt2SkZNzlxp9syc3rda1iWM26zREGOJnfKXM45eWPol/nu5EL+7f/8XL797i1pFrAU0AUKmS580iTPpmW7VpOffPxKHh3uyVYpJ/lsWmSC12vgOeVJ/DCW5uINdF29rBmZZdSP0ioBBVt9YihyaLOLlEzGMxkMhlqFMMtIrz9g96hGs0mttRHoImMUvWuCQD8BaJvQapM3pIGULRS1KpO7cvvWmJE32S2InC/j3anLqeMzcgsTweWJTGauUsOBmYFa1Mq7D0DjqJvLH1ls/xGAtokh4N/ugoVGMEurhUaLSheWqrukSNcwfhr5eQVXmI7gPjLzw5FSWOAZsHfsWKX4uCGQQVWmv3+vOjczUpxgob189YJxtN1ayfXrhICkvm82i8YpFmrQIvjZfMwsp8W0wr10Ny5uexy5I7zvonKuXmOdg8E/4Pj9DwHQbBNEY2mTMagZuqlAqTi/vJa3b8/kF59/Lt+/O2NMCvETAzR+T0DLyO5WXf74R5/Ig70tqRZBykyLWJKBxMIiAYVyNZ5SBjareXXBaUN9SEs66DTQPYBUkCvBAqBB3QCuZWOoRcKoFQUfCJYZG085moYPaPG860W29aLlcZe2YYuHh4Bzo7mQ+SB3XVQAmH1wvBxLv5BxEjXOKrBDBpYnRDfxPnRd0HF+MOEBYovaLLUFa8qLxyW5vjaWC6dwxKx03lmse/7bBGjrbNAQ1BRw0L3Mt+Dgi+DfBmZ22OTKiAFrpQDLv9ptGQ9HjKERzCDawBBJFu0yGHqxsbX1gX/D7UQcuFotk6qxf7Anx3tbsrVV5ye4aHAftXqhEJT98aAHv5Lipmpx+YeV1dZGLXYkbMzLMVBbZWBFLTQDUD7P//yX/z43szA64NHT024y7ufveyotvqcGGP3Fz4AjU/JQxMDEOP4WrJlpllYPise7g4GcXFzJu9Mr+eLrr6XR7TnyqhMmdGVGUKuFvuPj43356aevyUFD02Fw2qhaGwQxC8FmZBIABFqUkAwGvGUuHseDQnKCdaaueJ1WCz5B60Dpk6RkPJ9Lp9th3Oxds8e2eMpmR/BfQZmb34EMg6pQTEA21TUyM4sKdhVdYd6yq4hwJzrcb9yb2kcu3kfOCgBMxxLJBmainPIpnp0dq0QoS5PNwGWBqoPynVBDCR5TvaTlN+Z6qELDWAawMEfqLtN1mcykMZ1JB0DXG2jcJiC4GvdNNxT1uABsKWw45e7RknAHhIYmnRgQW1DOJef6Peh4aUAaDzymBanseWSIGTrAvNjmVSeOdB9z5Tl37gMyQ7MEoid5jPbCwLI1321xFSd6K3gvHiTu0HOzhOY8+jdeVQh6x3o0QfwWlAwbf5Jt06rKXCmXtWViSruko6SJ0vBjrEtQarmD9JktJucBWtz9+qGUw8O6PHxwLC9fPJPtrZoUC1m6oBCAxNrA+7LWmplNpwAdARPLeFpCzcDUD1UZcPsAHncI+G4r15CX3X5vQFs0j5dZDJsQLOMBjfr8WJzjEevSsPnIERvO2ewBJNrbdlvenV3K2cWNnF1cSHc0phto3iFY1xx4mUo5l5anDw/kJ598REkhWGcw0Aharq4yk1Y+jmVrsGDwPThqgftmgEY3FBwz5ULBMhnjteOpfqIudDKWNgK03Z7c9HH/2smapMhg5ap/CW7dcDSS8XQmGf7IbX7udbWqLB5IAib5Su41WoKg9+i2INuaIeNKugM6ZytXi9r0BC382+lvZZScydrIDH6XklJBT+VaKRc0ssWfoycDkxmDITtfkeTMetixtJAImUxZYQH3GskZLXzVxrjOOVcw87J4ALWg85ZBCLl6+uf4zM+Uf4a/ZZDcuWM8APgsQII046F4zcRZLgEeEbaCUQ3Gidt+oUzKZWk5tL57bms6PjmRbGF4PE5NKfIJTb1CY2bO1cJcgUTrmvxivlisjvnJOFWNbIYEWmQkUZyO5wcVqNFoUSUGjbGV+eFEE1YAmlk6BhAGNvn8TB49fCCvXj6Xvd1tKUNQslKgFQdAxT1C4puHGQ/1u+Ni3lXUy/LBK/p9koEVBTT/dQS0uJjYHeTzC0p9RPSQfhmaJpnb61ho2PgorEVNGr6yBRfiA6M5G6hCFvv85lbenlzI6fWNdLp9Jgk0BqEnPtQ6aQXITGqlgrx4ciyfvH4u+zs1Z6G5vgIz0Be1bae5nLTaHKAFIo2YNqNzkK0+IQCxD8EUpVEz6Q1RNjWUzqBPa6XT6zNeNs8W+RwIwFa5ILXbdT5f4HuiNvX65oZt82A16AmrXX/0A9ZbSJWA2W4LxSSLsOF1z6BkRt1LgAFL9uF60P1QYAOgURsukyYwg2EOAmUhC2tHeG/FQkHKxSwLlFHgDBxFnSDihGgS0+vC6lSuHetfR2gLCLrKiJk2uNVgvoOeYsFgpUarxcLSHlp4NNncocFVqO6LC/bDTirMla/HDDeKx7zfUdDRWTskjGoY242bUkrUQgu3nd/INyWhu83aXDfm90ZY5uO6i+KQiQAagu1qvcwFYV0MNKSAKLqYg5unOmhw+RDPwpopgTxbzJPPCIWY2yZ0/NqcC6zFNEE6tND8TJAPIn7syywofAWgPTg6JCdtf3dHqpUirbNSucCvOdwPRSSh0OxoO5ENbyBv3uCy2OkyrIgDszsW2ipA8x/aj8f4D510E0nXjn99vIUGQEO350GvyyJbggrkfEYzElNvbptycnEt35+cyvl1Q3XLoERLVwabxJF3oN6ZFtndrsqrp4/kxZNHsucATTmJzkLDZhmHri+zdq6HJ15joBYC2pyWIywTbPAhXNPJlMKQLSywdle6w5EMxprJzKaxGNNSr1fkwfEBeyBWqmBy50jr+O77E1Y8NBudRNoG+yb4tAhnu8HCwS7hb50hgTGwjcmMZSpN/SyonALImCUDoDC7PGF6HuxyduDOwOXMK6CVIb9UY0kMNpgKVyLG6Cyx7oAbqtfpyHV3SNAFwFODixUdwlgbgI7DSSRzn86NNy8rVJ11asWwCGmVzaSQyTtL2PVS5UI0N9WzDkIf0dXV6mbzA8lRNdtgrQQLVC3ixXW8PBOaZKHZgRT1bsxCw7wwXMA4JwDNBf9N+yyfl0KxSB0/UDQ4l9BBy0FiKMt1CUXlRrPFrk6QvppNnT+uq4VgvgrQFgAihZZ2GTnY35PHjx7KzlY9ALRypcR2d9BoK5a04xTJ5THDsyxGGjWe4v4dxQs/7ncH0NYBI/+Gog+8DqJ+qIWGeFO/22HcCaAG12Y4QEemEcucTs+v5LuTEzm/AqDNJJXPywjBUBSmo+MNT+S5FHNZNkt5+ewRlTZ2tquCYDcsDrXIVBOIMTvP5TRAC0qjXKs6PhesN5ZIjVmdAPeyP55Ks9uX23ZHbjtd6aHWE1bSPCWFucjOzrY8eQIm9iM5PNzlgsBiHg6n8tlnX8m//fsv5PrqxpVv2ehpnAUfXDzo9D7T1mOmX4VyF4IZKxRQhzqUEVwvZ+nAAkCmMpdKS72Yo/uAv2WxN9P2atPQzcw7FQtnEZQrWalWqlKtVLRdGrKZeA9YZd0+kx6dbpcB6WYPLHQFAswHysfAs4OFqnWsKjwIl5muCmxqACsKrV3GWMvVtCibIiUEyAlNVR4sjDOG4oWLG0HdSgyOVYBobNbF5II64kg2LaG2EE11Fj+SQS0J0KaU1gnDMxbnNICFpawS29pPAKEQuJmwyvJZtYJAx4AyDHhhyh/TDCFir7gOSvOgDnN2eSO3ty3WG7vjzd2+0YrCpEAUYO1+zOUsldKyt7MjDx4cys7WFgENBzBcTgAa1i5a5bGng4aT73xYgsyyl37We+Fgdn+8KibvY9C9AZo/EKusvE0BzRCYvK75XGVhOm0K98FaY6xmqKVJ7d5Qzq+u5Lt3Z3J2eS29wUgEUjIjyPRgUUCZFgtbpFYpy5OHh7TODna3pF6BAqjGkLjgncmspFhXVM6EhKrNGoUDMTBV2piRAIsUOWgXQ56SE+mNJiT6XqPlHdwxrCO4dOmMbOVyjEl89PqFPHp0JPVtrbPDZPf6Y/nlL76U//2v/0cuzq9obVpxtUm2YNw17qacuHQ2JbVqVWrVmuxtVxQgxlOCC/owtpFdNb14J7MDNnktn5FKAXGxktMXm7lTdkriMVxN6tpzU2WlWMpJpVRm3Aa0AcYXAVSDocbKYKF1etLpdKXP1n6O+CxzxhJhPcBKxaZDAD9QQ6E7NKOSRDatwoS0VhgE16+wSLEWcODAjce8QzAA16Glx/Ie5buwbAz0A8ivI6GRV4oB62qpc6ead1qqFtZ6ElydJPvietXraWjdDJxk0vNSQHMup9pNLjMedF9U1xKuJCSACijRA00CMTPIbReLPJRRU4kkDUUfaV1nZJrWxALWO+YdB/zF1a10e4j5GnhpUkDN2dCSjQvC42eWGIBQMFzN46Mj2d2py1a9KtVqiaDGcAmsxhIkwJ2FlgBodk3e50LFSRjYj7qicbiyzO1M/cv/+OdEHpqf/Vw38xAFrujN+5mMuBszTbGQjImA+4xA1ut2KNzH7CBczqFSA6B/hjjau/MrTmSj03NuDYNndDuz6TQtjsO9XXn17LE8Oj6g2gYWu0KD0h2UY+byQg7QojE0noSM6YH5PybYAViAvbBG+mhIPBhKq9uXy0aDFhr0QNn5OpOWo/qWvHr1Qj5+/Ur29+pSLOvChMXT6Qzkm6+/k5//4jP5/rsTWnq4pnJ+wNTWrCeCfGg1hvGCoin0qp4/eyZ7dfQdzchoOJZmoymn5+fs8tPqdrmB8/miFHMAq6JsFTKSnc+lUCzw9Ie6qXLMlFyJT2wwtZQyrOfjxgLQpZ2VRM7TULodWGiQWepLvzeUwRDqI1qMj72Dr3A7NWGiKilUFqbE+kjwZIwTZdXVhSts8XEGnclSVwutg/AD4pPdPkU4uUVT2m8Ak8kERzpFDfwHRweyXQXIp3ngtFsdJo0Qp8Q9aAmQFmen8R5zjUfSi2W2WA8Nfu+sIBwGfCbP8vWtjCRAQx4Z98XYJjiRXJcW82OjMsbH4MpBMQPZeM0ozyWXyUm5UlaVEdOAg4It+2KA3g/XHKpoc2b8zy9u5PTsWtqo2cRhzPWDbKQL2jsCd2D7O3KrAQ3dWddVHYAGC+1gf5c1ovt721R+LpYUZAlorslx0rOv4wXGvSbOEovihmEM5wxJgaQ38yfWJng9SytyvkX4RgZqdwEtjFf4gAbrB3EYWGhDAhqKvMcyZ+BZg+/Ndk/Or2/l/OqWX2GRBNkjl8mrlEry+PhIXr94Iof7O+SfQQRPaRHIAugGY9lSpKcmfBVmMJ3sM7KuADQr72CcjZk9aKiNeE9wsy5ubuWm2ZQB+Gtw9Qp5efnokTx79kSeP30stRqsHdyBWg/Qe3/7/an84rMv5Ntv3kirhx4HSq4koHkdsNTVzMj+wba8fvVSnj97KttlWDg5zTQ2W3J2ccm+C+dX10xKYOOWCmW6jbV8WnJo/0aZ57y6Oo6uAeAqFJ1KqgM0/MzUUxmqc/JKyHQiNjboDtiNG9QWgBe6ZLGWFmAN19NtLHj1Y1iWcJVQazgcSk5AuchQeJO8N+dSY43QUoBAJ2YJLQzh2o/H0u+P2F7QRAjUPU1JoZCVWrXCzt9PHj6Ug5067xv3dHPTkHenJ4xTNhptGYzQlFezi0oDUReYG9roDo7+opajcsBwXxhj0HF8MFt0exf3AW1JBxwqma29ATKpDK0blYnPS7lUdJlnNBbW7CHitQy8AwCdVQYLDSRxANoMNA9Ibs9TCmhXN3J6fi2tzpDCpManneN1Lsdr4BU1VszlNIpIoZCivNZWHU2GanKAdpD1mpRKRanWIPqooGalWHGk2Pf14JJcSx87DER536sAbZVlti7ARU1JH1XDm3aUhAV2ufK/YAUA0Aa9HjcPSjlkhB7nErh5sISub9vy/dmZdLGxRtq/ERYaoGqrWpHXL5/LR6+ey/42spuI2bh0Jd0V5WbRRnMFtkbbwOa1uJq6pupuqSKHAhsWDfXRwM1i0wmR60ZLGp0WaRyQeylBBXRvj7yeh8cHGgtBezIG5JWKgNjZV9/8Sr791Ru5uEaHdvDV1FVQ/XxYIzO6Jds7NXn27JG8fPlcDvYPpJ6H9EuWYNtudeXy+oYWGhY4yqxQo1rMl6Req0stBwtBrQC4drogNRBtFloK98ZNiCykJg80E6dUGoDwBIX3oG8Mx8oL7A9lgiYm7lBRd1CllzTLibrBGVP9MIiRCYVtweYcsNCc5WGHKAAfryWIAMjQnYuuI0BtIP2Bhh7gGkOvq1Yty/Z2XR48OJLDgz2plwuuucdcbhstOTm/kLfvTknERmcvSE+h4TQzjnT/Qgkil2ikS48DUQUOU1yDaNQLepDFWv29EOsq0XpUiyzLVnQQGs1KCQcF+iYgVoavkIvXEeZ4EKidq6s9A9QVZRMVqyXmPKa5H/rjsVxdt+SUc46espqsciRElcl2LqeBl4G4T6swl7NcyrEHKFRwq5WS7GwryRZjvH+wK9VajdQRn5AdxYUkrusqy21dlzOwNP/X//wfS2kbvgnpI2Gca7ns5nxAi17HBzSfWKuDYBnEkXTbLWbQ0ARj0OsLA1OpFF0YxD57oyl7aL49O5ObRpvuD67AgPh8JrvbNfnRJx/JR69fym6tItk0JHqwwRyxce6K0eGyOI5ZCGhh0S2ek4vYbVhsXiUOKt3AqguQlev14X4NyJfKZHNSKpUpzLe3tyu79S3GQ7SUJJRRQQzk5OxcTk5P5M27G3a6Ru8EgBFO6lwWJ7XwdHz8+EheMxb3gJsuP+sy8YByl153KI1WW25bHbm6bcrl9bUMB2PJptCAuSr1EjaUPjOADJsVbh4Vfal9lROc6JwvAPyI9gddJiNKUgNupAkAUlaYJBjzeeHiUa9OKW8ynWCeSAvm9WBh4CsstPl0pDEzVCO4TWqy27BC4VYD7HFY9Kfa6BlABFCDegQ6sCkQZ6ltt7VVk929LWblILWO+CLDE90eD5nL64ZckIh9LjfNjrPm1cIJwiSoGMlmqPz65PFjtUoKRR5ezdtbObu8kut2O5hzA4c4C0V9WF1nzDJDJruQl1IuLxUUfiNW5uSz4dKSNygaB8SYAMTUWlVQRFxNqwSgCwdXUg+meVr3w02zJ2eXtzzM2rRiNcuM3QCLEAdj1EIzy9N4luZylorukMmgDhrx2jIz3cjOP37ykK59BWvPdeVaBkLr4kaU3mGHW3yYSq/K8V8X0Hxgi7vhVb6z3aA/2XEuZxTQ8G+ckjjFO62mdFotaTYalEOZDyDFnKZOFzSIx/O0dHojubyF63nDnoMAFdX3Ejnc35VPP/lIXj1/Si5aBt1NXLkTrRBEMRyTG5kxAyeeWgg+W8cnVzBOfhyAjDEiWFdTVjLgdeqCIuukQDcmcM7JJZqm57QYygW4FnoqYzHY2AxHQ8oK3TQbcnHbk4vrljSuG7RGsCoh2letVhjHePjgQB4/Ppa9XQXH/LTLzCPjWAC1vsbykG1FY+ZBf8QgMbhme/WilAqOd5VKSalcUroA+zJqfIYS4SzGn8ukrwtHLZKJZnZRVD8cKjUGVRHIaI4mZPDD9SZYsVGMAh6pvc6ly2bzHBP9+7Dw3RI4Bmj5UlHyhRxdTurIjXoyGWuigUrBGHa3oBE/q1SKUt+qyt7eluxu1WSriqB1Weklg5F0kZXtj6TZ7hLQ4JKD9IwEA2WvXaE27CIIIwIMj48OpYzDKJ2W8Wggtzeweq/lBvFa0IicpJTPfL+zeRG4dx2q4B2QoOqSFgA4uLP4irVAK9y5qDYXHHsmd7DctSTNmsOg7CgNiR4kCFIZ0oXOLuFeX0m731cpLR7cqlkGC83fxzYn9tVvSpNJI4aHXYgE3UQK+QzXH1z658+fy+7eHuN7Cmh+X43V/lsSbiQBmu/Sx+LQ//u//mUtYm1g0kXq6Fb93H6/LJC3eGMakA3MeKc4AZcT3XwaNzfSuGnQ9QS3S+vGlIoAuwolR5hALDa4WCC1Yjtisz9C09Qffcw4WgmWyRwlTbpZlYXOnmd8/7wgMxZaXHAv8W9rHGPlOfiZNksJ9HKChaKLXAP6KnPk6vKwaXjf6t4g7kO+l6uNw7WsPrI7gG7aUDrtDn8GUMCmAR+sUi7J9s6W7GxvKcERmdJZX7tWDRDLUpcM7i9ccPD1QK8AuBTyJdndgutZ1pgQNas004p7wT39/+S9aXcsSXYc6MgV+9tq6Wo21WwefZj5Mr96RlxFiaQoLjOU/secObOQ6i5W1dsKOzKBzDlm95qHhRZtbV0AACAASURBVCMiAbyqXkThnHcekBkZGeHhbm53s8tESzwL+A3RQOY2xCtpat4jsTkAjYKYKipir4UAGfwfRf3K6YvIoFIx2BOVqr5gr2BHMYZ4HeVX8smwFyUSCGm23tF3hk0DZiZMUDq8ZzOmqGBQEZ09OT0uL5EzxdQC5P0tIi8RjBBBBXb3umOKw7t378vbd+/L+eVFmU4hc5NzAI10jk+4eBHdxcv4DqQNwVf47uy8vL28jCTvfLY0XXuJ58GAycy2aCMXGf9IH9qHpDUYFuZbNg5mlQakteHnyowLATs2GIw3mxDT3ERPTtVCRhNifA821yu4HC6uy9fffFe+/fAhlGeYlhPS3jEfM9iBPgVZeIUyPDYQOj5hNJsRVEhym9IHct4Ojg7L7/3+75Vf/OHPy6vXSDs64HUP1048DmztES1eDIFXiy1kcX/07/7XUUAbsns/1af2VEDDDiIqzM9wRW3oQzt7/6G8e/uufP/+Azv7fLy5YV0iHgcmUlDkGZ3x3338UL758KG8P/ue5ih2kJ///k/L//I//0/ly1cvypKhTSQBpqgiHtgECzP8eIttsAextE7U8WEHISrYptmq+1TW9dCOAmd57aKuWjQ455kjFudn8AE+us0ec9GivR4EK0Nckk57JrtGGgVTUzC5t+j8jtIpKHvchcIHzLSbFXuYIvEV6L1cHpQ3rw6jNm8/CvHFLsQU9ayZ8wVfYXZS0pjcoddCVT3NukyViLHstguiaFzwWWcxlbnPu+hi+G7C9O0Wc6Rl4HjkHwJAlUKD1+mPw7OkEsWMJTkYG/oCD2JsmMebxfMARvr1kGZzfU1GDFN/Nj00Ac+Qs0apEcYC44pjEWHHs/h4dV3eX93QXwhmyuoMJjSqXWFET5GKgvs4nEfNI/rAUjUZKRo056EQi96xEXRBZ6fpFh3fYUKGyY/rxnvrO5jmXSd5nI+qtMi1zB/MEai3gJG+RRDk22/Lhw9omL2O/hrIIeTcvuOmClMXQSmALADpYL4sL09OmfLCTYT+4FSmxXfDVD46KD/5vZ+Un//hz8vLVy8ZFACgRQ7hw58xJjYGVP8qAC1uop+wGGV0kYd2/v5jefv2bXn/9h19ae8vLtLWCIaDXRiyJuxqc3FOUEPaxPVqxZSDf/sLpEr8YXlzclTmoMby0QHMCO9qcLIhoDlTlAk5HMFJxU5TGHBA800Av7MkJRU83Kwlb5PYXc4JmmsZcfVjfbHrmrgRbNb0VbFwnN3FsfjWTCVBQww47LHIAIafvT4hoOF3TTgBDocjr4XnYnVGSDa3gCZHMnL4GCxBX4YENHeYy5TTuSvYA2hm4SPS4oVPD7/Lv4i/BWibdVdji82LrE6abcygBoMJMx5+NfzDSsW1sHCdNZSICkaVBE3ZDPBMJyFKENHrcKazPpGuCyRzZz+I9bqc39yWi2zSEywtgA3S7OGOCIBFNyoA1tECgJFpGzD9CC+heQYHP3xqZF6KYmbKkcaFPs29uIcqt0MmGyoa2oAhDw83DO4D0X8A2tf/8pZJzfARbuFrI3QhEANwnJXZ3pYVCHC1AMiODw7LfDInEwZ4R7XEhtHmxf6y7B/ul8+//Lz87A9+xgbE2EBmiwC0IfD6HxbQ1ARCGM+6PAzq7W05//CxvP3ubXn/3VvWB74/vyjbu1CshZN0f7FfZpA1gVLn+ra8+/h9+eb9W+YqYRdBasMvkCoB/xnyxsSq8LhUgJygNt+Eb8lZ2vhuMgxouocKUmmug6GJcamMi/41ZlrHYtWiR3IqC9Ft08P73JGzuxGBLK91DUklq6eDXygWIlJJAkipoLGPXRjpG+H70ITD9QggxaQEaNTXSoZIUGPZUwdyUNlg7hkBLZh2SHSrKDsKzx/8gIEw/y1zv7J2sfpzFqkKLOFPJO3K7AUIxgejy1aeg0CYJvQkKvwJ7kxLUe8G+qLC6R4gB2sMwJC+wDX8kJEiBAsAJtqaGnuZUIz7ZR9LacIhLxGsJ3tTUN+uRK3jHH1fkY2Y95h9EWhWouB+HirK8wTZCI5A6kd1rTBVI8lY4I2cMv0eZUdZuodKiuw4hsTar9++Lf/8z19TxAG2I84J7gCgR+NgiJ3C1EXaDr5/f4aSuBlNXrobKJYSlgGe0zwrFV5/9rp89bOvyus3r8shqkfwnCR80DzkHwPQHvO3cRr8bpmcsQv0fujWikTWi49n5f27d+UdAO38nMmRSAUAqDEr/AAmxn7ZTiasp/x4fla++/Ceu+/LN6/LH/ziD8q/+eqLsg9bH1Iz9Jt54XeWhaDD+iYovMxfTZYhM1xmqjMlhbwd1PQ7FgwBDWVcYAIZ+idbUKBBoOZZ3fK55eJzyW9d62q9ijKv3CkVFEFVBUqzgC8ITMAUO2DeU2i9C7zCHxY/rckJ07+ysQbQME7RJStADlFH1U2KQRE0rPlN/Y6s5+RiYFpIJpsymhc9VRnBk/rtGgASQBq1uhFGhRmJcJ/EDyl8iHNNkWiL9myoHAkflq4Ftq38UDAX6YjPAnG2MWSuIYB6RcG60PWCTxR+070yXaJxSKSwoIcrnmn4BcOcpaIKGRVyAyU9FbEnGWeYgUg3CQntBCxVAEizn6kaHaDx2SSgdZJOKt+Lwn1IVyGH8Zv378r/8//+czm/vKb/DGsGP5gDp8gvOzkuh4hwIwLK0BjrAMMlwzGP0jRKU2GzWc65Ib56/bJ8+VNopn1WTk5PA9Cs4Yqv4/8hAS2wpfOh0YmeaWKg9FdIQYAf7bu3jHaefX9RTbfFbElHJZyTiPSgzg+aUO++/8i0jdOXr8pPf/qT8tVP3jCZEYAGx7OUGqIzUAAapvXUZGQczMYATRncYnECA/cF6Hdk6yOyxxIupjbk4kzHsoNGVAV0fQxkbrRAW78nndICKbGHaMUXNTZgDDAz4WdnvlM6sSn+l+alAxrNTEQATRodnwFDU4SPn8u+CZGb16ku6FoAmrq33jilGojYhjYDRvPSnOoA7Y5aZxqzWguaGwGDGeomTjYDszWEKVnVgcBOAhpnWzYGkQmHqldeL2WOogMXo9Qoo8v62EjCxQLHuUIPjNUsSDC+hcw6IsAR7AAIRIxBOmipBU/Zj9jAI9Id10hmaSKcFBZAP9kcB5aBRakB8aJGghuWjQhwNAiaU4nm//y//u9ydn5J5RFwBowxFDpOT47Kq9MTAhq08Jh/mTmWodiyx81JdcN4brPlvMyX8/KyAtrntIAYFHhm0PA5PjR33ThYspJHmzAYWsMOH/1z7CKGPtjbWS36M3yOhwxNPjRMqGukHrx7Xz4g6/38vJx9PK8TG2YTpG0ODo/LfH9ZLq+uysczNCC5ZCb8q9eflc+/QHHtYSTTUvkTC1xaYgFoIbHXAVoLSPKlOYtRYbtYkt5z57dMNTyUxXRRc9UYJcRCM1MT4BHlVJ3p6SxKvigxlj4L7HwYSmWI60KdfqcOSv9U5jZxoaezXk5zfEbfX0Hc2CP9TKswQbnxpLBj+OygjdZ1hNJE1Lk16X3yyzek1zCmAm8wEz8H0kX0vQQ/at0FI9I4wZRkpyHlJ0nmKsFCoIm8LZpS6YPbg3lqBeSdjFSwFz1jfj9ZYSlgxbACCPD3UZIVwpVwLdzyd+QgRqlaVFjEhhQbKO8z/YW657gP5Hr3VYaRc6bgRieHLdHNDCYhMJPRf+aknV2UX339Tfnl19+ynlYmN0zNLz//rBwf7lOYAKDGWBkj2Slvj/rZTQghJPWnvxMs+PjFcfkCDO2zz5iGtH8I2anh7k5jQLcLbHztPXZc3SB/04CmGxu6WG8wUhdpTgAs+uvzS+b/CNAuzyMHCAsKjOPoBL0DD8mz4Dc7vzgvlzfXfO/l6ze09VEtMJnQZcqIU8jY4OchoLXXSLMq0zd+CKDB2SomBKD2iKe0wAhqBnK8Qt+5qznQmegxtt3ipzx53UQiwqYdnqZYOo4dlMSixgDN2SoATddOcIUOnMrBctOMMcxO55Ql70A6gCN9SkgdSB35ABhca5b5oK4zfWRkZOpEr4hp6ooFEqm5TQQDyCrzO4NFBy2tZhpqUrN5DgCiB2jU4O/a8lVJyGwgTVCniOctC/GxCSEQQyc6HPPbqBoBQMAHR+VcM7nlXlH2vzv70xHSAzRefwZLAoAjGMAKi0xqjYAGeCbGYkqz8/vLy/Iv374t/+1XX5fzC5i9jJCQnX0FcxGKtxtEOSPhuSrN1PmzQMPIsF4AvohmQlzy5LB8+dUX5eXr1xFRPogo7RB4/boBTRsNfWiPUrLmgCF29RjVdFPNF03fpxIOZP/hDgsKDEC7uGIXm48QcTxHXWekMeAHYWMAGv6PDkqrcnl5WW5Wt0xLePnqdXnx4kU5PAhfAYUEJ3vMW6O7gMmGJOT02aHMxxmX7vlTAI3mWV4nxmkKmUnpqmUDFo0DlTsaX1VrxopBuPnWmbj9BhPwoen48LtE3hufl09eY4Ma/zGGJmbYAhoWNf1oBH2p0sbZdH0+Dnod/3emtBrXBqCFE78LCnAhZ+KrmBXXZ+YIMjxiXYQIQtZbFNcBM9P9TtoSaL4tA0qi4bVl03fqmtVsRnE6NqQuMNI9Z4AG1UZyY6I8dgoY+JzH74q81sglqRnljyugxWa2JcsO9tbl6eFzYkaaa6EGPykoiL+8uWXFwD//8lflw8eobIBxghKmr774vJxCdZZWSZcDymcsNe3tnInSYsOweOCHBKB9/uVnXFdLlIUdhCvjU8BrCIOew9AqwfgUQHsOAHIC5a6kSe2vaXHExQ8DGrX+7+7KzcUVqwSQh4Yo59UFkkTD3MFgItKy2N+n74LF7FdX/B8hZQDa8clxtLKHTyLShbiDRYSzD2jYYYcYmkzHpzA0LVi/R45Bnpuh/ix2ZxVCExAIQE1zsfFNaAzdLPVr0qTi+0GD0vcS7Ie8iQu2i+Q6cOJcLaBR/tyinDI5dX/hU0tRAGpHdEEVB7QhkxOFBs7QuMizPlFlYVrIiug5sONa4RvzuYaHHFUHXcF5oFVXrcDSuJxDBIb92Mh4jfmcBBJIdlVCNR3/0IMjw+6088J073IJdT04J2XIyYpDC843eV8b2mzYAyDVTqo2HEzOZOsykx0I8VnOKXwHAC2TbCH4+P/9t18yuRrXjeAD5LR/8tnn5WT/gG6YPSTa5gbISCil3sG8YUaG2tMUfj6U6y1m5ej0qLz5/DUDAiASULCFf/Y3DWia9xjrT2JoQ4C26yac0cl34Y7vPtN4yNAUPr69vC5n339fE2vPvw9FV3z3bB+F3weUJAY9psLtDZp3rGjfv3z5ism1UfQb4fsQcI5s+GBkUWaFh7rNhid+7ZrY/lossod6TgIEBx5dKzJDxMIEEFRozRwuTfRoZBLXVx+a/56JwTovUxeU3JnHcUHFCq1VEMJGVFh4TZ+eQw8MDdgwLmIcXNB0PEc4X0EBSuowmBPt+NpzOuhWwI+lU5mKzCncPn5X0mjHTELwidUJrCvdMMLJAvZU7uWxYHYZtQt2KlBPgE8fYh1vfBcZWogA1ChtmtPxqikbM30jKiHUQV7ninFKpRB9jylzRIevTkE3UbSCaRStbKmXoIATAT8urzJeB7Ma2KiABgsENc7r8t27D+WfCGhnHCsA2udvXpcv37wpR0h1Yo1pfGcmaQT4stwKEf+o4Z0u5mFyzmf0ob3+7BUBDcG4XYDma+aphOipDM3P90mA9lwE9p1ffiBnLXVRE5weAhrpP8LiVwC0s3L24SMrBWByykc0W87K8gDZyvNydYNCbuiVhUmKMiEU0ELIEL0DETXCww9Ai7hmH9CiZk4Mw/9/DkOTk1r3Grs3xPgVDu92dppF23BsV8YAMGMqQeeM9t1I53WQoE87O/BUhqTl3+hNT/a6gngxCWcNLUNDEGEI0OQPDIBLh3eaaD5eYiEtqIXJeF/NQALarEsyDpNMOWpRReDnYInV3TqSS1OWojr5GS3IPDhTyEUknGkyFkHms5kGi4pioPAncf6iKW9+qTajQLxIwg2sClavpGm8xsa/zFXrpK+5GTCa32UXPvD7YD7AHZKpGVo34ct6CGiKdsqdw3Qm9OiEnNDtqnz39kP5p1/+kiYnghioUvjss9fly1evywEUTlivCSmtCFawGTE1/DB+yMnMHhUookfy73xaDk+PCGhQ24CKzOFRrD+X+Pb5+lQgaz/zGBiKNHBc/viP/rdRH9pTWJeD1XOAzs1O7eLYdMmTMn2DUJPNQKiMenlFU/Pi7JyVAjAptegoCjiPRg30ocFhzTylQt8aipUX+1Gr2AKVX3ed4Nja6i5ak6qCEaavIRhDth9PE8KBumVccVtocRcLyUHETZPejhMZs/UlH++6sGpCaspZpz/MJ75/n+6XoolJ19Smz9lhqOJ2ZiPASZ8NEAMTRtOayKgX2IH3MdRv/kAtSCx2sXSPAss3FNeMAnlTIJH/JusW5bhvF4jGRv44vB9jFEfqeen7fR7U+xoYa5xXoCQ2zOcOZpoVBg7+/iz9GSmb39+ndWFKKwBHzF/yTxNZ9Ofg96FNAmagXidYRsVg6PPd3ZWL8xsKW379q2/K1c0VXTSvT19SAugYIgks0cp2PCkIUb8TTJ5tE5HbtmW0doE2dqcn5cVnL8vr16+ptgH/md+LP5/HQGnsWbZjNcTa/NyfBGh6+H7y54BZe6OVFSRLaQGNAnbYhdnn8ZpJtddoxnEVUU5cB+ogWfY0mWRQIFIRsEsdHh+V49PDMreMc01MXYsDLO8LTYor6HS+hXgtcrJYWJ5lNFH43Hfo01RWfpTsPCY8RpJo+8/Zka5LeWi++PC7LzAHLl9AvohxnTq/ntVeRg85FhY5xOfUd9QXks5XI7RgZGxdFzJBYmPYhJAHFTAcnuUK3tlqLlhXqOGSEbGONRiLFjncAhILcBAsk46leORX1+pujWCM3YzTe1p4vkHgKOQv6sfnt9icXuPfjHJmDmF+icZ46PkqhUlzT8/BgR2fJ0u39n76bt0fPueMjKys9oxAc+LovxCgBjmhDYvTv/n2u/KrX/5Lub4FoC3Ly+NTRjoPF2hSDEmjKV0WYbN0P9jbKR7J9hnQ9YOc06Isjw4IaG/evCFLY27jSNpGC1jtGO8CtMfe+0GA5mbDEFqOXfhjN8RzjQAaP5ut7CDsCHMT/6CJFjV3d6FBn/0tmQd1r0mRgAZViYWOSe0kc7Q7SHNSJkOLCYqkIp/oYY4qK5o7V0+UMoAN11SjXOH66DG0FiyGAM3brfmD80nuz0QA74umNfV47VRdSJ9M+g2R3lC/g8+jAyJuGlleo6JwFD/zMxS17FI4AGhQ+KBPz8w6mdxiEhVY6e/CZqSUi/Cb1XalCXKKBiJnjWkdydjq641OfWwmLIaqvtbKaLKHQ28xwKFufi49H4Gs/83fE9CqhWFsdmjB+nE+BtUVYZ/vp9x0PlpdfzWpc4wJaBkEYW5d+gA5e7d7lEv69rt35Ve/+hVzNFEhcnpyUk6Pj9gGD13AwiORpqXmK9U7IocRP2RoBLR5maF87vNXFdAkwy0ryNf8GEPbxdx24Yu/94MBrd0xdoHYrgt+gLwZ6eOwIos693j6ElhvAsWHNc1NPJT1NbKyQ9ffSy7YTk79NUsph5BCOYYiRSefPMTQAjdzUTcMTfcRjXC7ZFK2slM0yDpFcREYQ6uLgt2Kuv1P14H/PeNZY4P7UsMWX1Dys/nu3rv+PIEWgBhoD0yYod/552KMw8+n61ESKE4H4OjYWZQEKQmT/TkzQRfPC2oPOJ0DGs7ZY1p5jVhHnoOFY5hWwcaUXdpJOL0Rle600zwRtfVv6m/1G3CQb10PGqfIzE9uadTONzy8z81HDbAzJUf+q7H14Ck//lyGNjJFpjUf6/xLNZb2O1j9AJMx0zpYvRC6DmxlB128t5Co/+bbckGZpAk7eJ0eHbIYHYDGjJfMNOjPG+S/hWsFQAv5IFQKLA6DoUEPDUnt0Su0c+s8BdAG790+OIQf7fPxczzb5GwZmk4+ZnLuQuYHn2FYLCeTA1qyBVTJguJfnl8wx+zu5roCGpz6Oh9ldvCZTFfYPzxg44mp1QQ6kPh1aLL6Qi6o20uGxoWQYo3tLqzPVlBszDh+D9gMeyXGzwNm2MxUmn5pMvlYYrH6Lq336My1NBmczn1GNJUlYpjHRWPeLn0DcjkCLmcVAFcx4gheROIp3QFWwoWdXu3lepMtv8dBuC7UXAi6J9RvduZLB4Q0naedKgfvLfPrOgCLgAKvHc2GPZ9MFQMNkPsC1li0c1fPSm4Ef94VEN2+tefr46vf/TN6ZvpOPqMMwvh9CYh9zsaYhBlanzXvLyK1qNqAejPa2qHSBmQAAIVmN+zuhSoGquVG/XK4hbugDNSIkUhLYxQ+P9QAHyzLIepAP4Mf7iVTphQAGcKCMRwYAzRtwL6JDwFk3Vy0np4bFHjKg/OFrgflF+MX27v5DFXzJii6mLtz3BW7elON9QK9Hy/KfQ/QJJ0cBcQCNEwMANr+wZLt3hxAnLW01wxgrZMMAJZAGxMq1WsHdnKf5KjT9InKlBHzoQ0BYvsamWezY2mxavL6GELiup3sPUCz9mQ0h6VWwd08zH6Yyly0GXGtX58ALVADoFGNARny/Bd+NCYHc69PlVrv4p7RyoTzjoHRh6a+BshEVxZ8v1yLLCjLk4buv104ZLKWU9guCj++ndsPQEY9RNMvWje/nAdDC9kJgMBIfk6df+h1AZqDpwOhzOwKsqysiPHjvI5FxE0dJiPKsT68/1g+fPxIBRH4zODzgjYbsG8+mVAJOTbZbgPB3wzQZtkcTFgQA2QUHL84JaAhsRZRzh8b0J6yPnCMWzZ7f/LH/+7ZUc4xNjZ2AQ5qY4DIgawN5PomZwwqOpDEgmFg4Oy83F8HQ6NCBAEvAoJccOzXuKWUEABtub8goDmj9Mnmuy93qfS7xISCuFcAHB27ArRkbc7eBDa4ztvrm7rTcQzIGBComFfT1ncYN4MqyzLpIL/emHhdnZ/GHt2U8Lomto5rFwODClKvUICiNt/NdAXzqXF8DNBi3KMyAMAXCaMJgshFU5/TgYirX1OdSxDonIVLoGMa8TcWilgdFyubX3X1l+4C0VypQEW7K0bHAWhoo63P1xz8fpwzS/lG8X67HlqQdODVM67z1hg0PsekWPYsHXAHpCClWKxMXPrgIOFOQMtAlaSbci4A0N5+9758hD7gDZoHTUIYFO6F+7vabatXX1rN2+gNSPEC5jkWSggB0F598ZppUWJoP4bJ6fPcx3/omVVsyAWw96d/8kejirVjwPVcQPMvbX0XvmMC0KDUKTls+dDqZISjX4B2cVE2VxespQM7UP1ZJHjCTxVRNojRYfeAJj2Kah0EWiaj79GCYx2f9PNzsZO9bFOKuuYohVBfu9Oub1c9f4wDmu/+AkRnjxV4M21D7/n/uxiaFp8WXAXInOAADfpEBoIZnWxMNFHWD+4R44vFGNLbALCIcsrxzsWIRFeMG1VOu4a8mqiD99I0RpHTv4vmBYDzurPIW742H3cHLv6OZwjhyWRVAiIfa3/ucnn4nNUYtgstIpEdoLXn1DzSnHOmLDaL65IfEN+j18P/1fflOaPz58tnCHPTzM46t1NKCibn+/ffE9Cu0Hx4W8r+cp8qHyhMh14b/Gh8ZpY2E/cQ5ibMTgEaTM6TVy8JaMxDowR35NzpefjabplzS3782KHPjYHZA0D7sz/941FAG/qSliUMXZguvl1M/oCHbtABjQmEaWtF+BnsJoALzYZhcm4uzxnF4iRFTlSyNZo/DM0A0FCSgZQNAFpX/9Yu+Haykgkkq0IDXi38yCDv1B64O3oKh6VjSOfMmQGzv/e6fgXuoxra7VOulsPs1ygG1mMu2OEt2sWFapEznt8c8DAjuGgsX0zO7socZU7B9B1gaCyiz9SI+hk0SkEGvTE+zRMCknZT82dBOFALP3LQOiFDsA5ly7NqYB4LDPcu9tbOQ25EuresqVR0Vvl09Rl7Co2xUp+jQ4s01Rp7/iads7dRW22pnlsFrmT9YpliaNyYG3br49ZufhtJjFOCPBRtcQz9b5tCpd3zM2gInpXLyxuqhEAuCEq5MFDR4JmNgagtFAnBoRvHrbqmhQDQAJywel5+9joAjSo30ZvCWewYSPnrYz40x5DHztPz04KhPfaBoYfTfsYffgtojqKfwtDA2HjRGUUEoCHBdnMRhbak6utoLILazTA5wyRBx6AAtBmVCtykEUgMMR1MhurrMEDjfWeUs+ZdCTkSPDQ2AjSxA6al0LHamZy6fmdQuq74qtCE89fwu/KoHCA4zlne44uV57FAQU08TUFDMCotJBxH5VcrkK/fnaVOOjZ8aGlGIxCgWk80L7Exq2xTDMuc5ZVJZHWDWFd0OooFIie1AGzD6GcHaBoDgYKzXwYt8roFaHRR5I9vNnxOqTLbzm+vH9V4sJTK5IjazZ7+OwdtSRSp3tIEC3TtqhRht7AB39zQ+uH9ZjUCfu/8j9NYC7Bi0C3r4rqcnZ0VqNhC+BGMTI1NyIRZZocC+L2IWMLUh6IH1GHS4gHI4vwHx4fl9eefMW0DgIbSp7Gk2l348hhzG8KS9nwPfGiPmZAtoI1RyhZVuTgyBcAn9dAuxkmCMD+VLzofmqpDYuFTZIqNKhDl3J6f1YUK8FDXbu5u95GXA+cldw8AWjbeUG0grqnvs+k3eNBkRzOJTsMKF9iVRfG+0jR1WkxAVN/OdJYD0EImuiuibheULwCOUzbfcECT6SVG489vq7B9kxOlMXcWxI1CfjTL9OfzNf9agDj6cqJszJOHIWwos7yTod4ihSMjwy1QC3x88fN3sMUsDWMTXfQDSJahUif8jdcR0VOOm45zgBKAi21SbDGFK93U83vpNsYO7Hze0+dojJPXloCmDbFly37vekYyyaqvLL+kuK0IXQAAIABJREFUBTR2ZTKVED3/FrTrNaLxSc4zMCgo4MY1l3JPSad7bvhoPn1xectKGqw1lECxRhM1r6krB9cMxhVWDdbQwfKw+qTF0CCmKoaGWmkUp2tdDQHYGMaMMTR/nmOgp2N6DA1BgecCmi86sgKjxn4z7WRuQa2dhCoLpuJL5sMQ0LJTOUxONkyRksb5R05URGwgw41ggQrS16sICsDkRFNUdKoBlUYBM8P8WaxMqp1lNkGFIqoohhaRwI4lKZdIYxCmcJjD9CfBKZ+9F7Er8p6THbE8CEnA8FVkSkFtf5egIb9h3Rw6flaz6oOdwGcXZln4jyMaGJ0vux/Rb95vltPU+7PqBtUscpHnNTsw4PU9xl6i1i8WZJdsTLnqTHImc1WneZlwqWeG/qk6b60SoIZZROQIDhmt02bD8YfSLmoOF4uyzWi1npuABP937FE1mNG4hYwzO2np2vkM8j6gQEGfWJrf2oy7RZM1ntV8RFQxWsnhez3qiM+KvePznV9J/javEukLG7COMv2WkZaZqs1KUo7Bq/mDetaouVSrRFSZx9hhk1CDFzSAvi2X55c0Oa+voeGG1J8wTSH6WFsqol4zo8zwjUWLwZhJazZKmTAIcPr6ZXn1+lU5OTmlRBcBNDMUWozYxdI0H1o8aD/jONOShzqnPgXQ9EXujOWEbyRuBHaMDA44h/1GHOzi/FGCQYlkqTZAMz670IClXZ19yAYWE+q9o3pAjW/XaHaL/pMILyPpb39R8KA1uXCtWhAV0GwEHdD82qqZmbSBgMd/XaY8ToPoUejPR8AA/2vBS1ix+nka04JjpZIhKm44RHUX6fciM3LXjid25jubnov/7xTeGeTkPu5DJnT4omITwGs99sNuSdExiYsSbAaQmg1K+CnLdVKjYWa7Z4qA7g8gLXbGzkfoEZAy2+63EaDJbNM94Tr4u3W7r1FKM7c1dmOBg9hIYuOIDRFF9Nk+MF9rNwEBWtxLv/JiaIH6OgkvS7/Mq10nWnPID4OgJD+fEUlucMkqWc0BiXCUDF7eMDAQ81NVFMphi56fuFaMNdgXcgK1Ma5SDvzg6KicvHxB0QfqoS2XkQGQenN6vo8BmVtrzsSGWJnPUY2zbzzEoE/xoTmgaeGPAZrfmC7STdbKRJqERMXaCWhSHTWGRrPz+/cENDrqkTyYgMbSJ9QSIpKTgAYddPnQtKNqMfQKofPmfCG3g+v3ysWN5iNp0mgCoaLAM8MVIdRiEyjoITnY+JhQYbXHueICsei0qP1+hgBt6Du02QwBmnw/FRCShaoczEFNoOQgR9CHRlhtMAxICvWGuLfk4jW9BAs9EoUJFglodZdPxsYemVBmhZKtqbUKYHRd8v9VcGkATe8HQ+sDscZWoK5zujmp66TGXLJkMTRfaFonAmawnmrapvCj5lL7HJQUq+PdRPc15YCm2hoAmq6nmsnYUFdrphIJ0GJ+Rjcs4KbuEX41XCtVoAcADc8HJueLBLNTyAelyQlAi6fdD2INAZSOGcKAXYDmRMgB85MAzQfzwaANwLHvwloo9SGMJKbGaYyhYSFw8vUZGgANag8EvDUKcC/Zv1M5UkwePNjnQ0GpRkfFIwqkCBkdoql4oAmmSFg7QXv2upznaFpraQEVQCx6xvNkVr2bRW6aONB3bLdfJuUMQIAWJkPc09hE0Ni3m4kWrN9nyxy0KKDl3zO1bRNykIioc0Sk0SNS7+G73EzFolXeVJUHApipEUjOJywg9dnkc0I7N5VHZZoArstBqAcQli/IezPdOQKx9SgQoClw4Bubm7ZiaDA7Nf5DZpbmf2w6AehigBoXsRS/Zgc0Xzftd+jvSCQPs119CHpzF8wawRrWQt8y0TbmXjRQhjUT59pGn044/g8OmGOGhiyRo7tXKkM7OS4vX70qJ+hOr8J0yjc9rIIZA6AfAmgtkOk79p6bttECmpyUdSdoQG0M0HzhDf/eABrDz+FDAwMDQ7u5+L524wGgUZb7Fh3DV2y2yyqBBDQGBdDcwZq0ykfTmpxaHJrADiK6TwFDTIrI6HVQw3GKFlJTvjrao1RIJlrLJtqdTQyt3cG1iHQd+vtTAG2Ipekx+oIGoDkb6jE4M0X5Ops5pkgizNFM74jx6/xG3f0mQzBHuxYrUjr0jPj8oJqSm5A2IlyXpIl07QJmjL8/Q/rNUoiSm0uax/BBYTnyWvP3SHuJlKCYy53JGWxSkdgoweL9WO8HMu9MkiV3aRRZfHz9OQTIZbJyyjY5S2uBTZUxMO0BaPjRs+Icgx8Rqii3q3JzDXn62PixwQDQOm02BMoQfJmxTwDYF1UDFbiBEsd8Vo5OTtjp6eD4iMfVIE66YroNufNHD/CdqGrYSWy6T42x1fqcYXL+UEBT9GfI1NGltIxMIDh0I91AdIBWgwINQ1tdnZOhUWPsFppPAWj4B+zDtYmhAdAmUNrM3V8AUFuHIb9JjCCZVzUtXAUhfRKaXBXQUKCejmdkz1ezLYuYdTzv2fK5+uyl0xvrmFSnceYT3vOvxCo1ru3E0aLh4jJ1RI2/b0b6jgeAxgTVuD6dQ2xDLLMyuWzdpr06QANJ0UhjiIBIfCa+Ja4j6zONobkJ2tuIkCRtJiejc5ZF79dXF4E9QzHIaKIbJVu6Jm1mGlNdX3QP7/vQEDaXyelzRWPkZio+u0Fvzyb6jO9xhZTK7tPV4NFQH/sW0Kgpkv0iBGg4htn9Am1ord2gfeKGGQGQ34ouXeFLE7iAnQHQQun5ZaQegGFCPw/mLLrAH0Nj8LTso3VkmptcWw2g6TrH8OGHAJrWlLPpvT//sz95Vh6aM7R2UMcQeOh1B7PHGBrrC6EGgFSArBnEw1BQADssfGhgbddXV/wf1QKL5ZINUeELQOt6lGv4AGLC4WFoMrpJMWai+T13QBCRPznFOcAZqaosw0pv9ADc9HAAkc+FkzsLwDXp6yI3fTPfiT1fytmA75j+Xb5w9WzxXQIJBzuUgLWLVIDgjBWvSRyXz5YqrndldRsdkOK1rNHMjHiWqmX0jiwjU37IzFK8UNcNdWL50xyg27mJe2aruWxvp/HgBpggxjQhYwhtQMTfczZNcOEC7jZCXZ+PkRYdxz9FDXxj0u81SNEz4+OM2jBw7FiuV6RTRDcm+dDcJQT1ZoLZLfzLKFlDiz3I1N8y4in5J5ibaEC8XM4ZTMM/1G5OIB2FCOykFAQEUPYEPxrWFmtCkeaRarW+nofWvr+269iW8Iwd62D5yYA2BGZDi2bshn4MQIugQNQSAtCQsoGkW/yPtA3k0QDUAFoo1UBgwBcAfvdyDfdJ0WS0pEnfWZ1xcjBZRJ+dw2vOWYTX65h4NrqVGzlD03f0WFAmr7qp6wAm1kAGkImcGlsuaCukHnsW/twE+BonD2yw7Ua2gqs7LyJr9L8EMIhRsCLCU1ZWyQToR8zIHRMOo8u3unkTAKYhX6R7E6AJHOAPxbN1ltqyFx3La7L8sQocVraW5RTBnjLtQM9C4T063DOtA78zVSiu8MGw6rsdYPl7k7/owPZUQHM3iJ8fviuwVvehOaCxG1c2tmZ12p3Sn67J1sDScA2LxbwCGvxn6rcJZoZkaTwymJnHpycENoJZCjvOYeWYCfkYmNUxHjnwNwZoDgpPYWm/LoamKCceFgBNjVHA0FarYBlkaQ1D0zUPRQkV+STLyKib369AwwEOC53KEuZc5mRtelBWULJGG7sAjWCZBfcOUk7jxWTanVzXLkAbovxjm5IvGjGZAJp+b1A9Vwf4WtKTlQIcLzAiLChGnuGcjlyrWkqVidC8F9YkpphgmrjqdI7rkg8Nz8mDOnpGLTviuFhQwIGjVmBIsgogamDqjEDmvL8WOWsPZ7cf09ssEtA0D1pm6Gw4NqiHDM3H3J8feiTQ3EPTmDTfHdSVshL5gRPW4WKdnDMv7YqAhuMFaAcHy8rQDo73y912y14EALZ9MLTTk9o20nXQxkjNGLv6MRhab7yfa3K2u89zWNkQ1dQupfe6i+v70MZMTmnaw2/JoulMur25vqUDF7s7AI30+HDZM5lk2tWFMhDt1DFiLrg+X8C8fgo8ZmPgdDaLrahTkO/GYi+tyanv6J0/TU7txm7auZOUQGHOb2dxbir5M9CzbBmaM59q7uCDA4DmzEigSjN0dcN2aQCvALGUFtpOyKjhJlC0keKQbNuA6o7I79K5xNgqW0Mia3bubqPUPkYV0LO+FaalxkGbkgCtZQLOHPSeZ8HrWUaVxTigtefdgw+48cfq009laPXaezl82Gw6QJOEVG9tRkF0dhYrtGCQFXBxcUmtNBAA3CPAaX9/UQBoYGgwOWcHKH0KsQHIti8PD8oRWVq0r8NnWubYjsrvNKA9h6E9diM/BNAU5WRgAOsDShCraDCMXBuuQfoEluwrAEATDReIOQtz8BJDGyq4bQENhfTKnifIgH0gqzpz5Go2d5o51GFtooItoFdzEVLg2dnbJ027ACqAJuUXWMkEHHoOHiDxnR/jpe+qn+POn81mLbCg72kBdH0LeXQ0UAktuVC2RQUBGotEZLECGrs2xfMjqDfSQ/ob75GhMVo9KTNEGJl+gzQDJbhKmjvVbdGwhepsWQPiCd550z3WZT4sn5vyXWnTCXCMZrxDi9c/W4FtHeor/u9TAE3grs2E85EBgY6h6Zi6AWcwKrIE7hnpjBLCK/rRIOKIZwj/2T4Uag6WjHAC0PYWIR/EVKf9Jeuj6crJgMBT+giMBQV+DIbW26Q/haEJ0J5ibj4F0IZ2RM9DGwsKIMoJRoZFE4AGs+aO0Zury2s6hDHhA9DA0LoAAK5daRuaGO4zE6AR5BB5Y9SpnyxYTYQ9TGxvNhvd1x3Q6q6+QbuwUDXAQkepVH3YySIc3GCmAdDclNJ4bfjZTmKG15yOcB0ztPPr/ACEmsGfqIuxUNY3xk5+QBy33iAPLTL5nd0IaLigcsGuV9FKkD64rBZg8vFqHSYnzPHMy0NAYLWOsSDQW2oDrhUGvfxucHpH7wGkcnT5hOj4BWCLtApVhECVY1tWAuJGLDPpUmVNer5DjM0BrWN629qDIE5Sn1xNTekB2ACgCXAYcXV1Eok3ayysTE1g5XMCPjTJb0OLzs1N/s6OexGpvr25o8gj1sk1o55oKBQJzzA5Dyi5tR+AdnJcpkuw4nDfAMyQOcCSr/mM/mkGAxphhhbkf6OApgfYmh6PmZNubowdO3YjwyDmEaesCqOCal0+nPCsBLhdldXZ+15kMWSgow0Y/kUdWwAXmxAjopmyNJoU3kVbbEyszdnHEKBosro56v4RJpd6ci2d5AjwhZJtPdZqImUadTt853R2H4v3DeWx9LeFCeR+Ppgf/gycUMzLpKhVHVMnc1HAjNDvygFzVurPzlmC5hFTee6hehKAxsg0ez/cURWFUel7CV5GIAFyQ/L3gS34/bFzU7JePId76ymAZ0YfKQI/y2VPYol+L8pxhupFu3G190TwXHVt9pT+0MFUf5ny3A2jU9S0B2QKAqWCsTaZyhrNp6pcFpSMKQmZ32OBJDExNz8nFgmO++onuGIDwDmxyV5fIbn2mv1r16k8st3csURvnyYnygUPGclEzeYeLJt5RpbBzlKJQz7oGkxTUOVB1c9DFuuvDG0grRWkOTdEkPw1Rjl/lwCtu/AANPwQ0LiBBF1nCBoJgh/f9jTuUe7ExcHSp3WM2TaknLFIUaDu/R8JXKma4H60oYnv7G3oAXSsKQCEEzqBqgJRAtpmL2o8BWpSw+Wic+lvKxNqTRU/dwQPwjQVoGnnF6D5QxeozWunrOiFKqaF5he1J2Tm7vH+LW/M50yb4hFjBcYRjJk9B1ZrbkL4IgpypkaZQIy5g9mliQCmgvJ8jYCdTPUu6wlpAs3DR6pcKC2Eap5j6uSeIFDjnGqqEbTAcK2+oUVibb9OOXso1zXp80EbEsExcxDrfLBkXp7Tdpfqq0ynHHX+1Bs2m/BoDtBCytSWujHP+jpzArVuY9zj+bA24I65vropN6tbFpMHg7unau1ysaCS7cHRfm0gXA4gJTSrDA0t7LT5ux9a1sEQ6OyCtB8KaL0N9t//+Z9utYO3DG3sItzUdH/a0PG7bm4MGOICUy5I7eLwYgIaFglMTQCa1FMjHyoSNvEThbdsbB3RG4SWDdA0SWHCaPH2Hk76iRzInJEOUewe6zJAq2CUygcCNAc+XY8UYruxCXGFFtC8o5QYWrwWvig9UzAvRfl4zfaQMAGhwKtO68pjgtOXuy46ZMO0kIxPLxE2TqQx0b3je2OjALBn8+EU37xfhbLt3SqYtHIK4SoIs0cyPyHY2TG28L/Jl7jeRgRbgIYSHak96Jrqs8JinT0s7gczbZNAOT4spM9qgDhZjL2NW214zjrjOHcFG+9BOgJoMll9g9C9qqpBgEb2b4DGS1ICbQItxhs6eH7vztDCj4qm0GG9wH92e7MiK1ZJEySxDvcP2DjlEGbl4T7ZGYjA5HDJPpyouoHJid89Q6BaLxJi3YVeA+89B9B2YQzX0I8JaD8WMsd5Ilk1cCzYjCxPABpZ2tn7al5GekHQdOweUrpAvg0+y4cAFYHcyVpAaxmadvOWrQ0FRDTIOKcnQdJvYUmbYhl329tBhsbdtnEy456GAM2L3QniVdUDtXmRU4Qftfut19jMCGcjNC/BeA72uSNrJ6bDOa9taPJpTHTvAWgwfzuTG+wAgIaFi1aEZGxVYRhpN12TFbbDu+t018JsDdaL53FXuo5XYGgCNPft1t8RNZ12zXF8M3bGpt+1wNvN68E4pmiCAxrnajJsgZZ8igT8rCAZAjQFbwjcTKYNhsbrTTZWQdNSW3SdaiTm9ydQi3G+Z2IzrZcVXABh5kNumwbQ/cYAbUnn/xKy2ggSnB6TENBt0wBab5zkRvkNA5qTi72/+Pd/ttXkbxnaGEANTZwhxvLYfe1G5s6HJpHD9MtHp26I1l2f1VKnmBChZ4Wf8C8gQbPfTEQNU/XdMjnbHYfgYjV5LVPr74bdDi3WRabS7N68NuRkbcO8qqzLZJ8htOc/jKTZPekzYFaSI2ImPMyxrP/zBhwyj6pPwk4uv5mYKQCfReD70QGb0U7rs7g3Ik+tU4oV8nzWkKY2nMGiSv8nGAL8auxNQAADCHcikdExKxY2c9sQFU1Aw3ULiLF5tf4z34wwnJtJHK/F1wJZz7nuTUuS9dTn1BA994E5Q/M54DpzAO3KxBR1zLnK+ZvVC8F2o0qEDC2/twO0jl1qI76z3gYxNzvfK+cDfcvB0MSQITdEnzJ9nvflAN3QGeWMKOZiuWBA4PD0BTc51GyCvVPJ1jTg6tr/NQPaGJ44jhDQ9ACeAmhDu9pjwPXYhWhA/NwyOXmx3PUAUHEmtk2Dk/nqe+7y8L/QzAKgWaQQjlAaBekQ5rnM98AJblr2LYANgZof07/eLhyvhe2Axl051WfXm5t+sMAilWJoehauiaWdHfehruwVvDahhovMdb3GBZDuR92Lm09weldzm5IxEAWc0bQQoMHkVDOVIUDTItMz1pjM0MgktdJo1qZZxmDOzW25ub4ptzfIf1rFsyOrBKAlyK2Qt6Zi7vBHigHKD4pnodwpygpZFNoZ2hCg6XoFjLXczM7hQYEw/SQ8mp9OgQsfAwUF/FmJpbnUOe8lNzgxe4kWOKDFTakjXZaEWb1r3agsIVjjoLmPDQGJs2BonBu3AXBgdTOAFmtht2WJPDRsZPuLMoNUEzY21G2+eEl2BhMUDK26IHKTqPevAJgt+DFS1GJCD5RMscM/P3Yuf50m59iBDnDthPULkikwdPxTwMzPrd/dh0aTE6CW/cg4We7uy+3FB+7eALTo2t13ErHBg+1UXFSZ41R37JQdbsG8BbehHV6v+YT237WQNbmVUHpf+t2g3JfiJieuSSYngTx9Y/hfvTPF0kLdgrBVS5BwLQgK1J095dAZwcQ/mOBSh11Exx78UyheCZNIo6ASRQY5WhAbmoxeriRgx/8K6EC77ub6MlwD+TxxHvzNf7chmBnnnoSSSTIc6W1h/AG8EhgY3GwA2qlw68xN1yymUVN4LMfOnf+M3KYnra6XiBjU8eXom5+RRMFSMfCes2pFwf3ZyuQUQ+N7OEeKXPIe2YMzlGbr2pn3Zd3jvU6uCIAGVszxxuawjlaDU/iVmd+3F63smJ4xL3PmmaH94345OEKZ0yEZGgrTXU1EG1XuWFWM1OdE75gGECogDyhuDIHeY6BGQBsDnaHXnZX4+88Bs13f1w1EZ3JyQdAxGz41MB2Cw+qiKtQGSwvg664x5F60Y9GnZflWPC7LbFpA02eqOWYTSOfXAvIH1tut03yszu3UCHsqoMV5u0nrgKagQFdqFIDmx9NfBdmR/BHLwP8Aqz02jlFDXzG0ADX8U3a8ALk1oYcmnMZxNsdC6SKjsN7AcW5vYfLAMY2a26tI62BUM/xtWvB8vkzXyCRkpHJk5HOdGff4fl2nAgQOWrwWuKDSh9YCmv72cwDkh37E1vR8Qxq+c71r3sKHxnGWP9VKCdhR3nobqE9FbMYR+BC7V0BLgIa8RYEv2Scl2Dspo2K+4biWLlgRCefY+DP6j6A4kpvhd10Ek47xi8J0+CQBYFFdc1CWCzTq3ie4oVKAW0yj0PvbBjStQZqczwG0FsR+LCDTBYXvK2dLLf8FoMUuRUBLUb7tHeRP1sx4jm5PKpTuIj5sGZx6+kxrMDVNPpQRQCMLykXtGfVio73JZIPigKaggCa3dLeUh1Yfgu3qnscUoBqKtWGGdJE/pTXImdy1u+t09XmtaVJXUEdCcfrHplAfkdy16laz6FpF6PG9YR7hntud13dYZ+rTyTx2ay76uEHcyer2pvrOoppALQGj3Zo700O+W7JMaXJmITvrKDNQBNcCKgeYsS4XQ3a/imhGK/fdbRJucioT/gFQ9wrWuzmkMdVzxP3j+bWApjGDf1SAFiZnzNdqdhuji/sIwU4AuNZFTfC1Lum4B3X78muR/xifZXkZo8uoqkHEc83etZgfaiIslVpUBxydHLMIHdHOg+UR/WmYNwR2K7vyzdx7HbTz5DGMecrxrWXg56wbyn/4iz9/FqDppJrI8lU8dsHt+0NAqIUfO2d3WQ8YmkyUBLTavg40OqNMotw9kxPvNQyN2fCZg+VMBgtNooJuWg4FCvxeeoNuznxOqszJKtOUylGO0wigBUA8Dmjc1TPxFAxNeXjc0dOUDLMCZUORIMlqAPRZULh/ZBYISLlYB7TUBGI+L7igaa/JgRcV9mSV9xGBRSei9TpaDrLiAbWwqudMUUT2g8zCdmmXxfUES6/RwlxgvvEQQLMUaDvp8sicWeh5e7oOfES9hZJ/CMwxTNoUnwtoYmi+CRGwMiotlsZr30NFRGjHIfkVVRT6PpZ75XPVtQLQfJ6GX9zBFfMvtd9S6BHsHYCGOREm9x7ZGbTODk+O2KoOfrSj/ROCGVKc4rF2fumnAtoY8WmBTH8P4ckuQKvkAID22Je1SKjdAp8bpJ5PQLcxQHOGJlnmUOd5aHKKoUmlNtQcgtZ3ky17OCZbYFckfyCWv+OAhusQQ9OOiwH1ReN+NX3WB71NfpXI4Rig8Zot7B8PNximgEVmpzM0HpeA1uahiaHhugFiSMWQdtX0YBF5VgkOnnYhc6p3PxZta+eET0Rc7/3KlGlTRihs4lAdZhmUARpYFM/BRTgtM5MUR5pBLwKYdbtSAtGzrru0P18m1j4ENL9eZ2kq48E53YfGblOtOGMubl+Uu3xoYEbV/SCfp0kuuc9tOokADc3FuzVBjeN6fx8BG6TWQKMsm9PAF6b7EDFQUCX+DkDD56lyggjz5p7lSwArCDrivFR4RuNg+M8OI21jOUNkEylPkNjuFHl9zvP3QND8NXZIfyZjIOXHfSqg9Riamw3trrMLmwQMO/FroGNRzAOtjsgz4wTKqFycL2JKvYVjtX5MgLyLYIBUatXYVwKKbFeXJkioiw5rVw1dvyJpAm2Ni4OYGAuvO0+yZ9FY3hPTSbLzOkxlpHPcxXPvQD18hGxpl7lrzj54HvUsyGRNgbaOI0tjMm93N3w+6UTmLrxccIIygoVs70WYhWI7rCulDNI9U05U/xeO702ZLaC4kD4tOADgsyQPQ4kRm6lWBzkiafjhO6FSyeeJoIDAuTYHBHtL3xNZJSKrs/Dp4B5ub9UnIoQzJ9sIEoS/LUxRMHOYyTGV3OWQi4rpXOFz4tv5wLhBsSNVrMfN5J5/Q90luk9lkXtdq5KMxpiEPdvNEQRxwjx3/bRgS9syzc2Wf2d9Ko5nsrGYarJ6gtPeJGp94TPOnEwFB2heZ1cnghwYdzZswQiIBeK8OFckoEeFCmpgQ4PuLlvxpczW0REBDU2DkYe2v39Qlst9iqNyzZoara+LOuMa7bmduJBvDgGYv+abRYtTQ5/dc4bW7rK70FInf9SH1gCavBd+cTU7PqOQY4DmiZqcIPcrTgSZnCiHkmkiAJJ8D023TwQ0Z3TaBZ2ZRhQqfkL2Lx3Dm225g4l1F4tb4DO7f9jQ2B++jhM7esDOLCKkxaL/UaTfMhXq7y/mZcYw/ILKvYxgpuy4WF8tmL/fhC9IpjAX2bZs9q7Dn6ftRlptxOFsOowaxHQJEKQYyIloH9DW7wkN/rDRgCTL96SiZ6TTAGxwPEzTSLaNXDQm2WJsmZ/Wqc/GfQvU+kIC/gzxuyyB1gTdTDuZcc9NxLl9zoo9o65K5rwYlDYbf+b4PpSaOavUuOO4Gtyx7H9dJ8csqGsNGkRgoEuHAfBobgrQfFOM1I3YTDC2mi9hSs44J+b7h2zKDWkgbH7LBeo2UWETgRJf82NkpvpAn4JmxuDawx3InvPeJwFaC2a7wK11zQjQeuCZZhZpS5qAztC6m+uaXXCn2UTxs5qmMDBAuZqulyEfBOc5ufKDYR4DZGdovhjkb/EjFlWOAAAgAElEQVTPUR2Cmfr46Zgl1TTu4fQOQBMwCdAcjHyCVAaTQQCBgEzCziwPkNTx+I5p6SarFiEADb6QYGiRW4S/sePSJ2SqtmI+ZM15K2lEMCE47qMbRub+0UEfneLZiANSNIoAkp1FPSf8ZLMJomTGpDJaxlfJzlByNY+yq+xWfneHyGg869D0imsmQ8uu6B1T7a5NYyom7WNMRttE6/jCPHsbZOKo+6XaZxQ+wgBdgYmPpT9zvD7LoIC+W8fq2muenZnMmvsBYJ0CMcEyo7wRoYz0i2o12NzB60qHCdYeTYnpUoFSBgIqnBsHrN88OT0hQ4Mk02yKZ9FlCjiwDWFW3VibN8fI0S7SpPFrj9kFdjsBbRfIDoHaEDio47LO5cnWlUlIVIpWS4W8ahd0N9S3yyek94jYZBeobGEn39VTNolPAbSHE7uvEqKSrShPgkM3Mvk5CTGRNtGfsWcu5uTUQ6ysycL+ztR0b8548NpiuqgAVxcDUjPAzNLM1P/YmWn61GuJzloyQZVWUJnJRIoeSDHIbPZUQ7lLhQz4uhhQmcYC24PWBUzuTElgRE5VEuCzPAapIxFxlnoGFpH8WffrVUSxU3Rgb9uNHwBNrCfG5yGgtYsQ16Vxc1Djfc7D4S1fqQANz6Nlc0qtcEDTM/LnUpn5DkBztvaA/aS8tp5DmIvhW1AOHgUeBxJSBZ5Kh3Hg5WeQkIt5g3SNw+NycnrK1nQANHZVp0xTsNC6hgfcSHpvDNDG1qKub+x9B7MWyIbA8JMA7algxsXZXKkDGt/K6BcvDmUq9fi+Dy0uvjsbrwG1aMku6EdTT07oo5mQ365d4LmANhQE8YGuCcHYteEDof/svqcfpg7k7eSvwGHij2JjdTJnpyIBX/v/Yrbs3bt2ZBaep3lBfxq6YGVOEQEM5qBAh02SoxpDE5TfD/bMRN3MC4Tfis8rzE2a+5DaRsrLZBaVC0y3CZNTkxcLEqYi/ELM1Z0gLy4YmfpAzBeRtY7XAGh3a0hGZbfvTdeJvjU51QlcQLVrodQN1aSF9ghooalWGV76suTXIiDm5FZaidgR/vdFSvaucTUfGj5eAzzWq9MBlqAYw9sr28JrEhwgo02hy6F71T0qNUQJxNEkeVIjtkycPYZC7Uk5hAYa/Jf0yYX+nG8KY2tGc3FovY2twTFA06YzNs/9db/vnYC268J1gw5uz2FoPcRXesNIUMAZmn9uswoTCINCDbQENPzuOWA7KerIbjNmcvr9+mLXd2w2mTOU2AtAA+txsJqXflZ3y7IEdG6+RHlKZ2r5Q/TJggihIm0CXy02RLSo2Q8zD/lps6h1DbAJFoUVpFypW5TIQKeM2wzY04IgpbwvAPZesmT4ywhoSNhEjlXqUHSEO7s90QGOVIR7Al9UMpRSZlCgBaAtWHqDBE84r2f4Diw7JqSuCJi4Fo1Na3LWgKqVMPni0EKoLDHt5+pKaGTGnS2J3fgcpHZb5k4+ZHCdRBQXbrYvdDeB/G0yNysQU6hTYxZP2/1mdf1l+RpMzv486AdGQh8whBtUzobzYegR/GDTk8Pjsn98VPZTbYX+TaaOhHR4yxyH1rsz37HNxF93f2MPmAaipU9iaH/5H/9itPQJJ9hFNX1xt7tdRdCRoIBsfX6HAC1lUuLGOkamgZQpp3NP84HLn6LgABM4s0aQA2wCihq0XaxtF1jjc+5H0y5K042lOdl4GHfA7410Ewet/emyMh9NZH+/NVfacR4CQN2XAK2yCyWaIoEYSrPJRrBDI0uc4CmxRRaCo4D8tlzd3pbLq+tyi9QKmqFQ/52xPAYyM9DNQpcfRDABOez4Q9BJ1pxlaATLrZJnA7zuubC3ZQX11FvI2NyXu70NFxbyoNBCLc4/LTPIQiNNASU3aPjL/DWLlN6HQ73b6buSHz1HzTX9LfNLG4QWFQEpAc2TqtvP6zwxD/uOem08vrA11xSFVwSyNc96zzVTQvRcBWbBuKP8SdcR39ldhwBW0tjO8jVf6T/NCgHKaR8elBev30TQCPWdGTACDiM/bejHN2mtSWGGM1Vf6w5K+J2gOlD2NARej61ZjsenAJomzxBi+2u8gB1RTt48Z1X6xkainN3AmUFKUzXTHAgmYGloMoxIJ1p2RQJnnVhpsrbAMcZC/T7aY8R4fOfvTIsAtEgDCHUNlmwp8FG2ZbY3r9fVMoX2+txRPAbG/vCnU2TL545O71TNJA6hQwEaro+mRKZ6bNAxHJnk9+Xi8rJ8OLsobz9+KJcoUVpHAfliDrBZlNPDo/Ly9KScnByXJRzKqKnEzp9mFMzMAC2ZoBGowXWusqRptb4v1xAbvLouN5C1oSz+pOwfoMcjFDSWlCpfzGfl9elpOUId4RaVBrflftMHNGc3XvrlC15zFtcgBqpx03uMqkKumzLjXSkYzM8QOhBL4W/mq8zxTqe8QCMksJRDGSk83ECUgqNepPm8eos4c5K1hgi2TDkJBWbkhfmPxltAguO9eYnYI787GSV9lih3gtrv4UE5ffGKQQJExOlfTRnwLKZ5gGnPAbQhgNJ4/tYBTRfgzMFZjd/oYz40gtojQYFxQPNwW2Rcq1idu2E6TgMk4MfpJlTPNzSw/fiu3L7d3rdAKJy/AWhd3WP4kFyJdlKCGfV25FwsQ4DWsa++M7sFOHwWZmHd1S31gvdLH6WJFUILK1kGMvuRpwRw+XD2ffnm7fvy9Xdvy/cXV+XmbsXEzvkeMsqn5cXxcfnis9fls8/elFOoMMyRBjIr8+leNXfhl0NCKJvbUmwzntWaiaL35fr2jmB5dn5Rzq+uyll2JocPbYnOQss5hQZfvTgpP/38y/L6xSnNXfjTVqtrjjHvKf1p3e7d1e/6nKz+O6ul9AWFZ0p/nVrnZWKvggMKULQbtnIedS4xlV2bT8vQ2g1TgMi8RG7yXQI7QEhKKAIvHL9ONRJ9L64bbNfdDjhObJb+ysxLxHGokDg8OiGQhf8scgvx1EYIWp1nDkhcz7lpaswVCBpYZnF/T2RoY593P9wnMbQhIHOQ8we0K8qZd1P9Xcxar+y2b3LGjfcZmron6UYj+zzUN5AJrcYa/CwbimSrudwhxxySON4BrVss3ZD6g3NAo7/MRp5szRQv+DkkhtpDHDqXA1u7iFog9OsDQ6sAiDwwS9TFcWpHhntn0XakTNJJf3l1Uy6ub8vX37wtX797V759/6Fcw9+FhNi7+zLDvW23bHP25tXL8sWbN+UVmBpADY1/p3tlFhnDDAYopUbF17iP8J1ty+36rlxc3ZSP5+fl/PK6fEj/Z9STb8tsuldOj47KF29elZ999VV58/JlWc6n2cvzpj5LAJoYc4xDJs968raUVHMTcZNTC2oI0OQzw/8q1G/Nf5lzOk/73Bzo8HtsekoGDtY6ZNKicFzJtNV9kKkbqvQIH1hINmBpCFxxvIQvBSb6XjwLNg5i4iySaKPonIm0B4dwqFWZegGaWio/BZD+VQGaBt4Z2higVdAji5DJiVrLh2kb3W7XBzT4V9wPwWgd/TJRIwgfVmiEBRgCbGRuaJccAisc7xpeEdHKrHjWKXbOWmVPVwcu6XxcMSc7U//7PrReTU3uUBq7MebW2ySaVA6/h8kkTBFOrAQ0X0gwK3nvWVmgMBrE/87Or8rHi8vyT7/8l/Lth7Py/uKybKfzcj+b0oG/QHjg/p6g9eLksLx68aK8Pj0uL46OysH+vCyw8BWRYyA0xRkzyofHfIfFjN6cm025ulmXs4uLcnlzW87Q+Bb9IWHerm8YUD1YzPkdv/fFF2RohxAdXMzKbNqlgeyVCHLIFyPJKIGc37tcBEpidRDyTcxdCvKJCXTazbzd+AQcvrB7FotFNGUqezBB56NkU3Zrr9eDSgjET7LJcrSuSzXebVQb6D7Yi/bggPNA96v7BwsDkEEOiNp3yyXNzMXyoBafB7GIfMExQGuZlebuEEOTn9LHzxmmnkW31vspWhrPIVDtseSn+tBaWuw7T3uRGjhOJs/CrEUpHQMKxpLdkB6pFOgWbvgm4Lth6zOVmmSkTaYnAI7lTwShyLHCwoxIXN9R3U8w2av5vdUHkvcR54KjOwac9+55Tek/i3vvUul7D3+oOS1ZYUwgMlH6L9LHaGxjjC3qQQPQ6sRinVK8QxONZiCy6+/o6Je+GPxO6M344eNF+XB2WX75zbfl/fllOb9Zle0SCgszHr/I1A6M6fHBfnn54ri8PDouJ1gYi0lZIILKPgV7ZFj68pBGj/y2LUuNkDM1rYGH69tVudxOyuXFRbm+vio311f0gy5ms3J6fFQ+f/WK/x+jcBpyNlPos6YsOztXhepqPI8u8AFfmOfZaV6KIWkRuftB5VHUHJNicd5JnefxRb18tQBOdfLq5MJDZLHb4PBsBHrd9+Ka+5I8rK/Q2uEUizw9fB7KIrzfTP6Nms4YYxZjgYGxB8BB5Glm0ESVDxQo2F92gMaqkWmZLaMwX6kiUSMWbHvoZwjQ/Di32tzvrnWD8fQop8/toXMPYRDO9QDQBq/WbNt2VxoCs7Fz/Bivj7EopoU29jf+RrRTDEw7FjIuQ2PLzE6odlb2EA587S7329jt6o9pX3kjk6Fr04Qdu/f7TXaksgPwvZiYrTkZCPfwTGMPF0DhrDUAOPoxip0yAoy+DJzsAPkNzc23H74vFzc35dt378sthDPRho5NQ2Jxb1fIL5uU+XRWDvYX5fjgsByzscaCKRdIsZhOcB/IQO9LXmPS0dwxZ7VEBbBwV5s9tlU7v7goZ+eX5foGLG1ajg6O2IUIaqoHy2U5BhucQgklOj55b1WNn0YrNpuMM5uZ1wOwZPnV31NSlSTLrsQMhnyqPP9AOZ2Asv1/LEUB49I266V8vPT0sopCIEpxR3jq1fx3Pqf6LJ4Nm79k8xtF48G2xAaZYI2Ai3TPULdpktqDwJUvtmvNiUu7DjSPe89i4OQ+V/0cLav1sWxP88CHtgvQfOHsArYfA7geA9b2fbaRHXAoVkludSpXA9zMYtcgcpHdRsSsUmI55/c6szJYZJpxcNBaZ592oPUg3bfy4AG0YJnfKfNG5+S9jQCaH9s7PzS03CRORgkAwzVFkXII/SEfDFHhG6RoXN+Wj+cQzATQFTYVhhoDS7pSU227vmffxgVLYpA3NmEpEzLJF6zJxN8hFjjBL8k65MfBeIslaHfmPSKRdzspq/WawHp+fsHoJ1JIeC4KRW7KcoYmuPvlYIZ8qlAPkbqu0ix8IQnQwOLlNxNAyYzDtXmUFM9ZgQBnGIMbSKZQtM93jGmMARorK5ACk1SuY/1J7dh0JiKczO7PDUaAxs9mqRjvCy6TLG6PdI9gQuBZ8L+x0QlqNZdL/vN+tINrcERBw9eej5XO8eBZjABab77nMc8BtN73wOQc2+2HEPMxgNv1cD8V9MYY2higyQmtG+U1UxE0mm2IvUUtYAQPcGyPFhug8fUMv+Me2s5MPqBPAbSy95DCc1dNVtAbJ6t48NdhZg1PvoygWj0r7w05chnhY6OMBHfIMoMNXV3flKubVbnfhAAk+ClNXqwH5K9h998WAgojfmQ8qX4BbXqYQWpIkyaR4qkwkfADs0i7egBLdEDHolshB+5+U25gfl5dl8tLqNkiCAHf0Iodo2jKAsimG6aJAMzU8UmL0p85v6tAICACRbhnMWF3+PcYdQpZ4jiP0o0yl4HEbF+MvuG5aeTnw/cIRDm/mJ4RSc/K6KfyB+aHTOEUWlR6CUBKmxxcOIiyV7/fNHyWOBe18CA9hAhnI18+vkl2YS4HsTGG1pIMbSJDY+jsqrde8+B2bQ0+ByM1jHLuArTHWNnYZx2lPxXIHjvHGKCJgflgVBmfNDMBatJXl0+lh/QT62yencnVUUoL1++r3a1w/vEJMgxoQ2M9NnajJqelhMiErgs2Q/tyEiNv7+YGar9IVkVC7R2jXMv9A6YGBuCETDlMIEQZmduE9IbsiK7mNRFECfMY0dPJbF6jeQJrLW6lDvReR78BVnxAgfiWrBEKqxte1w3rOKmay2BBKHHgWtTxSSabP0MFClZIO8leBfhON7EEXPpc29hGTG4wIq4SqOYhPRfQ9B04jcYEfkYmy3rZUypsoC2fegqwjG0+K/uHh101CupOJZuFs0xDKBObEjXx9qMTugRMMR5izk9laLjO9j6daQ2x1MfAyMF/iOWNERv/HAFtLOfqx2BogxPhmQj3XIbWDkYwrFC+EDMhS8vmtgRAy+Ph9+11HdD1frCMTYGUsj9QDah2LAHI2LjutRRvYEE8tlGMgeVkL/xwlW2mL5TSy7wBqGNE2sDNOrouUbqcyrBRBQHJmNCR68pdYObAVwZgYxKxOtJklkbce1QCYN0hH04+O7EOjZkYogAH340qhKhSUHei6CnA2tC7VYpQBrteooQrc7OcZfiC0nfh3JCw9tQRsSFPNtUcE6DJtyqAGTIXw3n+MIv+uYCmlBABGk3IKcQUU3vN1DfYVpAqszDrw49IXyKKyVUtkC4HXUekd0SwIDo5hfS6NgVq42VlwCDoGFvyua7n54AyBGRPAaJd52gZ3xh8kAn+9V/9xwGXc3ykvZB2kfmi3sXyeszHkP2puDY2IKzxq1c/cBuMFAKYFEmVKGBOcHURysgnTBO1mgOgufnYZfp3Jqffc/sgd9FsmZy7xvOxsVHbtofHWdJump0CMAKz+ddW9ytqtYEvwrSD9wVR0tk09a9CbZJfgXVLGZmUSqI1RLdOqDww9UzmMcxnRFtTs8zHxiN8mmMERziuoXu/xr8AMyYj18ghfodPLzYULX4sKjm/Wwdz3WBMUUSfc8DzDVCg4CkVSrhtN2cBWrvgtJG1c0JJuz1GkcEgZ+fhg0xQU1SUOwWYbzAyskx0aEqxzgnEOnPDIjM3ENJ1wpUQaRrBsp2heeqIj0ds7g9NTo3jENjsArAWV9rPD322fW0XwO39p7/+y521nEMLywf/MTNJk1wX0TKbxxbuELB2nxkOJ2siO1PhQ05m4ixNvRIVhaM/jYKNIc9SF2ktXeq3KvPrf+xB6lhnaD5+bU6TJs3QGLlUdO99S9vAvfGaTObZ84Hu9uApC8BCRHGKwnY25gg1jdA+iXHjWEy66gaOcS/VIJibtpUJATL8UHoOZEvrdWW33etRYRGmfyjmxnPItJjInanPAw7vXtK0MdLBBZFgy/XesBcc70wNQQHPUfQcNwc5zotEep/j+F3s2QNDLWt3f62bezI/Q9onAgVINeJ1I6o5j54QNLFRGpZmt3erwj0ot5P3gmtie7pI1QBDY5oG+wikWEH6cH0u1Q1ih1zQUwDpKeC3C6Tqusnr0Ng5UarH7AK0XWDTAtkuhqaJxIUzEuZ+CrC1x2xdb9redEDTTXOPyXIZNlnN3Bz5z6JpR1f/iWYeDmhqCst72BHl9Gt8isnpZkF7f3xP/5o3x0xOMCYfb+9R0Kr5EtAofIoI5SwwIxKgqIoJl3pmPvCc92hkojK1moOXJTKWb8hFnTyqBTQ55nU7ArVNATsOWW/U5eL32sGplqMCRDdlPokSJfni5BP08e7mI1Qruo3JF4EWUS+qmYzQ/XyaT9oMqqk8Amg9UzqLr1sg9XN5gEJrBIAGf6ZyHLmIqWsH/f+QT2cKDDucL0uZRw4gdffUKSs3cJyTJWWoDDg6jM8nmDmgtWu6EoJnAJrWzNBcfozNPZUQtBuIY89OhjYGMkMMbRcg+SQaovqPgdk4WJqA/sBJHjA0Mz04oaqM830VD9RE3m7U5DZ2dRXQC9CGAg/aiR5jrQpQjm0KvfHNguRBsBu4ZwFanRxKWs48PDebAGjbvS3NQ+Y90cSLqgjeJ0CN/4IpqemGvjZypbBPADEiiTW+l8Zr9keIJGQlI1NNONsKxvOJ4p3N3jqOv2OvweiNkOeiskReAwrq0fBY4Fw3pBRg7K5NFSLx6NpF4HPSAU0NY8So/HMaOzE6vmdJ1TrWAU3P0hkZjhPbEyNro5xkZ5nKIX6KcQCQURED6iNUqp0zMHKH58jUmWh6Ix8g5rNy/6CogSJ0HO+A5mvSLah67zsW6FOYlW9eY4D3lPO0Y/lshjYGJD1E3IHePg4+GcZu6jFge/j+4yanMzQG8dPPI5DS7n53i6LnSGfgZL6Pguo6aNYer+3M5CDhvojR8cugwBCgaUJV5sY2e8PyLUPjJUDrvZdpG5zkWbDPZzBTtnAq+NHUVNesTKtIszPO1xcvrGww9xVOSmuV5GPtY+QLiBtD2ZT7ybrsoS4zKugLLX4CYfiOVOO7QcoL2wH28wTdvOuxMBXfJ0i7n61lTZoTft1D99ADwBFA0xzXc5T/DH8LhHFuBzRtiJxDCWgEx5QSor8QZU/oD5GAppaEADTmBMJUNbNZ0XalayC9QwxNzNCBQtfjINRW+/jcaoFonHwM54yK/T4HEz6ZoT0GaL4gx+iiLljvazK3DtbHGN7Q+7usV32fJm1u8h1AZV6ZJhfBLDtL4zW0WGsBre7+RumdqWkyPMpCMw+tx8QsktU7zwhDGx+vh/rvZEeZf1fr/fB9M/i9FPxoey2m/4yNTdTLQUwnSnHgQK+5v6l/JvUOiEK25ibGU2CgeeGAhm5OYTIheVmMESyIinLhi9tDt68uuOHnETMSu4o5Bv2wh+omYu/uj+Hn0IjFfjQH2qhnndcDgCZ3gM95fN59daw1tsqUB3loaXIyNzFbx8nvxaimARoYF0xOVHBA5ZegmaVm/N4MHihlQ6a5Pwvcsszg1p0hddyhOfdjAJrAbAxDnHW3YNZeE6OcYyca9QEZYxgDvcfY1i4AdLT2h/7YObv3U4eqF6ntHMu9CZsRTuUp0Y+GEqnVdXXGxsLN0ijsmEbp+7M/St9aQHvIxMy5zmhhJAtwwmehdR1X2nsPQWpsQ4CJ6MxDkzPYWbQuq+ZPCKI9+OmXYHX9NREcqOWFyTT0fDQ+NC/VQTzP7M966LrxPhvpZkTBN72h49erG3vUUd+I48BO1OuAB6T2lxhGj7lZIME3pfhY12RH524XbvyddcKN/5DAoKRh66kKJRQFHLz+F7l+KqHCvTNJGIDWiHLuAbSQ2Y+qAJTJUbo8cvGOjo66BtL4rKLRGfRQJYWStzUmblGMzanHgMYnkM89tzZq2tATF/EYc2ufA07nGPQ7BWh+YT6InwKaD298GNAoHZ0dhFQSFEmjkVlOU6ENAjSA5oOvAcZEcTPIBx6g44tLk6p1DvPZR25E/Gr/7wI0bQhuPoiJimnwhGlitnNMk77dDWVq61rcfOuxWZw6W861YD42n1tQ0T0M3SfYc50T2TCFwEqWkUIHNH+zEY0Bq8+L9v4e3K+Bkc/H/jn6dyQA1Bi5hYKUmDr+xuy46ZgCbeShRQMZyqZrk0Nic1ZqINoJwJPJCUCTTpozRM0BNy+VR+iA40DePqMfCmg431iVxNh8+EGAtuukQ+/1EPEZ/p2ngLPO7Qv+UwBN36XzjAQLw8RJJ63qHAVoinp61IgPXvlrAykAulaZPw92EI5Xl+OG9wVoQxGnkFN6CGjjz6xLb9Bk1iJz300wqpRFbU7mi9AX+RCgucnWAwS0E7SUCGcCQ9fegomDZXu8ItC8ThN4jM70EWjgj1q5WS1iC0xj30uANEBr55MA18hZvcwxFtoCms5B008NkGvvgGBtADSxqwkax+yHDwy5ZOgLIUBTTWvtApX3rM2pJQuetelrbuzZPPX1br31/b7PZX//6gBND/spINgeMzQYY4CmpH1naajvhCaX8tUEaIpMtSbnLobmgNaxlX4+l0BNgOamvkT22vOMgzz02LqyFI2N+5Uqw0CaxEha9RB7eQ6glfRFCch0Tbt2eweQOtZDF5jpOhyDFMvE/aGd4a8b0HxexhjFCPuYt2OnZ4Agiu5LyhkCTqpn5A/HgXl/e6y5rObiEpply5DMPtgn2ImVAdBwnABNc8g31koSBkjIrucy9t7Q62OvPYfl+ebR4oCzYx+v+jt8aM9lQD8GQxv7zhYcPmUg2h0nJg2H5gE+gqEx1J0sDUXMWBjrWxRHp7/JggCcFGZyakL6wHtYvx30YE2WsJuLwc1NBzSTNOurMYwgfaRZdIXJvrgEalqAyPfydJRuIuX1wRGf0d1gdF2kCt+xy+REUq/v0Y+xAIG6nr8ntz641W3XRasFNCjv1mfxRJMTx7vJ6yxD7HZoTsV7XWKug7bmU5+xdIKk9JuqtAmsLBVNKuMNpypBqybALmZleRBpF+zMlDlpYmkCPpdU0lzyeeBg2gLE0Lr8FJDy8/oaaZ/lU4DUj/nvEtDaXfC5LK2l1/H5YR8azBIlcGIRCdBurs6rv0NNguskHQsK2A7rk7VjZrHEIbfjFFwLwf0c+gyyvJ0FCIzGx2RTfS5DC9X9ets1ooXDFK1lGb0FkSDsDuD2eFYX5Kmfuim5YoYnzo4BGsc4TU4ybCqn9E3OkBzvQM4XhJ5B6797KqBJ0FFg3GPWVp2h95HFXCs1DNBwH9Txt02CVwyFjfShkb2nyQmFEfTRlGKGAgP4fpUzDUkC9UAmB9VdBmMk4zmA5vP+Kecem8d6Bo4FY7jQI1h/9Zf/oc7oduHpRsZeH3qQ+tL2s+2FP4WhtecY202Grs8XW7dLRZMU30lRF+hMA4EBNCwGoImhIWFRk43h9syBanfvdsDHosTeFkzXzhyjVF31sQLe9NRxpddWayy7dAvdV8sUdJ0+MXHPaITOaJg1Ae5YWtdTUp8Tk/Xnoomnc8ikUr2lf6cAe+j7cO8CW42bHOjtbo+azujEhOhwJ2gJZn23xjMOE5C9PNkjtM+IHejbBbMrGtfOv/BJdia++wk9+KL7hQ+tzvumPhJJs7pOXntkr1QfWhSgL8jaAGiHx0fUNVMtJ15zhqYx1FzwjVALfuh+nksehhjTLpAaA6jHPtN+zo/3Obb3KYAm5Nd4SrkAACAASURBVHVm0bKi3zagOcLHw83OTw2geRkTjsMuzy7s1xfVhyYFhupUN/20lg73BnckYBKpZQ8d/UMAKJNzCLRbAPNJq+NbwOmZw+gb2pjTviG1rExUUZtCe6yAgpONhfB9E1W7tz8bvwfNKwe0oZ06Khikpd+lbeDZAdCq7loC2hhDaxcj/haDGlpgQwBAzbYmh3AIMLmBZL8HAVaPWaS8tp4hK9AAa6mKQea1v6BMEExOqGaAoUmkUT60tj6z9x2So8861KH7fw6gfcrnn/uZdn3tei4cu+cCmnZ7nVjJeS3d/l0ANF1jt7iDofmilqMbx+B1RMrA0sTQuGObH4mLLv9u/S5PZadKCB4CtfaBKSjQHqvj3Pmr73eGpsXltYOKfMFxD9CpTIhZ+10e1oMFbOVFLWA+mKhgRgZouA45qIcADe9XcyzBvjrQ82b1HRCT1F4hkxOHOKBxLLLeE2a77/BDIKn3x6Jx7ec1rgA0gVC7qfvrcd4un5BZbBZ9hQ9N30EmC59aCjriOChlzPcX5SCLy2mizqY9kcsaDc00D31/e328f8vRfA7L8vn5FLDR8bs2/qdsHj7+D9aIBY4+CdA0IQQCbUi+nbBDF+wP39/XLu434A9+6PUh9vLwO8OHJnah74EqARYe/saEwCJCM9vry7NaCuUmJr/LAK31v+waeF0THPftJNNYttcdi7Fzrw/tuJWt5Icd0JyhOZjzUABa+gNbE2lo0rSbgUxEjaVMKx6XuXsaD2cx7aaoY7y+ceiY+pxZG5XyVqguUB9IiHZCFDL9gpvsYxB+yM5XOLSAn7KoHzK0PqNrAU1zSq9Dd67+WCSa45hd7fE+fWFo9jufV4FH6p4doNXcAV+nJPd0UgENeWhyW3jVwdBG2JrgzwGmp4LP0HG+Nh4b713P6EcFtHbBelje0fi3ydCC3ndRpLiWDtB6DI1d5sIPQpMTDC0BTd2jnKHxHhuG5rv6Yw8qgKxbXC0YPXhY2ex1CAA1+f1/RP2YeZ4gGIAWmnAxLvEeSp724A/MpGL3V40+OyrGhqmH49FIGBLa9P1x11f3LmwQoZ3m56rA0/SlFHg5I/ONx8EQ94pKAZ0XKiFayOxwtI5uVvhhdyuYoZI/GpAzb5/X2EY7thhdfaQFBjnp5RuFMrCeozM0PpeMcuJ9HE8Ghg22hEXBSObRQS+xFgxNfRUgC6RxaAlGC2qq5njKXB0DphYH/N53gd7QOA4d7wEFx5XHzk2G1j7Ex/7mReWS4WTL0p36xXHVu8aiV67wGJq319MOXstaHNC6AezMDqlHcNFk2zhcLjtzg6HB5ARDWyOvKdRu+Z0ZpgerczYSbw2xgOExcNdau6tzwtuAoAd7hNmtxENtzVxRNk9KlQuoXVRzJq6tApabOhB3RNenrIgQsPTARMCIzyXw431IMAHQcK0wh3xjc4YYQJcN0SxRVdfDKCQTlEN80xdZBUsqf2ie7ZWr66uqjoveCqhfBIMBgIGhsbojAQ3XiG7t/CHeWhctd8ynEov6sbYLVuZyb0HmJtEKIOqpYxzo00ofAwCtfqWeTz5rgJfGkN3LoSA7gQR3bA5L+MuODqPbOTrV7y/I1JSygaBABf5cjw/YWZNg/FRAGwL59rOfAmjxSAbWSJZtxTNzZt1HiqHrZ+mTPyz/yJCTOreYBxg0xjQoFzPwM7YTDg3Mrl1zDLH9evh5gg4QoH89IRvdvSbH/83lRwIbrwc1kGiwAbaERc2qGvjSIuMfjUXuydq6/Ki4j+fdu0T5dE/4HkAGEks42bsqqMoo4xl13zPdRk6dGCfuGdeqJOFgFKGrj+7y69SBC1AJ8KPkTErRsM1sgvU8y3N0PkUEsaiUFIxrJ1PIY1ugl4kuYNB13W3QhUqtA7P/JBuoRGE5/UoJDNfraEnIvqtTNG5ZshsVmHUk194HoG/vQ357C6AMFQ+tjzhX9sxkP1SM0bpMt/3mM5qPYlluXlMIFMnJavMnRQ9bpD4PYd5HW72Kr/xlkw9WfRGmi2WZzyGlvgmlkbIleB1YZJO5aKoawHuHh3Xjcka7C4x64Jxz5qlrVZtfe/wYsI36JgcaBrVzpn5HyI48cB/4d1IPbYwh/a4A2tj1jQFdy9g4CYk/0SugD9odu8JxArTb6/ChqSwKTAaAA2YiQKPvwwBtswntKfyQJZhp6d85et1abdYD9A6ApB4Gky66FwAXrEU/XPhNCzvlPuFaQ956naZnqL7CqU0gkWaZklF1HpMDQrqJL2gPNOi+BaRQfgjljb5D3v1uGiea+evbfoQRireVUYR/UxvvfXYJl1jkAiqu8xkln3h/d11aBxdH7eCV0kRtUXkmOsfzHJttfSc+Fyi7iu9Ft3FPDUm5H7zmLKld1JXJzeYEOen6783AOCGDjmuPrlvzTKZFdBPVAmoOA5OTLG1/v2clCNQeC3I8xqz8HnxkfqcBTTfVUtTnAtrgVHjE9Hwqwj915xhiirsAjRt5MjQBWuSa3TJ9g05zdBknkG3L6nbVA7QwR4OhAdD0Ewt3eHW0k0gmZhQzyLyNM2UvbO7S0Y8RC31CxQVOtt5iAl6jkUgH2lGjHT40NiCpmm+Q8omO25SayX4D9GNRDy6UOcBqujHtmJJ2US0YAR2uiT4gAW0182R6hlgjTEXmXlFkE+wsGBquRdeszt24Xzm6eZ17U2t2g16f6BEa34lngOsP/xVeQ7Qwjd6UBQ+2biKLkoPbYBPqlyD1n2c8KbFMMHaYqAA0Hw+6YKzY3M/RAwX9AfDPpFjOmAlKmGZUDaZKLXsBHNDcdEBzhoZjWgAdZTp2EU85ZozlDYHh2Pl+Ywztb/7TX219p9WgaKcdBJIBIbJRpP81AtoY4A75O4LrPzQ5vVDcAW1S7svtzW3nNF+H4CMaExN3oJpa2VDogt2nbDeBiH6bYZOzfbg9ER9F6HTu7M9YNx0s0qzZkz62JhH/z6ilLzDq9GfbvjAxo6Rrhu5Oyk4XiGVQRPlp+l4FA5Qa4IxE36V5JPBp2RnXas4dmZDBiO8wYFUCHSArdVzqrmXgAddK31tm3LMDPMc5StvgSxNzBfAD9GcTSPHExjKhLHjmJPI7AvxYLhZPtTLeNtgVjLtjYtyweLY+Q+PrFrH0DdZz3Hyr22ZvUnQ1R+IMG9UkoOFckAyiyiyEHQFqiwWTa8XOaKqa7JQD0Ni69A3oKSxtCAeeA2ij+X0/tsnpgCYQcxv8wY2MdG0aHbihkejplPUPGDrPU0xLP4tPvAoE7GgE9ddhHxqO00MmS7lfkaHhd7Az+JtwDKJm2OFrMxV+LprCkh2YIu5YzwN/uA5mLlPUnSdKeQSC0MmCrhYmtu5TcjA0A3C9YlzJQpBsGsohMjHByO4JaNTlCo3qynpWqxsueyUUi5WQBeU/BzQBjXxgNJ3oy4un0gKbzy+OL/5tun4OvK8tJGdi0wCTnM2CgZDFgREnAPI7kwkDxJbLfSq64gRxrcjOB2hlhyqmeWT9LhqzsIeleidsyeoEvL6pt0w0GC3LOMiifM65coZbPS6hw5h7+tP2AGCzGU1J7rloWDOfQiKTEkLsBXCwz7wzMDECWuNDE6B5ysYYWxoCvE8Btd9JQFOTFN2ks56hUpzktSMwNfDyCEP7lAH03c53mEEWabtpLKpQukfHJX+gAiE/B4Hr7oYMTZ3V4/80x9iFPCWAuMM/BLT4zkjk9cUfTEGN2LNNXC786nOKRCGameiAxPZuYiJsSBA1fhwPNp+F7y+BD7llNU0D/rEABZib7LhUYJZty/puVTaQrWGXp/xM3tf93aos4eiHuZbmuECYEs/KOM9IojLxqymG9+n/juurDFIBIstYZzd3gNM9GgnnU0hAY78BBgQyNSSZL0zOWwgIpD+QgL6FmRmmGoCBeVoJpgCG6WxSpnvZOwHHsn8olHGRM7dhEGNO0zUCJhK5xDnEYp1V0ozPSguYnHVMsMHZd9cNFexSrBvPNjufxzOcRePf7OQ0m8xDTXgP/UonDAgEY9uLpiiLRTlE+ROqBpb7oVKbaR9+Hb6ZPLZgh8CvsvMRi+w5gDa23r272tj11s/aJtmuV/29B4ZW/2jKcX4MH9pYlPOHAJoe2i6Hp187HxZNuQA0vUdGA6XUgdDxan1N8xJRM7E0OqHBetJk43kBbBm6Ajj2r6lLAK2LGjLUJu5XdfP7T6iKSpJdwfeFFIvM5N/iPlD7GEWLIQbIaGb48+pCrn6xbXYiX1W/GXPsIDSJu+dCi9QGdtze3Jf9ZZijWOz4wRgoz0lsFu97A1+/x5JCi9o8xBo9Wonj+fp2U9Yw11NBV3NDEVm3HPgsAGi30V09is8zisuGxfCdLdi2jVUQ8CmWezIvlh5xUaBBzqYs9iZsnnxA+eppmc+m5RCKFuguPp/3cuhwTb3ARPZnYJcqS58hAGZdpgBe4+UlWKzTVK5kblBkVwRVaJ2hWgBgNosOT6mZxlKnNDkJaIiIQhAyfaqPAdcukGuZ9I8JaGPXtdmG37n9bh3fez2jnGPn4jj/57/561FAGzT1RuoTx8zCsXy0Hwpoj+0+vlPxuxLdozOYR6U6FuUDBSe1BB+RcY7oJhuM3CNaKLaWpmA1MzuTM75jGNDI0ASy3ohloEUerhuAdn19zbwvgCe8N4AfsDYEI6h2mmkpd2z8y2UVEwWL+u6+XN+EvlsEAqIrEFIaCGLUM9qU2WQSuvSzCRcJXgsm0024FtzaZFiBlBhabBpdb04tYp+wOAZNj+M5RXqNPhfn7yKe+Pt2Oym3t6tyuwpAu9sgyfe+XF5dZQoFklIjUHPPQA1YE74xUkDwDDFky9m0nB4eljenp+UU6hWTSTlaRBKrUlF0nQJzbYbM3QOjBSPOAABHPfuV+n0L0IJ4J2On7HbcF/ZUMu6MWk8n8zJdzMp0OaNrQc5/gJrAFhsOfWjzBcG4pKn8QwBtEEQaiev2ubXf1/mV+++M4cMuQHsAck8BtL/7278ZBbTRwRkAtd80oO0yOTWBeg8oB8Ob/MaADTvuAWhYPIwKgqWlAivBLPt61q7euWCx8z+FoTHfzOpDxWxcQFEPE2YfnNdXlzc0s7iAt6XcMtVhXW6RS5bmJpjWzVYmYeedQ2rGTQY4kLBJ5pM+v+ViTgczTK4Z/00JaAsDNEQR+QGmPwRbA+MJsywXsSoSECyByQvClVUYbWZ6bsl1etG0Vo9Vy3vFWNPsp6kPHIr2dWe38VxWiEaXvXIHhnd3V84uLkLeLUGFkWeaopHAKaDEOCGnDv9O9pflqzeflS9evymHB/tlf3LH+xJwaJ4J0FQH64CmzJa6UbKYpAsa9QAti86ru4B7ETqlRz8JvA5Ag1TQdH9G/xlyzOAzYz1nmsMwM6lcO83E3WcA2mOgN8aW2s8NkZIxQPshDK1+z1MA7e//7j8T0Nx5+egNDxwwBmh9Id7ugz+UocmvMXStmkC6JkWkZHKK3eH1sc5RAJHwPUHs8ZaJnFjTNNVuV9ydsTAqQ+GCDrbXTYh+9/UKXFl18EA8MdMt/Bxy1t/cALxW5ZbM8b5c3dyW2/VduUaZFtkKzON1ObuHT0alT11bOuVsIaAQ9z0pB7NpOT46iAYbCVCH2PlR9LxcEOAQ3YRvCdc0X4QvC7+7iKCPs0zL21v0ZUg/I8iIcr/UGzWBL7jkHn1cdNyz6XEsbLCwy8urcnV1Va6vb/gPpub5akMwB4iJqd6u1uXq9iZYWRLUGGY0T8mu7l2Ugn7M5WRSjvcX5fMXL8pPXr8pp6fH5XAWpqVYGq5DEU4FRMRwme4CH6VVcXBepk+vNTm5fTIvLmZtzSOED42NURLQYHLOJ2WynNUGKCxKn89rUAYMWn5Opsj8KwO0vhUlP/SwZLwTl71/+Pu/7ZU+ObCN544Mw9QQqP26AE2gNARoWrAtQ4PzHgxNgBHHZbZ4cyKG9GEKQR/t+royr9XNbUGXdWWq01meEVKPcsZCaLqvJ9ghi0DXUP8HY8sSnW5H6tItVuv7srq/I9PC4j27vCormJLXt+Xy5rqcX1zyvfdZ5RPMIkxO+m7MuY6/4dw/ns/LERjAwZLM7OjosLw6PS2fvXpVjg4PyNJmM7A2tJS7L8v9YAgAQyx4/K+xppPcajRxvXW3RgkQE2Nh76PGEoGOO5qKuFeAJpzxwYLAOKI+E8zy4uKyvH//nv8+fPhQLi8vy/V2QWZ6swr2JlC/AcAhcgnWmD5GjMOMuYaKvLDeo8z29srRYlFe4p6PjsrrkxMC2tE8NneVFGFaqCLioQ8t5Ze8LC3LeTzyrA2WrwHQJWGlfLUMCggwp7MANHR5Qv4ZNhywaPYRAPhj/OfzspxF8IJm8DMBbWit+nr3TXXU+hpYfL3N2N4fw5Ihk1M+05YpQrxzVxYYx/nv//5vt2PRzKEbGbrR59zwY+zvOe+3rNJRXYCnQWHEjXWRrYlpyg355XGPtkCx+OCvSRMUKRwwSeFbw48ijPzOjH51oJTaYBbtpHdNEa/MG4vzdJLY+Dwd8UwRwaJdk5UEM7kvZ1dXZX23KTe363Jxc1XevX1fPn78vryfRxkS0zcA2Fm8HSwjGJb8WFgHjAqyOe2mvDo+Kr/4/d8rv//TL8uLo0OyNzA3RtpS3cGb1NI8SlFKtQGs/jJKcGfJlrkoaGpZUERAuEHXtjwewEdAW9+Vy4ur8u7du/Ldd9/x/7Ozs7K+3w/T+x5MdVXOLs7L+eVFwdMAayWYTfYiMZjgNONzge9sDma6mMb9LffLwWJWjvaX5fjoqBwf7JcDmN0E8ogiO4hp7jsrJ0tL31jMv0gcJhtjUKave6f5zT6jFG7ZEoxqz03Was5DqTYltlXmBFDDD65N3c8VZFHFiIOAgOHBWhjxg4+tvSFragy4xs7hpqifb8xS27WWW6Dz79z7h3/4O9ZyDv08BdB+W2BGyt5EZYcGQQ9zHNDoquXt++Ai+lkZRwNoESRAYKAPaPx85oxV85JI1bFC7iJKJ8hF5qYJoqa6D+YtMZP/rtxkQiwCAfiH1AUAGpgKHP5gaBeXl+VXt+F3gnkWxeNRWYCfAArlZsXag+8M/5C+8Pr0pPzBz35afvHzn5XTw4NydLhPQAOYIWqIiBsBDaYPzxWLFfltkUsWKSbYDFAkTuaVLIKAqIWUpmCXg7Yp6y3ywTLVg8fR8VVurm/Ku/fvytvv3pa3b98S0FZ3MJu3VNFAOsr51VW5uL4uN+tVuUYtZyq+3sN/Rp9UVFgsprNycrBfXpwclzcvTgvNa7SCm01YC4oC8Pnmvpdr52zBmT1/Z/lTXId+ML40K9O0HgI0fLYCGu55ANDQL2CGMideVwQA8E/mMH4X6PIac2NpgWZoTTx3zf62AK29lxbIhq5r7x//8X8fbTQ8duN+ohZUnsOwfuixfn1+HT4Qz2Vo3aB1DI2MbA2/2V0kdlJna0UTMb5LLC07eme2P881EADAIhMzAWvwKKCqpXA/KgXC/5EesS13uYCQm3R3t6XZCV8S/t3db8q3N6vy/dn35fzsPFM1Un2Cfqko8FbyJRY8JaSRp7W3R4b2s6++LP/25/+mHB0uwxE9BUuJUivlQCkCKH+actSU7Eo/IwBNsjeZBoHjxW48MRZsC0GBSCFJoMi0XpSawdx8Cwb67j3Z2IoBh/DrAUwub28IZNc3t+VqhWjuhrI7YEBMBt5uaaIBoF+9OC1vXr4qL46PyhJdkyArRmCPCO8MY5G5djKTHBT03OqzBZM2OwhjjHElaDUMrbdhIhCSWhOMcOYYzzPCOt9flvnBfg1OUA8NRegHB/2GwrmxK9+v3ZjFhtvXn7P2fhuA1rI4EoEHuaUPSwt/EKDJfHjO4PyYxz6PodEtPWByPmRoMZjBqiIHDQsU+WgJLA1DE6B5hj6+recUNpbmXaa4aBpJbzrF02RhjeN9ZPmD27EVGvxOjFYifwtggCxW+Aen5Wx9Xy4vLsvl1SVZ2tXlJYMIHCv4lpAsm2bRDe5nFUxzMZmUk8OD8ubVy/LTLz4v+8t5QQSUYAcWh0z2/WAJ3ipNJievJeXLWZWwviOLU3mOfG5aYA5o8JWtOAaRfR/1nPApbhkYACv7/vvvy8UZ7it8hzUtpRRGO2FqwseIwMkd2RtyISZlCV8TzM45klGX5cXxcXlxeloWzD0Dg0S9Zykz1McC/KxjlsDLTeQKVOkPZV6ifqc5Pam+wSGTM2cWAwm8x+wdIPaLMUapE/xly8OuvElBmOPj4/oMermWI7lcnnP5qaD2rx7QejZrY/b9mID12Ll+nQwNJopMTgDaPRaKmBIBLWRqYpIAk5DvJTYU0cEwvzotNbE5mHdaGDHpMxqYUc6om4TDHZn+ADOU+yBpFImXKEpXpUDHUgBUs/m0nN+gAD37ImTpFvAuTKT4X2kUK6R5oAB/c1/mSDKdw5+0Xw6wmOZhajLxmEmlkczLVIEMDPA1qYuAKQL472MMtndRQQEf3WzaRfCg5cVroEBkMF78AyAp6ssEYQAbgG69KjfX6PFwG6kaq1vWovJ+aEoHa4VfEXm5FBHfTspqc0cLd38Bv9iUEcH5EpFBpDvMGbnlP6ZBQO4o/sHkl49RbBLzzFl09Qel2dkC2hhDI4tK94bYWSQObZk8i16bSJZFM2HVbYqRCdD0t6SGqkVhi8UBCPfyFFNt11r7bQCabyK6tqfcxycxNH3Bb9PcfKoP7bkmp3YxLNYeQ0uTkwXRTVAA9XYsqEZ+WoIcmIvqPgVq+r82ZnGpHmprhS+mZpCzBAumZmbxg02gphHqE4vwp+AHznGsXvi24FMj+7kNcJkx8XIetZxb+Lg2ZXMHBnNXNnvTcgPNNwAa1B7gcAZA4XOImu1ty90KNayxyMF6nJ0521KHLJkGYFf4aWsL9RltFiEuiTwyS3Ehhgbo87zQP8v6VAVmuAmkuYU8NLxOlVekfUynTBrGd5GhIVkYIAZHPyOLW6ak4G8yx5RFokuQxK7r8qX7EbhpTnBeJTC3QQH6xwZMTm8mXAEN54G5uQxNMzKwg4MICsymNDEVAJAogcxPAS3XQm4s7aJ3M6197zHC0AKJH1836iee5DcWFIAP7bFraoFLD1kmp99ce6wW+FPBb8hvN7RDOKA9dv3x/l7ZG1HbGPp8CD+mHwRmJ4DlHgmqN9l8I6KcNBnBpqwPo6KV/D8rAhzUvDELF0gyO4JZzS5IqRpEW1EbkKYQHcEo4bFO28prCjHGAAOpY0ReV6RL4J7QiJcaaGBSWR3NAAj+Xq9KuduQsXCxppKsfElYqIr64TUp3dZIZSra4lqhcqFj8L/mypA/KszV1GpjUCSa4MnXeLfulBl5LEuekFSbVQ5ZKaEicQYr0nIAhwNwMZqbQpTRjLlEoIMF7JkygmTidd9XIyDTPdQ5kc/No5wxT7NmM6Wz0WZP9w7mxrKoZHxMAM6Ai8x5sDNqnaFF3cE+NxD8U3BAaRrtOhlbxEM+tKE1hrmn5/y09dQvVxpbozrXrnMPMa+h48d8aP7de//lv/wfo4Am4BoCD/eftTfj4DUGaM8BqeccO/4wngdoYkX8bjApgg7ywG74u6KcXPSp+x+KFl0pFUwmMT6PdALQ/IER0JhiEbHYmhaLiY9oWSS/dzI6Zurx/Jbsx4YvEoRk4XOAAye2ZdvzOgGKVK4AWONNUKNCBopfyKIS2LMkoGeO1eJwSzDWvID/TJUUPgf0LJXDFgCxpRmJ81HLLH2IUZWwYYAh1GXjRtdIoM1xRokTACz88qF8Av0z3m+CooNCMMZIaiUTm4V7gMESbBarbjkIvMQmfXHy+3Hf2NTyDQFacMcYc6TN6PceoOGCs9QJ5iV9ZihlSjBbpi+tCjhmUboYb7v+HmMlQ6SjXSu/S4C2CyCHAFD3shPQ6kGNn8wZWktLWyamQRp7vR3U3xWGJkDjZKRpEbWcqKmkQgRMz1owHtnhaqpChoSk0wSIAMUudUOApgejxaF7J7CppCiaeJJhURabvqxOrqYFNH2OzmACZCS/0iyVDw0LEUmtzB+JZiKUD99E0ilrFCUvnoCGa0UEjonIYCHpAyNDkenFSBS+FsoWUk2UwGSUROHcBJOsBoiSJDQ+SXOdxfvxWQYLkMScEV4yN0R/MyeQ89Bqc/HMagPimo0/4XXLVCbDQVhT7C7Ia1wzAH4A0PA9kv4ho07zt6qvqDY3GRoLRRV9LOEWwHUT0DJ9hflnNI+jwxOvEaAGH+YR/GihTKt0Da9cEFv3tafC913sSqA2xtDGQOSx1x0sx77/uQztkwHtv/7Xf3wM3OsD8QH0IuNdDE0lN3qouwZ87L3fBkOTiq0YGlI0sGDgQ2PaBrLUxcgY2QKTiMBBXSwD9Zp8M/1tUiLhhMhcphb4J3CoI7fJFB1ilzYmYQwNn5dZKPUKLMC4ri7QQTPxPjTewkROORyYuCRqETwIlhaa4OrOrciZR3VldmqxEVgzUdb9ZZoP7fxBBYazN4ArpbkRCEA9JwMsYea4v67XtBnSj1XoMGcTzF/kzjFZFoGTWfXrdSyn810yOzd/NDb6Ti1c5c/FhhUMupujXdE5T5MKIgTovTDZxR4FaDAv4TMDqMHcZFd0k9pWIKZKdFskll+R0dLHwEzHPncNjoGRM6VdAMQpP9JbxK+pZV7tdY4xM//uvacAmi8yffj/b+/Nn+PK0iuxm4lMILGRBJdqVbdmrNEoJI0UtsMR/tftGXsmPJJGUqt/s2NmrFa7u7q7Vi4ASSzEkqvjnO877315cW9mPhZYZLGJFlVA5lvueu759kh5Y6PyDckcXAVLaO2UKA32+wA0uW1wsTBVjDE0bk4WFxmbbxo+Y64ruBgo5tNiHZtJzICNgOaJDaUzazZzPlbQl4nteMVwhcg0Gy9GP8DFYsscXzUvyismdiHd13R8xYwacFUg4xpb5XFGGrhvHZTXuFM55gAAIABJREFU7EevR7806XPkg6Y2REDj3LroK8OFUn9H0Ir3mphrTEniKCIFri+vGe50fXXVWI3hqiIGCbIlS94QKXckSmLTuzgOj3tcA2sr/NFysU1ARSun+xC2Y+eFcFzEjeBMhrgBoKnPAjS2F33dMgPG/r1DOtciMaVCnVgZHam3fcxjhIcOzKhT2oSVrAOMGtD90IBWA947BzR1OAKUlI4R6OLA5Dq0/BmbnBZ3B2iUH7NXBqYT8qLJV4wbhx7wlq7ZvOG93iMZmrkbQAdGQJuIobleR4HodECyd2lTxFxxLqSYHoiJET1EiEKg6YOUaZUWTbdwUrHsRgMudIYpIR6Sspi7a1j7LBwKbM3cQcAo+XRmhzU2BEAbenZYuhRQWrZ2b++0ymm5bhgItel+9DcBrQlzwvMtmFz6PXeFc38yZHgzcZUuKRTXF+nq8jKdn1+ki7ML/s5EARxfy7KLfjO6wMu20f0ihnaZLGm5xRzQYCBoAI33tVWEbM6tMpNtKoUvtfUHBNxSE1CV4CtKHo1N8Dl9/2zu8LCJg62MFgAzWDLvHz2g/o6ptuW6gUgAD32SIUDMOCcTfLyiXWyltKUQ2QZrYbPSa4yuEihZBTTvl/rXPv/2rl4FprXv8n2/7joeMH/zN//XQhacZjFqggodLA3mJqCUX7MJSAk4dRrX2vd92qTNmJ8KAjQ7vU3Rj3ZQ5GQhEvtHBgqwc0Bo9CuhglAD9kQz+E3ZqV86iSKD0UmuxRoXdIy/zQ+YGA2g/qm9sd1w4bBU1wZm9O+aWwLKZkybpIvz1Bta0LYqDqkNujbXl2rzq594dxxviafM/++ZhIkncB6eIDD9Ip2dnac3Z+fUXTIw/2achj1USSLccgz1fotNbWuESqw1gwoSP94WN+PaMVHQo/sVnoYEjizkYhXZNT9ckzSk2FwywwmYLvzi5GYj/ac/a+LuIOw3XXCQZWMr3b9/v6kbAPGT+c9gFAi6P7HQWpiiKluVGPCme6+2J7uIi6aY9Vx8MX55jZd/vh9K+7LWvngvAS1nVxFI8sHoCh61RtRAsCSK1p5Rs6DWJr30znWAZpuxzXMmR1C6QDigLWAcYDSBVS4S+DGbbQZc+i6CWewfN4frSDgW3GQt21Efon9XHDPcXwI0fB5BjRbZAGhgl0xi6YDWAIWHGBHYBwsChhTV+F0/ccy1+RpLpC/mhpkuhQp59ghmlIUBgxyN43h+fp5OT88IaAAzA91JGvaHprtSDjUHNQShR7eGdq2qvkCbyrsFu9Z6aixmPaDZIWfZihm6FuYHgAY2TAbqAMZzrEePkCbgnY6z20OC2t7+PkFM7hp0nvVogRgov4o4fAI00yUS0DRQcWPg9y5m3BIQvQ1zi/do4eQbVgAQAS2ylMhe1rVhE0CLlaFM/2T+Zzmg0enW86Rx7FyJTV+0wr8SqOWMIZZEi9dHBXFkrnivFOP5vOaAZvnKjKEB0Og2wdTZDqBeKUsgPEvIeIu8/fCNgqLdQKh9n6VisuLAruei64R59EN0ZfFmRUY0rg09S/ntRgtov9Cmi/MLxqQifAvWTo35FgPXTeTUAYC+Ig1SYxDRs1101+cC3njd0jxUAM2Y93LqKYrVHnmhQ4hOvg5ojOxwtgtAG8+VItziYmHVxDxC1KR1E060YGio6OQ6tMgqS4y+PVHatkXWWiID65hOvmc+GobWhV3dFaAJYCIAxGdH8TPfsLruLgBtOY9bm2LIQGEZ0OYwDjh7MF2bsSH2xYOt1Z+4OCJ7iyxZ7IFsK2SpiPOxjqHl84Fn3gI0z/uvGEwEgitagf33dNgacxYyCQxSTLDJyeUTEq2g2lyRmUoUjQcWcqBRG+hOXWjT9eUVM4cAzOIhhurwbocN4mY/jUaWOin23drYgq4AJgJanAfl59LaQgnA1p+uXQd2YJn+UawYz46AxqSNEjv7vRbQnOUC1CByIi4XoiYAjaFPcKp1cTMagFbtR7ivxLXVAGnBuvjRA1pNh1YDqdKA1K6tiX8l1NcztPhzhhZBAb8rfUpkKPj9LkROAZq1qU0PYyyhDGiqEyn9ivqov+Om1obJQS1nV8o7r9NZ14uhxb5HltoF0OQaQUBznzm1zzw62qgJidzqGzYcNp8YvTa3jZMHnHtGEgAqPPbhxEtw5WYzJbZFM8AHzlTrFl5mqbc119Br4v20EVIab8VrjNtwaGnBI+u28TSxUgcF+hZBOB6eALR4qFpcqY2GaoVShHRAY11OurWYuwZ8zbif5D7iLBb3TP0zlqzz1EA8fPt9MjOEPiEgHaAWs9PqgI77NGdRGD71IzK00j77qAHtb//2P69NH5QPQFfAKIl96wCtxNCkV8FmQMwbFp5OsLhYtakiRe/MIF3PI0DT/cYu2lxpFttp8Z30nHc/NIpPqjnJ0CkDQXfp4pDk46oFG9sqZXMcwyiW5mMbgS6+I4KSfu8v+gwAv7q+SldgQzc3TCmtcSWrmyDEycQ96LrpHOu6Q4nVVmnJgETzSvBmcSWzrALE+F7Z2pjLUoCHcCCEbVmsKazKGgu5WqhfeDfjTREQBmdgpAhvcu23DsfL893qJaN+MY5dw5Ddj6Y5VD3qSkaBpXlgOB0KvBgIkh1u9ZtydSiegs/gfgHxHD67/Bs+ce5My+iEfs/qBiC7hhcQFuDmwFtdx/L/yRZEBPf88LwFipXEj+vui89RVlmt0Qiym+JAXLdxj6wC4mb+NgG0fPPdBaCtos86AXWNdGUADKSRwX+RllgJ7wRqcaPHUy1ncKWBvfXZGkBD29AuAppHDagaVJOSm/5ryzGPOQNaWgwe87jUXo8SKDGxUj+08eNCiswwiuxwXoWbCcK58G9MPzqjI3QLAUBNzLJrCn7jrbKKyqIrUImbhwSm8bdT7QWAWnSb8XhR+ovBVcNcS8ydxXSBNEK4Y6wA0x39m1RQ8o2zGM1WWWC/m25JDC3358rH0N33WlbqaZ8B9tHoz7VG95EZnarxN0Hd6xdwnB3Q4F/G4jReX5Tsy+twAuxg8YTeTGm2Y765TUXOJgj4HQNa6SDOAS2Gqf1QgKZ29QBotQ0eRcAGASuV09c9Y5PTID8JIksTgMCUj6IZWBSwCskcL1EtLlxtsM7szEaHTc4Zmm3stlalGJolfbRYTixmcgj3vldiyKY/nlUjHxNtvAheMU5T/VjVHx02cSw12fl4LpDFwtP+oAapMl+QHbnfHILG5RQLh108A9cBAOWxTwBEYLezTrSPyXadlUlnJjCN7W8XvPmARebOSlSD5ZRF5kYIUdN8CgV6AAHVcLg9Tu1crgOIwbAtjMz2UuResL920C5bnBu2yyDzVtzl8EHU9RRFBNJtOMtaQWGCGtw2ANgwAEBnBtbGosKWGURsLupUa4czUlqWfmoMrbZfS5+X1lLtfmkRcoZWIzAlSS2C5qYMrROg5ajcBSBq19Y+VweWmERw3MRJCc9xXBdP22iuV9yeBj0O7sYTuQGgoY2WnRWimuX1kuLdmFjMeiuR0839axrSHCZZWFNtQetxcpnIF8UtMINIOPYK8Ess0tMgNX0xyyQU84PhiJZKhHwhj9pyCJLFjMoYMp0s53yL85mrB8hogwjOTBiwjDJUyFjaNkKW6AZh1aEYEeBpf8TQJpObcAjpMGp9x3TYrZIwtlBRJdR8ENNklhU3AJTEKaYlR3HjMK8ANPqbydnXk2NCsoAhQC4ZMAgA2MDaZEVm7Gao8hQPi9LSqQFaCRzWSUelg7YGMreu5VnfxrLGdVdsdyUkKgfRHIPis+K1ZGjrQCd/+LsENDU8DoSd+G0RX/pMhZQ7+D6eZlKoauG+K0BDGyOgYTNHUGM2U+nRQrV1Kx55+6fEgt+GoeWnWgnM+NkEzqGe18vBiNktUDG+yRzSc0Abp3lCHU5jaIyKaFKQG2ioUAoBgfqzZTcHXCNdWwQVgb/AmlZJVDci67HEi5ZZVgp+t1w6oGnuVf09MjQ8OyYaiEy+NAd5VTAzSiRzNwmAFu8lCHl1cxg6zG/QkggwmYAcaj1jhgCNQIfiwSMHOGdvdKz1+pvrGKXa0QXQamdpDei6MDQTXjLfPsULF178Thja+wC02qCKIsdNiEWIBYUfTLBAA+KnxDQtap1w2jgCs0i9a+9e+nwNQ9PzIqBhctA2Zd2IgEY2A1HTTf2lUzACmr5n4j5ljtggOzD6X1qA0kNGpsTcX46tYlewLKJMnwALbq7Qs5EZ35jyW33UMyPI2caHZdAyZuh9apMyreYsSSX85GaBsnrIwEtQA2NzlgMdVx9l3/i3jZIU/chr1oxbo0trM2UIMCNDvLUWPC5WYrIAzQ5Ud97M1C60WoJ1bfWZ1YSOtvLPG7RuJD3PnkFVievbJDIzOJ3ip7lvMBllMHppvdUAoKZD0z5axXA0BncCaJ5jL2extXa/E0BbBS6rmET8rgaKXQwIGvQa3RR4afPdQJE9Hjd6FHyvBaKFLlqPv3F65gO9jm02k5x5t9NTnTGREDMRpzg251R3rmV1dfiiWWbFxpmUgBDqby5ZBd0pFteI2UlMin5Tcdw1vs04+4bUQo6ApbRFApmoE9NnBCkPtJezrbKIjG/c2kngtnqVk8mCwfkThIVNLPPsGP2eQ/xz3RWTslpKIbheYDzIwJiyx1MCzU3/SJ3ZzpDfoe90PB1aTjf1CdWZolOvsbA5gSBXVdhY3WbEUde4pLcLJfbioaoDdWk/kIVZbUwwNICY/NBkeYXYqZ/ZVo/hTGBkMmiRMYKZuQiKz9GPnZ0RsxNHQwfX4q0yjKuP5xJI1YCrBi4lPVwEyNJ+LR3YpXtKz457NB6IjRomi76Jz9jIKLARo6lc9DaAVhssDZwALWZ61eJTLF97aps3u5b1XQAan+ehLwS0OTa2AZrCnxgxIOBy650WjHL6ayPGU1Rtjfqohp2EUBqBe2SgnFhXDueAxus9sWSrnG/1Xpo+MhPmIUM1dgA0MnBYYeUxqqG7aIossih4fHMzI5hBckXGERhJmWN/BkDzWEvmMoT/v4U5WWoh05PJGg2nXajNTB829JpPpieF7xoXs4Lkt81hVXOstuPefLPabXVAExPTM5ZjeFuRWcWGbwGaVz1HGyE+AtAwvyaGbre565CAhJWdzAggPS/nz6vWK6zsDw3QciITgSseKu8M0Eqspob63xfQJCZEpJZop1MboAJDAU540HksCIWMxPc3uoxwCndlaAIQryRrlsz5NI0nCJw2ABDQLpCx1gsFK3caN0QoY9eINs4u88kU08w3rzaW2tOCdsjNH8TbCGjxYMDvUuTrpCN40RBglk+ANK2h4zYofzpG8eNxuoa+bWrxi1aBih1EiLa5TDCNUAtgMgCIoand4+lNGm6bRZNz5+FSAIpGqe5WZ4iWkbnq92gQ0bjZhsiLS7c1XWsMIG4k/I5xuPXDVEfmqiG9bRvL2WvqmMpY0ENfnM3JGZntdIamGFkrhIIogj8MhqZxjQd76bMaU4wE6K0Y2rsEtFUdweLDuxv2Qu9ty/P/+vVrLjp4WR8dHTUOt01bg6e4BkYiaolc3qLRt0ROlsLl6Y/iIwC0sYvAFBeR5oY6M8sIKyU7xS3kGxPTaRxuTVwujS0+y/2nSgzNWGgd0JriLCGuNPqSCRBYkQlV2h3QWPyFwAZAk6sHxt0ydLCCO6u6T1mcBOBmzKuteMVEPQwFQx1QjJ2nvaY1E6UMbpbDfVBTk+Im3BjMSKBxiGBeU/IL5HAtIjvyn8iEc1ErBzOBfgnQElKcu2iM9iJmEyoFrq2hVTgHeEG1hLxsADdaRD39E/vkaYIAaApSR6wsknt+7CJnfgjl+65GlHLw03VvBWhdRNCuDC0CWgnc9DzTT5keB8wIBgLpURRFoEXdsKqQFkcDUmtfDdCagaMOyDYZCnZcj2/omGo6NEsGCSBAGy0vvumIuJlZHs4MCPonRpEzLzHUVRs3ip2KRcxFTj6nkLxQlsrIDDWucqhlGT/oC93Ng/2BWHozTmMUN2G0wQ1dOfA3wn+sapYVZiFLoyOqp/rxtHRinXDB2GImD2xgEyVRzVwbX1ZPfG7+bq1LiMYN99nceCiV5x4jW6wwtCjy52stB7Wifglg7J645lOGZJyu/4Q+dLCV9lHQeGdkFBVhUMFfTe9E7GaTbcNBDewMQf5/CICW7/moB9X6z6+JQBfB7a0ArYSaNdGtK6CVaGWzOZ2poHNkaw5ociPAvXK2bYBHISleNEObPwJaqe1RWc/BdIamz6UDQv/A0KBvosh5Y4BGloaEhq63ArjpXmxQuXgI0MQWI/OKY1cyCjRAHeJXI6Cx3QHExNDi4jCGpsK9lvtrsAWrsoVy0TqL/kyQ1NJygIldIjfZeDylLg3l8ARoHCrojOS2wWIGBmhU5nsWD6giZZ0e7Zpoqf6j0LFYDIHP55GxoP7cxok5lJ3LD4AojsSDOLL0CFYldlYShfgsgCj+QR/ozEvqBBa9GW6lg4NDxmnifahTFQFNa3S0v9eUq5PYaeImGHtWMfwOjAK1MfkhjQJqQ80qH9uS788Si2v2O1Jwa3L1ELEBLBj5wdSo3zq2VgO62n1dwLKpsB1cLKIoEUGNmUuDub1ru2SranQuSAXjnUDlIZSFQxJC5L8HS6MS2a2brP7kLAXts+LBrc9aDjCRWUYxVG2OjOzWCRZETgNiA2M+U+mMlLyQiSsNoOICUsC1QpyY0x95yLbgjW/xlshsCwCXTyBYGvRpADUADsVq18UrONxyrbHFjaLedJ4Qy9qCuBTDaMgxJkZm5umz6cmPkC2PyNDYof24rj00lrNu5OtNYyimLD2iampqw2kNxY3XAgJ0hX1GBMhNCEDGSlk4ZFRXc3dEtskQKVzr2TZ4GM7nCY61COWju4Z/NxggieVyYgSbTgX0L/eotp5LIFUiDTWQi2+JQFID+Sr4rwCKW9JQsGhHAhLbGHFiCfwAaA3rCMpy3IxJlrIzbqIu4NYVONYB5NL3QRekjR1P3hKgRQCIE7vuvSsBbeAs7crcSCy+06yDBF1P9Ii8YNioArSlqALp42aoXGRiV+xT3u4lY0cA6poODffnDA3B3TmgcUxYG9NAhyL91TX7gkyyAGdjaKiPaXo26NGwiZu+g+VxQxqYxkMGG79lxyika+IWXDPQHh4YQEKJq6iUBD80pgFqEzRGht2yKguGZ1/7sG4rDXoIt9AhFAqNaB4I7EplnbkGNEYXX3PsGsYIaS7I0NrgfIXgA9DoooFK6NCv+fmC8CcwMY3x7sE+ky0I0GzPDT4BmvLy+VqsAdqSyIlCw1HMweRKGYxJlD9N1OF0Aaku164DlVunrH8gY0F8F/oUgVqFZ3OQ2BScVwEaaAcyR1CnxA0+TlNsdgQ0e5oZz3hD9wXWIcgKE2tSxDSisjQyM7U/Al4EO/kpNf0KIqd0aM2JyASJbcERjS9AS/5hXA+I26RfnZdw86B7MDW6daA/DFqHiDqnAhyOsayF4IBkFacAblbyD04ccJxF4DkU4ESwXghTahazia+ylLKQr2pyOihprjWmBmjuqkOGehvQcK3EeIy5aowu1Tj1NuTrrh2/XlowmaUxUjJEAKHK2G31rRQdYjUHAzI0RBEwOgCOuCiWslikwwf3ydBg0JI/Gq6xZADLFtoPhaHVGN0q5lbb39+XocX7m7qcOi2kj8IEy8ok7+7c0rYJAHUFtNL1NdChk2YokRU3+S1AC+6VESBqeoNV4MlJCyInLFt0W3B/LeqeIH5dXjWiFXRAAp5FKB8X2UFkHVF8Ultiu6OVbOn7oGPhQeViJjddEDntHttguRIWDE2iLlkLWBmAjUYM1MkE6zRwowe9V4VqngN25GIlP3M8ie+BCAmmok2N54iB8fCMacd7Fiyv+wmazvw0TopauGXkoL7tNqDpEMQ7I1PeJNQsAhrMPBxnZ5BYC2onGBrynoGB8oDAu+aoS9pvqrhjFgBoh4eHjbuRkQc7ED5kQCvt/3wt6ZpVxOH7AloEV5ax0wOxYaTwlV5lyQEw00N9CIAWTwQBmjaJviNYh0wQkdHcCaCxMIYnLWQR4kmaeBC9MQuziDY/c3MjEKMQO4ibTHNRUo5SxxTM/rE/iEXUswVo+jtnaIpbzBdhXhjLaiMhhTQsm1bZqrHkOlva6puIqYrkMh6o/eyrs0HMj/zNzD0EEQgQU00iMECzalZWDd3er+wdADSxMHynUCyBk8bRDrs2QWNcr3HNRxBUgZOVekoZiKCWWdieEaBBn6Zq82jPaG+3KUWHWC2wWUgLMYGCAA0MrZWE4M5ied+W2v2B6NBWsa0SeK3aZ3cBaM0aLxVJ0ZdR/IksoAvrql3LzVZIKLfq+lusKXiPL7VPnvyZhzhFnSweskaRV02YagRo42Mjs7ydK6qZPhpVii6vGmusZYqA2zo85A10JOpoQ4np6N23gEZOCcq9VUjl1MsZGoHTXSdMzd5YbOPpGRehecu3cYv08vfK30qF1OrS3OeKGWfdLcOrxi8ldaRazOoKKN6WBhKGT5nIaoWTvKq62gr9FADO05ljrFj7wJPE4qUNoPWNbTV9abLttrOpmIGWZbXjY5ZZ6Oza+FkLtLaCJ4zr5PjZ2ABqZh6JQCCCmOj569APSDhQ+CvMCRZRrBM80NioATjqcoKhAdDwmYEpOOptQLMWlCIfWkNLCbjz9VwCkXVsapN7CkEZzQGrZi+3v1Uz5EAY/xZe5J/lfV0qkpJ3OleE6qFiB/H6LkAkwIwWvAZhK1kzawBT+rxrW0rPqFHkfEAp+mTMFno0WDyhTJclFn2l5W6R6GPFDdGUxVs+hRuAC6sjb0+etaJhoyEvlo1Dmz6b/bREZ9ZlyEeFxB+18ZMjsdi7+hAZUdwUuk4HI1+fOThr3ptsKnTHcSdc7z8iOWVlJHgpAN6/l+tLDxl43WJLVj61MVZ/WAk+KPs5ptDphRTjjCH1hAAafu4D6j7bweJ7MJID09VJXJZRAZ8xjGtkhVv4w6LRDo4E9n7a29tNB/fvNYAGlmrttXqsNSC6tVc9BbfGc9V+iYd4BKm430vPqQHaEikIZexyfCgyscwqXwK1yKbzduWEZCWgaSJiQ0TF8wHrCiIEgswzvsbauoCZNk0XkOpybWkxGPNyhbmDFOtIgqF5sRQTm+y6oWeFwKbQRtb4RZCogar6GOeiadfCxNkoMpniP0sACCbXEdAgNus9OXsstVXXxnmN/YxtFLtVqFSck1hdnuAF63FwNWl0eUxZ5Dn9M0Aj+AQLJcTCuDnifebQ2uo8qcJA1hHF5joIAuQQDUCscsu0xE38rVTb0vMx7SciBjwgX4B27+gBrZz7+zAK6N1EvncGaPHgqQFGCVzWAt37BrRVGWuF2JsAShcxFM/TqR3v+5AArdbnqBOKC4FV1V3cgUhEQHtzuWRplR4IgEYG4SCodwkkBGp6fpyHCAgCrggyzbnuSRDt2cs5wfSZKRZv97Q2l8jlH0EqP3EjYORgWwJsvFnWVG0UHACxTVwTbqnVeMlpWePd6H2dkYmViaFZbdPbgBbbT/YG0F94bQAHtAaoaF01FxIEbrGvwByvyq5+IPRLAKdU2/ibbV4gKaXlTsMP2BhcNaIODe4rNq/SoW2y+4B9ddEtf0IEqpysRMBaB2hxTttrpXFdfmuJCNjKbEP1amBZA1xdH9u5UaRASe+UD9LHBmi1/hQBTem2XXQBi5DIqaB00w0ZS4MOLQKaJqQEaGKxkc3gd7EFzYM2txUQ8QwTjT6tHKBtirLNAS0aNuIC1ZhE1qb2RjDGPWIrS4swWKuhd7OaAsYyeV1IWU4m5dZVRjE4I+N/K4BGvVaFoTVA6g6xPYCOSw4WZ29OvihGJf0a/PGYPgosb2AAKE8AAJr6ScPHdpu2HIAGyy5cOdA3BNkD0KIOLYqcJYZWg7fvA2hvy9ByMmKD3DrYxLZ+EICmBsXNVEJRLb7NzhK76kNnaOtE6Hiy5SlnBGgQOWEVVC4tuipAGRyMAlHkjExLLC0CWvxdnu0aS23sHU+h07C8pVzzWdaJtwC00qkdWZvADe1qLXa3AUVgJRCk46lYrgNYBDQeCM4QmYdNdVCdFfM5FZEzBzTmIJT4Sedb07Wx7Q5oDQDiEOpbMgEjitYOjjsArUl5ZDVBAWiYU1wDYwCKCeP51P3NFgQ0ONpSp7qFWqI7VUAr6dDuCtBKANNFhyZMyFm6qj7l7dTc5fjxThja24qWFAc2yKLaBeh0bXx2dRIrBoQSGMUJrAF0vllXtTs+r7F6KljdnZMvzy+a8CAAEAANmUjlhxaBQIdCZGmlfuizaJiJLAVZcuMYGquQMSD2yOIy88NI7KLUd+nQ4vPjAs3Fl9o8lO7Xggc7I0uLa8vDxvAZrZzKAuJgJj8ylNxbmhe55gOAULCEIOQO12KFWWEWy0iO/2diKseHRZqx1hW/qUMZ4tKiyaiBPkCHpsOGOjQPWKfub24RBRA5LWZzyJxp9x7cp4UTUROycho7K/vPFddlSOwZ52TdXojPag4QMXz/srYviqyrwtDiQbe0Cl3nW9trOWDeAkRfJw3LhA6tK6Cp41p0XcXNTQDuXQIa3h8NEqVBW9fGW5PpQCKRiq4bby4JaEhvhL8R+sTycHMTS/LJwTiuAzS1Ky9XJ1BDUsnbug3zwl/+UYjRsvvMOkCrAVipL10Wqe4HoLHafEzX5IAmBseMJu4io34z0eZkWdEPcope013Hq6dr3uiG4U7FcbMhp5u5rDiYuQsH2BLHlfo4Z3WoC5oWBCcV6ZGvHe6WUUD7BQwNgLa9s+3ZNXaYzBJWTkvqCIuoYo7pWnxrCGvAEDPZ5gdL/pAl0A9ffsiAVlp3+iyu997f/d3fVIuklBZkTjV5gt2Bq0Vp0Nc9t/b9ulNJYNnoSgrg0gXQxNAElFh0SoyINOHUp93cWFxCONQqAAAgAElEQVQj0uNkzpL5ZDWnzYqSgdEC3YCZpwVvJzhjLHmmBq85tgQeK1hv1M/FTVMC59ohWTzVFSzvOkjIdlLsc325UUDjKqOANnfj6Q8Ac1GS9yOIHVbnmUUhSASO1ehNWd+CPdKIL7N5qzTFknQCNLA3vgeANm+cgfG9rJz4npE2TBducZ43k9lSCu69PfNR2zs8IMAhtbgC+bu6bcSQtxqj0pq+S0C7BTQrdGilPaXsMKsOv3x9xf5F4sPfVwFaTeQpMbR1g7gOIN41oJUQPuplcoaxrr1LiyK4A2jMCDITy/yKbLrMSoGkj1jot63xzetycNkEtHFP4/bggeUN42F18sB4gh8axNNYCzMfj3wMBGj5WApYYts3AbT4nIaZAsyUIFFVUFwEFaBFFxk8o9W9tWFHbJNXer9xnZZcKcDWtIYZX+njQ9AZm2Mu/s29rgHHha4WJga2LNoArQFK14nH54GNwQgAQB1P59SfIZ0QjAgANDAzBKdbIkikDNKod/NDqzG00jq+K0Ar7SmGmRUMTTV82ATQ1IfSOrsFaP/lv/xt4fX2iHWA1gx9sCKtA4JNv48Nrd2zyWaPbYwinfpXo9nr2rl0igeGEVkfUnADyMDQ8A+Axoyt0F4HX7HYxsjOGr1Swf069r3Z0LjOxbMc0BpRJQIaU2Sbzgc/2pg1sWbJguqNjiJyXOBRpI9jGRdl6eTl84IOjfOD+gyu+2KUQLBs6p3sw3xZwY94UwwJ8vw3/YNRxn29IIqCwS2LnKojYNXcm3nymqCKoGC5OsRlJhPx5baRx62CodE4MBzSsXZ3b7cBOOjM4HuGfGi4BoDWZPmtONZW12VFh1YCkrsEtBzUaoBWa/cqQCutj7ztnQCtdsouyaxBRLlLlnbXgBaBJi7guwY0sRwyB2do0KFFQJtNbpYcXzWeEaTUXgHGKoCNRgGlqo6Apu9td7bOZ+AA0X8uZp8ovS8aBeJiK4FU9C+Lz2qcUwtiPvvK2Ms2+Jz3hqSSihSI4yKGOugPl9w4BGgQF9leAA8STMotA9bHAGgY/4nHZlqbDdB4sIS/eYAwnAwgaqX9NHYQZ3G9XErgtiFAG+0dpN29PasQ1YPLxg6zbOzsmf7M9KLW95rI+SEC2hKoeR3TVet16YDrYBQQmEWcuQVoCE6XjJ83ogRQmIguzKjWsdozuoBi7RmbDqZO39L1tXasat/SgIf0QAzAvrq2jLbu5U6rp+tWlN2C7fB8/NKRkUGEqIo4/mJmEje5+XyDxUNH7EYg0ABo39IHxfhHZbVQ/GYLjJacMQJJPBik82pPUK/UlDFRAdoSiEPEm1puNT0nn1uBMvs6bUVofM66BuMpx1N9hRMsfjiOIbyJYNa3LB/ESmQNYVof+5FLh9ZEZMzR98/6aREY+B2ZNZC4UfPDdnhgvWoFDHf3aBBgmb7tIcFs/+AgjXZNzyZGzqpYFti68VKuseq8HzV2ZkvvdjGZ2h7Rc+Jhxr7zEGjjSnOWtWqv1dhkA5gxbC88aImgIDhdFrNNR68LkHQFvw8d0GpjFMGMfQjJJ5lWaNwWHVEiRC0WzFPDaDzzauvrZKG82ij6XJklFMeoSc0BTe2NLK4Z416b4LHZuO62YE7A9tOA2NwSMKoteqdEec21XW8LO2ef8Z64WRYTy/Kbb6oIzALuyU1rJcYzIqAZSC2L0cpP1mRVC8kdsYelRyNbDxgSN7/6GAHC+umA5qIsw6FUKd11dVaabzsNRrtpZwRA2yag7XkOtP0Dq1IWAc0i4jfdkXUw6gJoXfZeXBfxvvcOaNChdQGoGmLXhv59AFrX/qw6NTZfUp6BQadcUMQTTJCT32sNSKcmZgQxkToWF3IafYxndFAbBGbonxxRlfe/iRQIFtRmY4WyeWqDUXVwiOUU3Mz37x5Q9NtykYyLNgBaA7jeX1F/ifBTsqhWD1uakwbsAELjmyauNY65ntcyL/ihQRcZAsVnyKxrzqxsZtALKtCc+sEegtcBYJYV2E5+WCaDGtmTM+bMAu2Qf5naBHamilKYMzJEt4ZCtIWPmURRfj+C/mxoLG13RECDMeDgcK+JNOCB4c0ppHGrLscuDK32kHXPyO/TQRdZrCIF8vFbJ9k0LCx7ydJzNmFof//3f1c1CpQ63hUs7gLQ7uqdXcGpy/WakOZUz9KDQ7Et0AGgwfLZMBJYPlmyrJegeI+nNYsSe0PiOGCDYEEJoLS4kOhZiwCbVuCoTR4BjUJRzFjrBYDJwMDUHMzEjPqeURbfi01EwFvSTSHxowNFZGkCvvxgXHiled2Tby4BGvs8aRX5CEOK3+UMTe9GvjZgNcRLjIEVIIEjbMiSi35vtSbo2qZsxVUwVutnDmjK9IxKUMrE0d/eof5sb3+XhgAAGpjb3r6l6BbrYUjCO2RotXW9ShytHfpRMrGxhpXzPYqcqwCtC5BIDMk7XkPm2rNL13dpB1mOzP0bIFKtfV3bLUBrNmLMPe/xiNr8MBIA0JTqHG4KYA/o5zYcL73YLtogcajUlahX0vdbnpcff2uT4bkCMvlscfMUagqIoakyPK5XeBZiGlUhCmsXyRMbcRT5KDzjBD6fTsdNk1eyMxdtAfhRHxP1ehrbxpl2JteJ1kHaQM2gX0Av8QeJfszlQuzNdGaK/AJLg87KklO2YVo5a8Bzl1w0yFhnTY43ghJDpWB88JqiiBbw3ydI7AhH2sN9BqQD0FgUZTRsAM2ste7s7G3ZYBlX9V+6t8Q4S4yrBlzrAE0HlKycHyRD6wIk68z0tUnJ31EDtFJbaqDzPgEtMjS1mWLEvPUVg3Hg8vKyrU4+nnB4cD1iMZUQkGKOGwUiAzQWYq4WOZPJAa0xLrhnfeOvRuZnIKJ/bIPERPcHizq6LcY0Qmdks2nszqymOtCkeUOtUv0oDyeuaXVwfJul+2BGDU+06EjTulMIpBw8KU62JfKW113rtkGjgAMVnmVjJUW+h0A1oiYMBaaE3yKIGEPi+vLElNbhNiMv/+TYWXJKBqg7oCEzLUKYAGoxjf3VbEZx8979w4SUQTAIUL+2YyyumU9naGzThj/rxMUIMLV9XXvGKnExHkImipsf2tsAWn6AxL/5vE1Ezn/4h//SyQ9tFTCtY11xYEriyIZz11zWBbgEGPk7apOovuQTU2pjEYT9woaSuy+V/hZLU+k7AA03hefKQt/A1EwHZAtbrgAMgmYVJvtcfaCIGRiaxEJcIxFVoieBpW9VksTeuGH9WlheVfGdojEcdpU2J2OfaEcUgcliYFxsLIkt+9I84DsxKTx74Lq7KPbENSLQJch7osV27sz4YGwR1dmXw8qwx+x+Y3EQM8UA5WvWgC+LJJtrh8ZWFml93rYRGTfMD03FTaJ6AIp/fc52b20R0A7vHVjKoHv3rN7AoA14t5d6VtoOVs4uksY60XKTNZ+DTfP+jrGct0Ar22BLbXVAWwWWvfcFaM0CytxAVp0GOZh8KIBWArl4toqhSTxDu8HSIHaSqaHupeuclBUWmweABg91AZpEHmwSAVoUIQkkc0upI5CxU3PZzUF/87u0YOWmVk/mRT/AQFCqzivTMxbVzfEm3rVxk1F3JuYI1rEEWn59dBFS2/HfvoNUbGvD+kKMK56peEsAYTyoAHTNAdL0uU1nw5qZ7uNmurN89yDN9nhJrBSQYi6iPpLvJYOyNqBfDctyNxuJ/Cxxt9VPc6TkHu00DO3g8NCqPwXw/wRoy3PyowG0j4mh1QBtieW597uuVRJIAZoVCxmzSrnAwnyorEZnLCcYmZlEQownGcTcqrbjGtVUxTtznZTagXfJUopnUODCs0DfFgu2icH14zEZmomPBmgQ69p5VEC3fWdZIzwAHDIixTmrlWmnsuowTFlBqucZdXMW31ojDazIxNz5VTo8jUcENB0eZmk1x1iTZg3IorFF/hHUpS2M+ca5wz0q3hIPA+uLFxV2Awzb7/fLKANA48GEoPTdUbr/4B5FTtQRQFjUJ0C7nahB6/NHA2hR1NPiiQupBBIfMkPLxe3I0LgRgxgkUUtgAYam36ee50ti4BTsZQsFeXeZYkbuHfJDExiJkUHkFEuKlYXENAQKkT1J8U8uo8peRYbWxkDqnhY42qwdYnsmMdlISPSSDq5lUh4V4A6quQjSglUofpJQlDjkMPOFYSVQ28/5d0jK285Rf7lUJ33mLCP5EK4sGXXT2KptYsAENBgFUAg5FEEWoOE+jLPY23wHFs299ODofrr/8Ig6NDK/TyKnH3K3tV8/GkCLiyYC2iZApms+FJGzpDsU02lE6+A3JV0Y/svCxDdWoBhsDeXvmHro+trEUeivFgsufJzo8C6XOBrZlTYO3DYkvgpEBF4S8bTRBDxR3BSgQQ8FtijmSIY3M0sm5g5/x/J7+EyiZ6OTC1lipRzPmSLHjnRtORWzwEMiswAUn/e3LBlkC9ItcApgwdb4vRdGieIrKFFzeKKwSjh9dhzQogQRAa0ZqyZ8ytpN9wx3vZDoie0pdo3+T4cDAtrRwwcNoJH5fRI57xbQShuSS6SDUnIVuyrpxUqfdXlfbF/X+yJo1nR2tTZr42rDxY28JGLKf8z/S78u9yijwh1pa3C6u/KdWW4vLwliby7epIvz83R+ft4EtMNRc7QzIkvb2z9IKI8mkQubdjgYMpngMAFozGVCYlK7yc3NgC5OjDe0dNZGSCx+kGCnegcOaA0A34zNzYhuGQA7E481VjxgiE32Ho2RRODWrWO5UDA+n8Ftg3pEUxnSjYUB2i7eCsBgWUU1dquZx1ZD9KU+TY61ALHZnA601jd3FuZzwZpiERT7Xkt92BRmdv2c347xbYoyI8MG3Wx8JZGhmQEA44owKAKx2OkQczNM061e2j8AQ3uQHjx6SIYG0bzvOdCaw68RiW/nqlu31nORXc+sfb6KQDT3uIfv0jNkoy6m3gqF6jIrcbsL7M3tO7QGs2QdwQ+zDdwP94VnUPr4x3/8+85WziIj6QB+pPeFuLEaKNZAJ2d2XSZ7HRMstU8TEF0hyBhczxUXT7xf7W9OfddpNdc4wMFQABA7Oz1Nr1+9TmdnZwyZYk5990DHptk/uMeAZnuvMQM54273DGTQRiicY6wmxTFaQU18g4NqIZFHw7TwHDJIxZ/e3DQinQBN4q2Nfd8AGiDpwCk2JzEtgj5+l5EA4MrU1R4Gxr7Bs9/TH+FaVqifIYPJlQFvqMZERkaPAaspSrGeoIoaDl5GjnOFuqghf1NvnlAmTwfk0J1CNTeeAq2JzLALPfyLtUQtGy5AcrA1NMdcL4OHmFH84KDZQiTINuZuv9GhodITUHEwXM4nxXhabuTugBZBogRitb20Eticwt5ax3JticAUXCvi9UuHfQZCpXevIhRLQJgDGqycXRnaDw1oeQfyAdgU2LpM5irmtuQzFPVOwY1iSfbPBz3ERwrEuQFvTOw8PT1NL1++TKevXqcJLKCTSetakXppZ7SbBogHRErv4TZDbGQA2OlbWI8yoOL5JuYZ45CoOJneQP1TTPMsEQt9UMZdWiJD/UrGTyJGVYV9vSZmo9PjuNBmayKwvN+dCRqA6KQ1NkPXFWT19bhGqtzDxma6H6Y3v25PdqOb/Gcns1fT8iLDQDfMF09vr4QVAQ3JNuN63g6uKWqj3ddWvEJBkijCmjvHVtrquzVTfmw0opiTLbJubB/spUMUFXa3DWTesO+X/c3E5lUYm2wv5GwrAUAEjFVA1mUPNAf0jwnQEMupDVoDik0+X8eO8mesY13rGNQ6UNsU9WvvKfUnX1StcljFYe1pZEKBgeYnm3Q/2mzNgp3OqDu7uLggoL16+SrdXF6yviejCmZgX9igEH9cSOxbxSEB2GiQ0vb2Tjo42Odnpmc0C+F0iirlBo70cC8nVyBoaAMD0PAPbd7uGzAIFMc3Fp9KFkUxFOwJjG5MiyaKi9j1CDp3x2FWQTIn1+lsQl83ENAeUnlAKQ+v+i3zuOe44X53voWBJBYZNpBC8sWhWXj9PsyBOdH6PCgEyxmPqtgTTEJqcjJGH5Pm2XQDDK4vBLflZAFmEICbihUSZmwoLSyopO4GESR0fHAv3X9wn24bylJLEbUlkAbJTWX22wxtk/Ua11u+9hopoSBRVQ/xHxOgIWNtLdtGF+bWFdC6Ata6idzk/V1Op9rz8sUSxc248GsLSSyJgBeLLXvsJDY4nG3B0l69epWuzi+oU4N+bYJCG7MphCgDleksRSsonDRHg17aHe3SeAAFNApxiKEAaEzvZW4dBtC3R1ZVqqLRAVfB+VWAhmtubsxFBGImr51O0821GTUQY6lyb1P4xrHISI+Vwqngn6D9YwdXyJlQ9oOdDZmzzNpoYqcAeTaZpeuba9NdsSim6QJlRRwMtq0z9FuzqAAC+cQjMaC8V/C4UnJnDA2AFjc9LJn4Fw8oAJAYWuNrhlhcALiqQYk19lun29G9g/To8cN07/49xnKOdnftOaqk7FOxiqHV9kF0b9GhasC+XGdBQN3lwF98ArS7giutz3IISE3UXKX/+r4ty/VnjUUrVClax9AEalpcsojy7zkyR0yoS3v9+nV6A+PA6Rn/VtohiIroOxgRU+UkE6vwb89Dp8x4gIyoFi9oP7bBxRBroC1GJh83siAo7j3fvqyzaI9VQzJxEZ/jXjC3+Xy5mLLYLNpo+jelCjJjxHRhef+ha8K7ANwcj4QwItNRgcqNJ+NGsS8/L1pX3bPf+tTGYzJZpFtQAYwGUH3W2mSKJGdoBBY0ZdpWmLfDygwG8TCUVVKiOcX9AXKh9TkX7BGfDYZmtTjpQrM3So+fPKJRgFlqESWwBVF5mSqv0qHVDuWugFaa++q++bEBGpa6TO52wLXZFDYFgHh/fk/OVuI7dK3EuXiCRMCqiYCl9pXcOfT8/PqS7iFfNOvaURsjKczjiRn7F9vE393DH/+9Rrzn+UU6fv7C9Gmnp3TpIDMbG8Oy56PEmjM1BrfD2mYGAaR4htiJ1M6DYVsMtzS/slYaUBqYSLSU68HcRUqIleMxRFGrvgT1nBTxADkwzF5/+1ZeMjwbIrW9v2d5zMDm+r10NbkmDCFlNXRHCMoH4ODBYKGjoXnqo22Id0V2Eq05ARtFZfcJk6sK+gV7Kf/rbAucT/2lpBscaftZCnPcA9DRD9vubhYm5nrxFUQKDAyM0X6ucfztER/UC+4Myc7A0gBojCDg80s6tKJ6sxqEvkr6WCUtxLVbFU9Bnws/8Z3NvQTnsj9Zvg9q+yZiQbwn7tWIG5I2OOZI8KiTJm5cxeaVXloCl7goap2PA6Dr1ZgaiAhs1w1o/P5tAU2DV2pnXNCbgnyuR8v7yLM8BvIG8YAhR1fX6ez1aXr18mU6OTlJl0g5NEaRXUv7bFlZe2ZZ9BxfCi7H/A0dxOgDtj1IOzAeuAEBIBcPIflXCdDQR7EufEZrZOqnyzeXDNm68gy8EO1MLIQHv1lFAVo3E8SCmihqm3aL142nE4sX9d8pMqeULm+uCFy9Qd/SYiN2FOzFDRG7O6O0u73DoR9CAe/JE7V2UR7Q1pQ5uVruM4shtbTeYGc4uL0+p3vdoshJXPfoZdw4ArSoZ44MDYBFsHLwwr18J1MRmQVa2VOGeyPqzx4+esjCKHLziAVOuCkV/F8QTN5G+vixAlq+H1cBmq7t/af/9H+yLqdOOQGN9C6bMqASyOX35iwpgqC+K7GhTZ4d31W6ftUJFtE+R34usI4uKaV+x5MGwTJNe4LDLa9pMkOY+8PN5RVB7fnz59SpMY/atYlrEDlJBjyNj+YsjrM2OVgbNhb1bCiZNhryv3KboF+cLJbeAYmmZDfQZ/UHNFicn180gIZLbbObFVCA9uZ6bL5lLopDxENTAdT4UYJK3IO1B+vu9fiGgUQT99GToyo2+GhnJ+0jQSKAoxHpbOfDAEFjwrbllDNx0phr41ZCYwpEUw9/AhPj3cvi3tDTOGkMBWitntmyPmjPwL+MOryhxd1yOuSbt4VCw5atlv/2dwloRw+PyNDwnbmetGLu+wS0uEaX9otHUtTW9dJ9d8DQOCuZ7i++O2eGEeh6//7f/29kaFKsNieeez1/X0DLUTVnPzmYREDTd10BpXb9JqC2DtC6PKM0CbhfGewjqDXj5GKnFslsYg63YGjHL16kVy9fpzdvLlnEWJlbtYFMV9aKR/Z5m+liMDAFuoANiQatFmTr/Y82RTaCv5skkrM+2ZcKJ9MxdyklNxTwU37/5gbWVAMUtQ//BeChr8wk4qoNtBtADUBD8ZExLJ+LOV1TBgCYRUrbsBLujNLOcDv1WFjDYzthT0B22OEgjcjgUCawzUJiYGxAR3bGDCPw6XCxUDo0+pQxWpXT1h6wBl4Af3wmL5FG3AUbHMIPEMaXgQEatGJUpFnGFCtRt512DvaYCw2WTvgRCtA+FIaW78Vmfb4HQIus8pZkEyxZNiftnPX+w3/43xeY4Bgm06RCKZnAKowlsq0aW4qN1PWxMfo+AtIqMOsKdCVw1kkQ24/fa8Bbo/ylZ8cFsnSqBCUzJySoHMhYgj8b9FZgbdBLvTx5mZ49fZpevnydzl+fphtnQabHssK2sLRpXIxhtY60yltmoVPIu2bMgVWIXM8ERgWGgx+J7hR/4WA7FouzngGwxOIshMBSHDWANoMV1Dz7wdaQrtpYoDE0Y3cIvN9O11fXaQJDAHRr8DWbW9ETis79rbS9NaAeDYC2xVoIFg3AOqdinzvohwETPNuMoZmbi0kg8LdYsC0cdznaehgTxz1Uabe5NmYHULIxgQ4tlK0zimiOtbTQDuhoawEKwaVmNEq7h2Z5BqgNRzu8lvGgWVX79yVyVllQjA0LF+VMiQfBHTG0iBVVoPWDZwnQ/uN//D8WWIQCMZmh8XdUaq/asFr8JYDR6a9TL7KuqOvSiRgRdx1grft+XZvxfQ5oArb4Odemg0yXMSlOOHZzlhVVbEHXC9C4+VEdCif/YkHR8+uvv0nPn79Ipy9fGQiM3RdsNqfYhaAg/Uipb2JdyzpMyW/Ah3nGZtU8xTZLrJKifzy2vP1YI7DgxUwfTKaIMnCebuiK/mmtP56JyK0zLq7VWIKhTQGWiznZzmQ+Y7VztAXt2x1uU9QUoA23zD9N7iLoNwB6b2RuG5zDhb2PCSh7ZkAQoOGQ0PxCIQ/9G0CcIrsXasb3aB+soBoHk176NLDIqswQMrSb/oCmo0Rcp/kJWpYUWJwRqnZw/x7rcoIZI1cax/EDEjlr0pTcNvL99C4BLeJFDm75e5cADWXstAhEo23B1svVCXTEZOLfcfPnTCcOiJw3c3NzSaFfA6YaoK0DOn0f25cPWu0ZOf1dBZq1iSg9Q4CeP0++Tfge4iesnScvjtPL4+N0cnzCmE/o2eB8i5/h0Hyb8tO2SQ5Jj3b3YKc7hOlPUcvAjIqmJKdnP0OlDFgATtcolNykq7WCJFOGOoHJqEDJgmzuYnLN3GMCLQAT7jVXDyvArEV7DUMCkxoiw852I/qhDiheMhz00x4stqOdhLoG+71tMkq2e2BAxAyxzB1n/mf27BnJj5JHxvmure8+/N9oPfC4Vvdzo/HCQU9gRgvnlrlqyBK8tYOknBZnypqcu+YTSMdnMLS9Pcuw4dZRs74uhz7Z3ClD6/KKqK2/TSSHEusprd8SUJXArLaOdW1pTa8Co3V7q7ZH4n29v/3b/9wAmp1Aq8EsMqzY8BzI9HetkQLBHNDWgVEc2B8roNUWUXFRMv+XK7AXie4ScLR9dXycjgFsJy/T+evX6YyB7JM06Ft0gOYR7xI7AhNsmIX7YHHO3SfL9FJzWiDJMFivsk3bM3Xjg4UgmXg5nZlbBRxnLWkGguOn6WoxY6YQAJgxRANRgpz7qwE4yOrgTMyIgTmjBJTkEuIlLJtIFrk9MCDu9xdpv79tRgAwoqGJbWJz3xfQtgDoFE1bQAPLUuYMjS37Ayus1xAgoAGoYD0GsIL5DYdptLfH+M3d0SgN93YJbEoaIFZcXscfF6CVyEN+6N4JoMUydlp0Or1WvSBeI3DKwW4VQ4ssKdLLHxrQStR2Fevq8l08UdadetXTx9NHA4w4P+5OcXXxhv5pz58+SycvzFcNivXpjVUHVxUpPZfKew/8lmWTQhHcHBqGYIDWKMZdxc2CKe5dZCFLHhVwM0ljlOdzEKNV00OgLhfzdAX3jZtrTwRpTATiLa4B0InVoG1vrq6o74O3vzLjQszc391Je7u7nuvfWNJe38Q1+tdRGW/AyMNRDI1ttj53YWgQFsG6CFR+wDdZNJzNNu8CkIaCKHSw3R6mNDBHXwAa3DMOnKENRjuNeC9grDOrjw/QVu212vrfBPSWGJpScAugSuLYLTFoTdrsTZ6R62xygNsEOO6CoeUDFge91AaBdEmsyz+Li7Ukfup6fSeLodrAd7kBAbqdhtVi/OcL+qVB7DyG+HlyQlA7e3Vh6gKXWpYOJQdFsTcxM/u7tUzwVz5gzuwX+kE5ENMtmcvINRJTwjmWhoAx/8vIhfksvZlN0wVL9YF5zdL4BgDWY6Ujqx5lAAdWA8CEJRdt3RmODGBpcUyssUDnYICEB4nvD80fDf20PGuwMlrcaDt/Pl7Q2YdsGrqmJnIOGU7lAZuhclbjQqIEmCpK7AYJ6MjQl/7QsgwD0OAkDPcM5LFjH3Z2GuuuQLG+kT8uQNN+z/dXnLM7YWg///k/3HLrXceSIviVJmQTQJPjrkz6muB1775rkbNGhWuD26V9d8HQ1F8pqfF3E1w9X5CVKe7zxYsX6btvnrOosTJh0NFWtQDA0vx+PofWOeihTMlNBgibhamiDDQIHCZOTkNtAjjNQveF90wmM/cjs1AosLw3s1l6c/mm0b8BfPGDTQ/xy0AUSnPjT8jUCxYKMbKxsrqezCyhgzR06+HewFw++A/tlz6K7hxu/LBf+HeThyNYr9Fx9CEAACAASURBVGuARsda16Hh3iZOdIjQpmXdJNMVDdtswgAsOAYT0NDm0Q4BHGmClDyA4qu3S+4xZUPTxwdoEcxKB/w7AzRtotLmjWAlMMgbEu9bxaJwnwAtirubsDOd0DUWteoZeR9WDfSqsVjXznxc8kmM91dFzkbBvaCOCbIfAqxxPTaE+aldMe7zxfGL9O1Xz9LVm8t0dXVJnzADtDYpY8/1WQyMdwsfNy3+uS6NrgmM/W7jGFmyzr3owWBgNLhhsDvS+SDc6dr8yOCbtpinm9kiXd+Yzxlyo11eXlFsBXiaHgn+b4ogQIqKibmeIGOGwaiBrKd5hGUR1l+UxwPjsnQ97ig7NzcJGAHyMbUnLZ/Zzfy3k9vcRnilv1rrukIPgCYe1i7FehWgoU4AgIv553Av2g3mNtphEkcCGowBEEm9XJ2eUTv07tIoUNunNQBZtU7z8Y17R9+V1Cu5NFICtNKzNtsjQbpAgsdNLIv5iRaBSpNSAq9Nnh0bvQoA1wHI24BP7X05wAhwazqP0oTVnl16Rh3QLNw5XwBkUlKqTyZkavj34tuXBDckiUToFOoVULcFn6zJpFHQQ/Hfp4WwT0W86YkAFIlipjzkdeigzY11zzc73BXMTWNCcdPYmqUngssCGJgZJCbUsxlEwhJrAMHoA7BEgN70xsRMZukAmOBe+OjNqRO0LLomziqaos20azzM3Cxa6zx/ZyhRLOZiujYdpPFgxPUAy2jl5GcesxnXORX7w0GaD0y0BGChohPCtihubpv+DKXqAGr4jmmRggtQPFi1mVswMB1g/lNbUzV3Io2H/AXj+NSAa1NAiwC2jl1pzd9ax6UkkaHTm7QlXsOMtfHUKCFwiZ7ngBYnahOAqoHTKlb4IQBaaeIimK2bWPShBoqlexlXEFiaxkCbV/ow+YRdn9+k09fIePsqnQHYXp0S6G6ur5lAEmCAUKFGxFRNyaFnoCALC75X3l60GUDEvF+0AnreN8+uqrhPRRVsI3urhx+Z+Kv02mZVBUjhe1tbsI56pXVmjDVORcvp3OqVcsN7YWRZTpvx4j1mYW1Bwu6xdN6tD57WaTxAIrAgMoH9CwyNB0dI8ChjRh8GAPikIUoBVkwE1rPmwRarO6H25r1798je5Eicg1jcN8uHWlnkrO2BuwS0yJTQplWH/m0gLrfwBwM06NBqgCYl9TqQUadrHd8UiFaBYunZNfDo0o6uDG1dX2pMq3RQ5M8q98dO6hJF12fM2uC6o/5siwHk8E9DxtuXJyfp7NVr6tnGdMSdkO2Y4t0U4BDzhmBBjciZVX8iwzFx0ayKcAi11tP1AhXVWUXd0hkBgKmL8iy0SPlj3vmWXNYSulpqHvaO0QRgjxCNAfiergchN662ErBjTaIPcYMwuwUAbSpG41lsGx1gmxMssixjggZ6WgcQcul24c7PHBMmYXRQdZFdDA06NMZr7ljWYOjOwNwgVrNU3f37jWUzB7N87X0fQFvlh4b3bMLQSlLGqvUe1+S6g/yDALQcndFhNTxnaCUWt27zl75fB56bPPN9AFocm01ocqkfNYZWKg6B9zXB5C5m4f7hYth45MPZFiFSr45P0tOnT5mO6PrqiuDCAG+E8LhBYBthOM6YlM6mVYG7ct2dTJsU2e6DZfom6NgsZTZ+Bu7nAUY4mbYAhHbDQoofAJpZTOGr5g680IcR2Oj51aQlYviU10JgOFjQvxoQGBDqB97tNp6L1Ou3Xwg05DaRH6L9RRnQZOXU9dCX9ZCIcmDxmhAxCWyjnTTw+M1DRAYc7Jsl1w0Mal8EtyIw9CxudLNDbzlfW354bgpoNUtkba1+kID2T//0j9WaAnGySwDWLB7lfyrMQBdwyRdXPvmbgFntGbV774qhlU63dadWvvBqDM18q0KGDtfD8NQN8bZk1DNzUqAvF/KqoUbByav03Xffkamdn51R9KSIgoIhAjTmFzPxrxkTAYLmFUr74ZCbV64eLOTRJFc0toMfhhA5axTw6tCDCKrD0pJF3kBjZkZJFzkJeSworJhMD3J3sRNfs/+zNt22vdkBkfnlLKaz3zMXEelzo+SRsyZkFCnp0NRHvMF84CzEKSEwfmTuGACunb1R2nUDwWhvN8GdowFDH5z8nWVAM+vyDw1oHPYl95fyzonrcROp5AdjaAC02OSSjF/6fhW4RJDQItaJugpwurK8yIo2Bb8uomvex7x9EYByQNsUfOOhUFrYloDVQoA0UQKDkhg6n7Yl4ggo0xmtnsjU8frkZTp9/ZoiKUKPegxqtzhEhBz5a5qEhswjhuBsF7kgGtJp17326a/lTIviq+XG5mfzmWXEaDaIl6dT8kheu7B0QgI4BpsLlLwuAJX38H3z/6I9eLTiRNlGbkBZZOOG5NubGgASX82gAhFSsaZtPCcr1cNRl8YKCzoHmKFlMw9cV4ZaWkMHiZlnYRSA3gxgtn8PBYQR4bDDjCFWYR39tQryGhMG0UM3p1Q5S4um3ZabAMa6w7P2jKJUkCWlqD37bRhaXO8RPGPX4/tKazx/xhI+lQBtHava9PscHKPPWWnDdwW0knNuCeRWAfYq3UMJ0HTKb7LIuoJaPMU0kXFM4uRGAI0LQOl6CDTugAvAuLx4k85PT8nQzs+s5ufkzRWrSuEnpvPJAdN81WChAzgYoBmbC/+yYiLzOfKeZe4SCaFb5srBcfR045aO25T6ejfapL91GGp8ppNWJ5RvttJmgNk2rkVZiAm8DiZMq4QCxhD1aLQwVxar4WnxmoiQMN+5IVyOLRJha5H23JoJUNs/PEh7BweNCIp4Tq1JJZPU2sHn8scsrZUugNEF0OIeKY5X1ph3AWh6xToDWQ3Qam3qRUDbFFC6ABpeHIEn/l0CjHXPjvfcBaCtWwh5G98VoOUAGdtVEmfjOOX3Nro1mv6MsUEERApvlsmDseDly3SO3GoXF9S5YTMLuJZEMncPYSYK1LBUhlZ3GbH8YHKVMJ2VAVAIZA/ZpJdAqylYDCuoiZb5JlbfdBjibwCaQC7fkLf+NrND4+JC0dP96SKwyIEW0avqI40toQKVCCR8zSjqJuRs66ejo6P08NEjY2mI1/RstErP7ZmVkKCpATcB9ydAK5ceqwFZiZ0t7ZWoQ8tFxSoKrsngGk9DLMQIAmQObgKvsbRNmQ03WdAtRfE2f4b6UtNfbPrOHwrQ0J6cbcZJzsc0zlXDbEh7DNAYcA6fsMnEMnacnKTTFydMSYRca3wfFNdeU40+Z24FlP5JgGbVvsFcYpFlU2KrHXDTKDE0ARHFDS9KjPComAwyiiLrAE0nvMaqCGh0PVBWZvOPWzoYvXYmHZUXU7P6bu/QWonnmnirxI3m4MyDGU7CB7vp8aNH6clnn5nD8M52gt6MVtGwT6xI1SdAy/dZF4ZWOtjjWuEaLgHaOn3QOhYVQUNpghra7eJGrSPrnh0HRO4mela+yUuglgPapkCm62qiXtfnlNqWg25+Gq0CNE0sAQNMpwnHtJz65kRh4UBIwAhQO31+zNqfcPFQhXR8D5EM2SxYW3MpdrF1rt1ibKVXUGJweNsjsimklQ4Sp74mQDDppLFGAB/AzCqnKxmlMn2wwU2NTQAyM31Mb4ucpTXbjJfEb9dZRUlEYK1ICZTcGzCLh7lgwNjKuqOsmQAwQ1px2AK20i5Sah/dT0cPH6ZHDx9SZwZDAao8WZ6z9ucToJWZWBdAi3smZ3DN/hSg5RvdFl65EetAZxNAq7G/LsDQOFyusLJGUBDNF/vp8q4fGtC06SRq5axF7DQ/oRqle2B4DGz3sCmGD82soPHZyat0CkPB2SnDp5itA06wkykBje4ZCnciHVs0RgFFKTDhIZ1kW2W30T3YKTMdmouvlkkWySsthTeAbDK2dETqbxQxc5YG8RSAGMcGr8yZv9ZYjFYh0DsQ47+KAmA0gidrHGyZCwaTN6KiFpx7kTwTbfWapmBjcMt48OhBun/fHGgZbeFWY7ZZySblVpNiPVTT630SObuJnLlKIt/LvV/84ue3bcO+e9cBVwSEXFyNLxJLw2dYFNqMJbZUemeXdnQFq7jYSydAiUnln61rX36a1K4v6Q0im1h1QjUHhIvgAoFGJPeiIBL58N/p9U26On+TXoOtMargdTqDWwcKmbiYivmCGIoNPNhGAWAXYaFLQ3yl0le7FNceGiaCLononrVW0Q0ANItwQDYO5FEzi6eBnAWa54zYvmtdOfA9a14OBk35vchWBRp6ltwvwJiaz5Dmm6mIwKxg/OizPijysCGnG4AeYiTrjk4nTNj45MmTdO/BPTI0RAkozxnbW1PJ9Cql6gsna1SlvO26zO/LxfH8MMwPpSgxlBhRjZTkxr9VhrfSM1b1PX5Xkmh+EECLejT9XmNLnwDNlmGc6NKYlMDPb2zuz1mO8oxZTOQ8LVC9HIHll5c0Drw6ecWQKRQ3RmD7HIzJU4AzJ9nAHF0FEkjjzbbSN8uKkBhIQARd9p0z7xNT5qs/cJBlWBTrfSIWFOmHPAWRGwj0TAFxBDQZL6TQr40J22MN88SN7e+MH4UrCmt9IkJgm8pE+tsNt8jQbsY3TNgIvRiYHBgZAA3WzdGepQ2C24uA+scAaAK7OGY/FkDL275ErN41Q8MJXWJoy3F3rQLmQwe0wmFa/UgbOAeodc+Ip1AXNsc9q/Q5BaYWF0JzinrNyvHNTXr98mV6deI1QC/eeGWpMTeqamJKXAMrwobXhgBbE5s0vZSxcRkoaDl0nRzuodjpAe3G0Npq6lHsLLXZdG0mcgpcleI7H1uFUxlzaoVgGjU875mAiuLnYOQhYQ7ArOC0SPPePO3u75GdPX78OD1+8oThThbg38bGrpzbD4ShxTW1inl9aAytBMK3Dv9PgFbK514PJVkHRkunRaZXqlH00jPXXVtlI4Hd5QwtOnUKNFm6zWq7pYvzCwa0owYonHDPX5kTLsVOFM2FKOab18Q8xUIi0aICzd1QwISLregI51xl0ZVICV2dgtnHY8vSIQCMLhxatGJplnPNNCUC2LrlHCjm+j26cNifTPED4A254OCOMUBNBs/GgfYgPGyAIs2jUTq4d5AO7x2mR48epQcP71u1LAWxh+I09RPuwxA5PwHaBrt4lQ7tYxI5V4l/+TCVFs4qtlaj/KsALwc2S7PTinsEAY97jPo4XuPsQ6CGJIsouII6BSfPX/AfdGuICcX1WwvLmQYrniWFbHOGWfyneevjv8Ntc+uQ/oTAkyzDrIwCADRzBDbGpqSUkdnFvrcAvczopceL7xLYMRTKcQTjwP85oBkjQ6ETC0bnWPZ3aBDBdajyDhaGsnOPHj+miwZ0ZQeHh+ngcI+GAuaG8+B4xo2uArYPhKHFMf2xipy1A/8H0aF9TEaBLoBW8xWrTkYHRldjaCVAE6gJ0Jp7GUxuSn76n3llKWTlePHsGesVQASFr9oUDOraUvkQzJyRYXNIxBRY4z3bO63BoAHx+YJJEJVqKJaTAybAdUQsTelwSkYBFVMWkEk/lutlea8HrRuAe38DoDEe02sSABAnsz7ZGMZxupilg4P9dPTwQfrZH/9x2h5tU4cGA8FohErplio8qghUj6HIAT4gQCuJmj8WHVre9iUyBZFzlZ6mxLxKGzKe/iWxaxV7ya+PDEMbRu2otfX7vFPAEzfRJu9ZR1zXiY3r7o+iVu3a0sKMLFBjWbI0GbMI2T6ZDNFCjuDWgWiCF8+eJ6T2hr/a4o2JiEyb7exLOqwdpqjGveZ6MRyhirsFcuMHxgfkNgOgwdiAa8HWyMbghzYxt40mdfiKuhU9z7qhvsuXrGixZu5/r2JluTfSzCwbVpR5ayiJlH+Pt6z/yDI7Ygrt3fTkyeP05MmjtLMz9CD0Zf+8TeZx1TW1dbLu8/h91Nfm8197t+6JgNx1ndXW6CbrUnu7dm3+7NohHvtOhvahAVo+IY2ZP4hSrUhxewpqrhg1dpUzl1WRDF0W710BWumdtcnVtfF7MrSCTyHL1GWByIoWwKa+uLgwUHv+PJ28OEkXx2dNMRPQHVaIYtFiFCpBBlqJXxDdEPtoSR2RGhuuIPRpg56q7yl3EBPphoPZZNEULlZbl/zHljJAWMV0QbGCvKt5/VyHRn0XsuiSqRFt09YAgNZaX2fbAzLF+/fvpc8++ywd3jtI+/t76ejoPvWELJvn9UxXrcG7WCefAG05Mec7A7TSZNVA8S4+jzqSyN5qwNUF0GQpE4hJybzKd2bTxfpjBDRuUq8OBbZEUDt5mV4en6RX352k07OzBIsoWJX5cJg3xHAwdJ8zpOtB0p55K0LCu346sQrlrFKOKuMQSS3InSGnE3OyjcaAWyJyA74hkWNI0FgCNFNvqaCK6csWsLzLvQThTq7DI0BCrNzqU/H/+ed/lO4/uJf2kAZoB59b5fQmuWWlGHfXeV8HXPl6q4mL8TmrWI+e94mhZfmcNtnYXQEtDrZ+z+MnNVm1Z3cBNDwrbpx8E23Sx3U0/fs+Y9UG2YTa10SKxnUjayBSDsmDHaCmylLPv3yeTk6OaQ2FSAq3C+ZeQ3YKgFNYHwhOR4oiGQAQ7jTc6lPkZEV2r0ClLLgEyMzl5JYRI4rHISRL99VEzl7PlP78nhWZPOcZoiZQF4GFXcAqe2m4v5sePHhAQLt3/yDdv39I8VNJL3m49i3hQu2n62H4CdBCmql8LYZY7XfG0Lrol7oAmjZeXMi5bi7XG9wlW9T7Vy3WLuDU9aQuPVugk39XU+DWRM5SW0qfAaAAQghMh1OtwOL66jqdPLXMt6gF+pouHVamjiVNeoNGfKVCfTpuqqazD6xlACunBb1LDMbfqAClwG29T+JcZBFxDMSkNQ54R1HkBPBtDbzCOYLqBxQ5YaGE0IpQJvyDIy3A9uChgRlADTozWDXxT8kWITID3PLxj22rHSBdD751QJfvhU8MLaW1OjQtrNJ/8wVWGuAugJYv5vjOEnOrbfKuIBc3RWRsXcCrdG1tQeYK3FXvWQVopQVcArQ4rptsPIv7FIsyZmPZb2/S86fP09NnT9OLZy8YVYDKUogqQD5/GBQIcB4vakzFGDATSVI+hU8b2JyBmkrZDRwk4nrJ144ON0Q5CNBMvLWge7JKMG6vdWDAklJ/MPTSdFuqBU93DQEamNk+cpod3kuP/ugzxmXCgRZisdKNA3i1Hk0Vl8WuhoH9kAGtJN2ovTWysGqdaW2V9n5pHHKWFec43y8l6aP02RJuIDh9k3hGvbi04OJpZYvU6PgqhhKfV+pU6X21jd/l2i4g+H0BbVV7SxMTga42cTlgrTr14zPWMbR4raINNIeq7QllGcrjvTx+RefbZ0+fpTdIFnl2QQdcUB+BGg8GF0cJRPgfxXsDOCry+c+uE+uRAagEZnLqvfEkkZGl6fe4YSnuQh843DHd3WArTeD3hnbBKRhg2IeLyTA9OLIg8yef/xFjM8HWlh2HrQRd8+MuGKUDex2z2mRd1UCx67Oj+LtqP6JNdCQOaoN8X9fWXgmkcpAsre1V45A/k+sppmMK6oc4VkwfdBeAFjsQlfjrGJpO3XywuoBUl2v/EAGtytDkOc8KI7dTPkdg47jBcjmepJvLG1aT+u7b79Lx8+N08uIl9WpI/42iJ8zBNkPmV1eiN/UxLU9+C2YCNdgWZqaLkwd/pqPSmsL3yBxrTrzGHrWGBIZNJAJEZmjwBxZnCRBjwRZk3kU90t2dtH+4n/YPD9Ph4SFZ2dGjB3TNwD/ti9oaNoPI98/7X9rYdwVo8TnrAC2CX9xTuZSwiknV3lcCo1UglePBewU0LbAYIVADkk+AFvzACkVXu57IcSGsXcDuOd8AHuOC2iiDZUBbpMl8bJXN5ym9Ob+g4+2zp8/Ts++epdOXr9P11ThB1wYXjUHPQ4sEOO7jRnFtiaHx7Y0ODSCiYHP1JQeuubthCMxyUMO6g+sFDQ/9rTSFsOsJKVHtfZ5mafdgLz04OkqPP3ucDu4dUk+GmgCj3R2PhPCiwEQtz/qhFB3NYi7XznzbOYt75C4BLR5o69ZEjcnHz1cBWm4QiYy5BFIlaa70rvcKaJ8Y2mqhoka/35XIWRVLI0NzFQEIR7R+xsU161mg+qA/TJObMVMNvT5+lb779mk6fnqcTl+fpfPTM1pFhz3L9tqIkA5otxmaRFADdrE0FebF+8XamlMeVssgzmq94VptkCZMqtdLkzn4nzFG6N+2hv10/+h+evLZk/T4sydptD+iHx0iBGDBbLJmhIHjc1EndOnnwwe0EphtAmo10Cqx/Vw81DVtqNoy+4/PiNJhJDfvXeRUI+OiWjVwJVk9drSLGNnl2k8iZzsCIhzNPDlDWxIxYpm8wYSiJOt3pl6ajqdpcjVOL1Em72uIny8YVXB+epHmY0tm2LAnApop8/mPfmAGQPh7OOg3zr8WXtXqrCKg8aRGqbnw7Fw0jPdP54t0NbNaByrBt3ewS0A7enjEYsAQRSGCQnc2X7R6JLEkAXMJ0OBvl/98SAytxIrWtS+CifbzpgxN71OxHvkVirnlzFN7VwdZsz4KYYAb6tD+aVHSA6Bh6/RfcSLjtbUXV3UR/qBc/IwiR4llrGpfPgHaAKu5091+W+tPnNRVC6V0Gq5r4WxuG1Il6ez5lRyeRDS3EvLBXoE8FCtZKp/Xs3TeTfthDPVkjAiN+urLL9M3X32dTk5ept4YllFLs403WPYeuHjAkdbcOCwBpFWngsMrLYpNzrLlqlICPuu/RRwAhFBHs8kiws+30t4+ysgNqc8bz6bpKo0JnNCRoZAJ4jNhBIDeDKImE46yjZCHLbFkfrgW1xqHq5of9dZU1fzT9OwS03kbsFwlEq5aPzmQxWs3BTRbGxaB0iQcaApNe5YUle3DtU1dClUSc+drhMyhLqunlKelPYubZRIB/54GHszhL37xCwgZxX5+X0DD/TVFY+mUuCtAKwHtOjBdBxRv8/0qY0uNpm+6gGvtiQxDm7LKlB3Q8mcpW2ytjVxE7toh9oJqUt99+216+u13LMBycXKZxleIKDDnW9TpnEzGaTTctvJvzvz6bvWEXxjDp2QhZ4FgV/gDvNw9v2HjBDTEVFoxEgaeE9AGaW9/n0p9iJewaU4GFkMKd4y9vT3LmHFwYHqzESyg2Bhe6DgAWu3Arm30dWvkXQJaBODSfOfMqNTWkpiXg3vpkF0GQq8yhozIXkR6OrHC1taGWVuJDH97xbBWzDcdKtYCGDHugT4U/4WFepG20sDTvjMHHhKQesaUjxbQKJYET3Kie1Z5fN3ie5ffo23vCtBQnER9V5+rfV8DaPnijc+LgKaUQNCfId3Q69ev0/HXJ6z/CaADqCE10dXVmzTcAmihyIiJrSy+i2pT20gYaTUs9RPnMBdFxLjh3dYANwCwPyALw/PI6ga9lEY9s2AeHRHQLDml/QPQLa2PSkaM2oFYOyxqoFJaV3fB0DYBtBI4lcB53dpczQBVxnDORAOIFplObpr9x3XjCQy4njyCw8Yg5tcbpF7aIhCiKhnW0dnldZrPezyEDvb30u5oNw0HqGI/TMNtK8P4UTK0CGhRVOkakvJ9Qa222LWBSoDxfRnaXQCaso6UTmyBmgBNHvpYkLBuwlgAo8Cr56fp9ctX6eT4mOm9b66uGAOKkCiWiXP3DL0DTqzy9Nf8xbmLvy96bbYLYDJEW3id4ARnabnd3bS9s0uWtrO3k7b2tsjOHqIyk6fKljWVdQSCKAOjQJefLsBVWw/vEtDis0tAddeAplKGsjQD0LAm4FCNH2aqZrZhMDb7DCybcwClh1f26ruVnEWyLy/J+p++OkvnFzd0eH5w/356fPSQc7q7t5P2YJ1GSquPWeSsibBdFuz3ufZ9AJpEzriQq0BeYWgCtPzULzE0gQ+utRCoPuM8L19fpfPzi/Ti+bP0/PmzdHZ6xkLHED8IJn0Fqrcl8AzoTfTD74gioKhJt4l+o18jxfNEivAps3TcizSZTllGbgRRkroyyzC7fbhNhgZQoyjT5HAzvzf80MWD+rvNs8qWxK+GLWZZTFatox8C0EpzWTs8vx9D45s4nix6Mx6nyXiSJtNxo8sFoNk7LCEBtaseZYJ5xM8A0R0ppevrm3R9fZWePXuefv/dcXr24oSfgaU9uH+UPv/JZ+lnP/083X9wmPZ3Rx8noEWRTpP2vsEtLp53KXLO5pNG5NRGrW6mCqDVHCmjGV4MLYIchEgoalmObow8Z3OmH/r6q98zqgCiAwqyQNTcomVzwCwdGA/VmBD4GqDZv1uiJ53ZLBJltrB7kaiyj9J7QxM5kf8fIiYqMw13LSYToJa7CYgtC9BqDK2raFm7vjQX7xLQStJATQVRYuRqb+zPapHT7sB4IjcewIzMfYJ1ab47WyGrLz7Xj1lG7S8cPHgPyive3IzTs2fP0q+/epq+/PrbdHLyis8eDnbS4ycP01/9u79KTx4/TA8f3EOh4buxcqIRjcI2UvgsQ0c+efkEl3QVuV5F71rFgGqbON5zVyAX27dKBFm3yNd9v+qUb76DJXIpd5h9UxY9QtWQ8PC44PPxiqBGZb+n/OE7LJuQLegpRIqUrq6u6a+GDLjPvn2aTk9fM/YToMc0QlTseyaMbA3lQKZ2DbZ3WCGKiuStPpXGise8f3REsXL/0Bga3DNG+ztLtQfivOf96zIHNWBYN0/5/HTRz72N2mSVqBm/W9X3dc/Q92hfdNFwdLM58p+e603jYWhZWYzZ6R+StuMHYuvx8XH69Zffpd999U365pvv0vmbK4qqyE/3059+nn76kyfpT/71H98toGnjLOkk/kABLYpiqxZDXPxdNlN103wggAaLExgbip9cXl4xkP3l8TEjCy4v3lAvAvAD+CBYHeoUTyS7ZNQogjFrZy6YpQNrHokkoTt7/Nln6egIWTK2rcTcaJT2D/bSYGe5IlUOaJqrErNfBU5dWFtpdQvNIQAAEZ5JREFUnnX/xwVo5voj/zy657jurOmvijz4gYjPDcQioC2oG1W69rOz8/T185P05Tffpa++/CYdvzpNNzdgfX3WfXj86EH6k3/1s7sDtLgoNHloZO70+DEztNrJ+7EBmliaQqN0Ii8xtJ7ppOYoCjydUq92cXaevv3mOyuV9+KYYgiU8tvIXDvLCqqEBAcCIJ3oEC2xkC0+E8HlO2m0t5uOHj5k/n/oV6BDw/cIPO9ttVZv6czioav1GsWzdSxrHdB1YTsfE6AtaKXB/7WppyzcNYT4BQlCa0msDOMG/8F5U4QaWY8X6fp6nC5ubtLTp8fpt7/7Mn393dP04uQ03YwndNsZ7W6nzz97fLeAVmJofwiAVjt9G5+qgghY2hAfOkOjKOlpu3mAebhUo/cK63Ymq5ZncICDLdIPoUzeyfFL6tQuWNC4KcnUJIPEY3IdGh8t3zXqV2wER/t76dHjR0yVjapMUPzDFWO0t8PvkWEWKbPjM3MdZukw/j6Atk4s/JhFTgGaLQUDNZigbS+YMYC/+QSOpwZY+iejAP62GhPmhkSgm8/Sq1en6fdffZt+/duv0m9//016fXaWpose6tykoweH7wbQIkOLJ2IuPpQWzY9Rh6Z+aFLiiR834jrAWvf9RpvsHYqcArTI0GL/lhjalnmMUxm8MGvl5GZC3RqsnwiXQmHj8/M3FtA+RkLISRojeDwUEI5GAUYewLVysG3i6Vaf8Zg//dnnaRdpsmG+398n68OJbd7/nqLI/RIFlBJz4pjXHKFr457P90bzEzbzxyhyNgxNiQ948HlOPI9aiYAGVxutIRtPG0XMBQwE06mJlZzHNE8Xby7Td89O0q+++H3677/8dXr6/DhdXo/TordIe6PtdwdozWnqokM0GMRNkC+CHyuglcTK983QlsAmxMY1bZ23TqxxHuJGzUE2iga6u9mYbhRg/ZFti82kMhgnaK9PYwD+Ox5PqUOjnxoKGp+dpzfn5zQg3NxcJ1RGjwaBtt6ntXIw3GGUAMTMn/3sZ+nzn31OJgaGtj0yR9nd3W1L9shoFQsHi1bTyDTV965Gok+AZiO3tF5cF9quPcif0RVm0USJ8FCxBC8Ne5P7hrEyZD6eNvMGFja+maTjV2fp17/9Mv3f/+2XtHqeX8PhFhmREwCtng9t1cmUfxcdHzc5qWp6g3WAtorV5aCZX1tiQLVFfBdsqfaMxufJG7hOr4jL8nGpPbuh+aHztY0nRXw+TjWRKQJYtGSJ7eg51j/E4rWLPQI+YycXi3R+fk63DgDa1dk5IwyQ2hvABv8yGMMggphfGjzER/T0H+xsM8Psw4cP6JoBX7Od3R1+T7c15GEbtLGgOvE3GedN1m7pmjgftbnJ37/JGssPyk3uyQ+nHHTiWorPl2gX5792bY2U1NobdZZaj/gvogHi3/H3/B3zBQ5J06c9e/Ei/fJffpV+/esv0rfPnqfFom+Fn98G0GqgUgOpVSDUlaHdNaDVFnCXvnQBflz7NoC26UZ714CmBSuGo/7Ejab+SYRQsLLECVZOQlqf8SRdXV9R5Lw8e5Nen56xXsGrV6/SpceBMgSApfK20+HBQboHD/EnR/QrQ3A5Uv/gdzrMQm+nkLdQyGSZ7W06kt2u6wI0JTa/bg11ueeuAK12iK5qy7sCtHYtIUnnLMHq+eVXX/Pf7778Jl3fTKiyeCtAexsWtQlwlZhI7bP4vHXMrNvStKv/IADNLVL5+MRIgaVxzqoyRXBrLJ1ykuUgWliSeY7bf3mPp+QG0CGAHCmJppNZevPmKr169dpY2/kFAQ93YS4AWAAwpMn+7MlDWjaZVXYAa6c54KKau6f1aFJ9q/1LoVNZOue3WR/5PRHQamvnbdjW29xzV4CW74NN2nLXgBZZmpUkNBH1+uomvTh5mZ6/OE7Pnh+ni0tEprz5OAGtdFquEnFL33U5cdedrvn3XRjaOvHl1saSZSl8IRp/exOWHWtrgBaz2cZn4vcoplCfwZe11itdr2rpkeEB+XAH9CUQNxELin9wnvXjhYA1Gu1S5Dy6b4p/ZKG151oxA4ocyN7hGRziQVdSLdzFoaUx7bJeurCtTUBkFSDH+/X7hy5y1gA5iq3QswLATs/eJNSYeHN5TYPBR8nQuoDAXS7qVad2/O5DATQmowphKGqj0gfd2ihL5vVW0dt4drt5nYDmrhK5fiQCWqOHoxguy9Y8TaewjirljNgySuAN0/Y2wqXa2gN4BlPTKPBZiR/J2uyZcNyNgIY21XSnb8vW4ppbt/4+AVpM835bh5bPVQPETewnWBqctqfp6hqZPFK6QbLRydQA7S4mt+szuoitq0AnficELy3KrsDV9frSO2sLu8tpHin3kvgX0uwsnWiBoa3dZBmg6fo824aeH/3OcqDK32V5Gi0fXgQQsTm7XoHlyP3vcZvugtlcZ7HLHqi+ZeXjPNU2rmHOs9mM7M6qPM0ong6G2/wvUsso51rXNdoF3PI5XTfH677Pmd/auaw0tsbw8r2iOdK8brKeS9euAuucLfJvT2sejUyap1tj6hk6rK1mIMDhx/9y7t3KmYOCZOdNB13XdwEpDWAup3cBknW6ivjsLs/N29RlYZfocu3+fPK7trG46IKH9rr5k8+Q3isQiYsrAiqYjtiY/hvXijEzEzanqPqElD5TZFqYNpWeyNDMNk99F4oZswjxwCpE4ScyWFaRavzJzMESWWq1IQFoADNEIsBF5GZ8k4bbVoaOoU/7ewklNbVJ1ome65xi181lTVx6mzVUmr+uh2SpP+vXRb2Sed6/GmDm/a1dhwiRuMbyti2Lx1OvF6tsHcbUjKVb7uCGoTWncIi9XNfxnDF8TIBWW4BdQGfd+P3YAY0MKabrZtqXgaWOmUEkQFJHZEu4oTaX4h+z0sKz29IHMY02xETm/HfNG1idh8qYInjm1aiU8trYnB2KpnujX9vZGd832LLEjdu7o3Tv8CAd7A2bgsGY17wISgS5qv5wDSKtAp916+BtQLIGGPnnPxZAi6Cm33VoNQfuHDpVY/Xt3pFrD+HswwO00uTWQORdMrRPgNaGp2jxbDmIRJZmWRLagigACwDY+eUkHR/DcfYkXV69oYgw2kF1pUHa3t6hlRJB5EzGCJeL2dTAjnYK089hiVJc5HtnCbBHH7O+lcgzdghH3Uk6RUaP4+N0cX5JwITIieiB+/fvpaP75tqhZI5ysBW7jP99F+DzLp75sQDawp27S4d7FGn5vYfTKQmkTJ5g7DpYPziGVpr8mu7jE6Ddht0YFLxuI3UVOaMOLRc5BQpgZXC7+N1XL9Jvf/dV+vqbr9P52SlP1d3dvfTgwX2yp52dkaVSPjhI+/sHTM4HwIToqWyyBKbBFoFPnyGzAiwIVmDFCqtc39g7v/32KVMVwUMEFk+A2NGDe+nhEYDtPkXQ9tltSbqSyqWriPiJoa0WU6uiqdcNyBmaxn/JGs4od7Oo83nuw7G1hYI4yKU2//AY2ocCaF1Eyy4iwyody5288x3q0OS2ocWDBSS2g98BZnCK/fLLL9N//effpy9++2V6/vw5M47CzE5P/p6nDBoMqTND0sX9vX0HLYCZ+Zzt7o7S4SGyzB560ZNhoxPrL2YEv+1tY14w2yPp39OnT9Or16dUEMMiure3z4DlRw9306NHj+jyAQYJQFW0wl0ZCj4B2tsDmsAsjqHETYGXqRcsti4CGg5lqCwa49PPf/4PCylyu55KuQ5tnbioDZtbWEq6uKioXidybqKLUrbMvI0sXSaHTxNiLNWzJ5f7PmOyiiHlbS6JPavuX8VOqX9SiTUP9tWY28KwsKAmEjh0ku4PngEhX2izxZRpXXDfbDphsTCwJMbczXvp+OQ0ff3Nt+n//eWv0v/z33+VXr56nS7fXFqpMbdGQnyM78bv0KNB7KRlFCwNFk/EZu7upr3dPVY0P9g/oPi4D0Z3ALF1m5k1AIgwOiCM6tnzZwZo02l68OBBuv/gQTrY200PDvfSvYOD9AQZbA8PzEiw5WXwBrCc9tlnzP3APeg2mndnDJuKf7X5LH5Ou0k51rbUthoDitPcXGMRlLceE/dlbNO6dsfvowtPab9XmVpcgyHdUCN2sgC2hcFpfdu+NYOPntv7x3/8+0Us6rrRRBYuWgc6ub6iNkjRGqUNte7ZmwAaTG4lTwcpl2N7qJ+5VSW7+8isF/mWT7UI4jUKrlasE7dX6SRWARqeH8vYRT0GTkgqzeGPBtoP2Q4+QDez9PL0Iv3mi9+nf/7VF+lXv/pV+vb5K/oIgbVJ34V7Y0aL2EYUuMBPzK6hduIzsDYwPFZp2pqyyvm9w3vp4HCfQDSeTNLZ2Wm6vL6m/uzzz3+SPvvss7S3t5t2USn94CD95PHj9Igi78CsqoOttOXVocxC20/9WV4dfdW8303l9HcLaLcrjHlI+J0BWlyrdwFo8Xlx/c1hyXQcjmtnifx8jIBWZoo4/W9/8z4BrQZapcnaFE5XnaxaHAIKXqsVEl4gS1+k+/bcOXNbWdVzy4RwfT1JxyevGU/3X//bL9OvvvhdegYxcwwfIdNrxJQ90SrattW8/fPDjOwtZGuBJIF/09k1YztNdFS4U4/OuMivBf3c4yeP06NHVuVpsDVPD/YP0udPnqSfff6T9OTJo3RwsJd2drfTYNsqtLPGwXCQ5m2K+w2G/BOgaZA0l+vcXjZhaDVAUzKF2mFN0vQxAlqRvdDR8zbNfh+Ato6JfR9AiwssP/k3BTQBWbRmkt7PJgnlxcS2L66u04vnL9MXv/19+uWvvki//P++SM+PUcBinibTtj5jRIaaj1ssdq3xifGXS3nRUHsUWRrg0DGbUDSD2Lgz2qb4iZOLWWuRSoggOEsHo930+Ogo/dt/8z+kv/qLP0+PP3uU7t0/TDujYerBGXd7QOvpYra5mEd6WlhTNSSsbfaPiaGtE1XvAtBywPvoGVo5UV958b1PQMsnJj/tMPk1pfU6cbb07FuAJmtRtgN1XQQ0Or/24NS6xRATpD7+7tlx+gKJ9v75X9IXv/+aYHZ5NbYq5rP28IhiQy1HnBOxpZbk8yhAUKVz6FQ4Pn2r6cg+G30kkwN7Y22DrUUaIkfa9k76Vz/9o/TXf/WX6d/86b9OP/3pH6UHDw7ToLdIo51tu35ugL3ZzydAy9dsaQ3HsfxegKb03isyQH+UDK1s5MDSvl1z8X0Amt4ZQacGQF0BbZVityugRWsm7h0AHPr9dPHmOr08PUu/+Q2yhv5L+udf/iY9P3nJVMhQsd1MJ2kxQXSAOcCqb2hbiaGZC4YxoxyoSzrVwWDbSuUpMgGpiPBOHADurNuI1QBhYBTAezJL9w/205/+6Z+k/+l//Mv0l//uz9NPPnuUdneG6XB/N0GNN7sDQKvpN2tOux8TQ4tsKR5kNaCrHcwR+NrfvV5BUJPo0Nc1vV/84ue35TB/+zplfLRiaDHGBsb7S9eWTsHSO/N79XeNwsfra33Qu9d9v8lJXZuUdYr70rNLJ1hkatqoq8SX/BmlExKf5RlnI6DgUIBCHym0Je7Nbybp4vIyHZ+8Yl73f/6X36Tf/O736fnxy3R+ec08VYseWA58IK3aT94WPCsqju3ZuK5e4DdnaqXxxuHNg8IZGvtnAaVM1Q3JcIGCGmmRjo7upT/7sz9N/+v/8j+nv/iLP02Pjg7T9qCX9nd3U69v9SDjZqwdKl1Fzto6Kc8lBqUM8qV100WcrRkFurVv+fApzomPY+mgyvuQg1/8u3m2xx7XWB73ybsCtCXFc1ZvcVUHuwBaDWwatJZ7wiaolF1zF0DX5bVxQeSnUw7oq8ZvHaVfOnC8gaV78E6AmSyTuObN+TULvv7mt1+mX//2d+mL332Vjl+epuvxhP9mzPlv5vXerA5ot8GiDmg5Q7O+L7sdyLuBEQWGZOwZ2SprdCxYqZ1V2GfztL0zSA+O7qU//7N/m/76r/88/cWf/Ul6gmpR2wiZGjXB9Ovnr5vI2Q0wPi5AW7dXS2wul1pqUQXxuv8fkPxiGGrMpjEAAAAASUVORK5CYII=;" vertex="1" parent="GS6s75to7frT3bZNYlam-42">
          <mxGeometry width="70" height="80" as="geometry" />
        </mxCell>
        <mxCell id="GS6s75to7frT3bZNYlam-77" value="" style="group;fontStyle=1" vertex="1" connectable="0" parent="1">
          <mxGeometry x="1548" y="700" width="290" height="80" as="geometry" />
        </mxCell>
        <mxCell id="GS6s75to7frT3bZNYlam-78" value="SEKERTARIS DESA" style="rounded=0;whiteSpace=wrap;html=1;fillColor=#a20025;fontColor=#ffffff;" vertex="1" parent="GS6s75to7frT3bZNYlam-77">
          <mxGeometry x="70" width="220" height="40" as="geometry" />
        </mxCell>
        <mxCell id="GS6s75to7frT3bZNYlam-79" value="SUHENDI" style="rounded=0;whiteSpace=wrap;html=1;" vertex="1" parent="GS6s75to7frT3bZNYlam-77">
          <mxGeometry x="70" y="40" width="220" height="40" as="geometry" />
        </mxCell>
        <mxCell id="GS6s75to7frT3bZNYlam-80" value="" style="rounded=0;whiteSpace=wrap;html=1;" vertex="1" parent="GS6s75to7frT3bZNYlam-77">
          <mxGeometry width="70" height="80" as="geometry" />
        </mxCell>
        <mxCell id="GS6s75to7frT3bZNYlam-96" style="edgeStyle=orthogonalEdgeStyle;rounded=0;orthogonalLoop=1;jettySize=auto;html=1;entryX=1;entryY=1;entryDx=0;entryDy=0;endArrow=none;endFill=0;dashed=1;" edge="1" parent="1" source="GS6s75to7frT3bZNYlam-89" target="GS6s75to7frT3bZNYlam-43">
          <mxGeometry relative="1" as="geometry">
            <Array as="points">
              <mxPoint x="1358" y="530" />
              <mxPoint x="1358" y="530" />
            </Array>
          </mxGeometry>
        </mxCell>
        <mxCell id="GS6s75to7frT3bZNYlam-89" value="Lembaga Kemasyarakatan Desa" style="rounded=0;whiteSpace=wrap;html=1;fillColor=#a20025;fontColor=#ffffff;fontStyle=1" vertex="1" parent="1">
          <mxGeometry x="1398" y="490" width="290" height="80" as="geometry" />
        </mxCell>
        <mxCell id="GS6s75to7frT3bZNYlam-94" style="edgeStyle=orthogonalEdgeStyle;rounded=0;orthogonalLoop=1;jettySize=auto;html=1;entryX=0;entryY=0.5;entryDx=0;entryDy=0;endArrow=none;endFill=0;dashed=1;" edge="1" parent="1" source="GS6s75to7frT3bZNYlam-93" target="GS6s75to7frT3bZNYlam-46">
          <mxGeometry relative="1" as="geometry" />
        </mxCell>
        <mxCell id="GS6s75to7frT3bZNYlam-93" value="Badan Permusyawaraatan Desa" style="rounded=0;whiteSpace=wrap;html=1;fillColor=#a20025;fontColor=#ffffff;fontStyle=1" vertex="1" parent="1">
          <mxGeometry x="668" y="490" width="290" height="80" as="geometry" />
        </mxCell>
        <mxCell id="GS6s75to7frT3bZNYlam-97" style="edgeStyle=orthogonalEdgeStyle;rounded=0;orthogonalLoop=1;jettySize=auto;html=1;endArrow=none;endFill=0;" edge="1" parent="1" source="GS6s75to7frT3bZNYlam-43">
          <mxGeometry relative="1" as="geometry">
            <mxPoint x="1398" y="520" as="targetPoint" />
            <Array as="points">
              <mxPoint x="1388" y="520" />
              <mxPoint x="1388" y="520" />
            </Array>
          </mxGeometry>
        </mxCell>
        <mxCell id="GS6s75to7frT3bZNYlam-120" style="edgeStyle=orthogonalEdgeStyle;rounded=0;orthogonalLoop=1;jettySize=auto;html=1;endArrow=none;endFill=0;entryX=0.341;entryY=0.002;entryDx=0;entryDy=0;entryPerimeter=0;" edge="1" parent="1" source="GS6s75to7frT3bZNYlam-103" target="GS6s75to7frT3bZNYlam-113">
          <mxGeometry relative="1" as="geometry">
            <mxPoint x="623" y="840" as="targetPoint" />
          </mxGeometry>
        </mxCell>
        <mxCell id="GS6s75to7frT3bZNYlam-121" style="edgeStyle=orthogonalEdgeStyle;rounded=0;orthogonalLoop=1;jettySize=auto;html=1;entryX=0.5;entryY=0;entryDx=0;entryDy=0;endArrow=none;endFill=0;" edge="1" parent="1" source="GS6s75to7frT3bZNYlam-103" target="GS6s75to7frT3bZNYlam-117">
          <mxGeometry relative="1" as="geometry">
            <Array as="points">
              <mxPoint x="623" y="810" />
              <mxPoint x="988" y="810" />
            </Array>
          </mxGeometry>
        </mxCell>
        <mxCell id="GS6s75to7frT3bZNYlam-122" style="edgeStyle=orthogonalEdgeStyle;rounded=0;orthogonalLoop=1;jettySize=auto;html=1;endArrow=none;endFill=0;" edge="1" parent="1" source="GS6s75to7frT3bZNYlam-103" target="GS6s75to7frT3bZNYlam-109">
          <mxGeometry relative="1" as="geometry">
            <Array as="points">
              <mxPoint x="623" y="810" />
              <mxPoint x="328" y="810" />
            </Array>
          </mxGeometry>
        </mxCell>
        <mxCell id="GS6s75to7frT3bZNYlam-123" style="edgeStyle=orthogonalEdgeStyle;rounded=0;orthogonalLoop=1;jettySize=auto;html=1;entryX=0.307;entryY=0.01;entryDx=0;entryDy=0;entryPerimeter=0;endArrow=none;endFill=0;dashed=1;" edge="1" parent="1" source="GS6s75to7frT3bZNYlam-103" target="GS6s75to7frT3bZNYlam-113">
          <mxGeometry relative="1" as="geometry">
            <Array as="points">
              <mxPoint x="616" y="813" />
              <mxPoint x="616" y="813" />
            </Array>
          </mxGeometry>
        </mxCell>
        <mxCell id="GS6s75to7frT3bZNYlam-124" style="edgeStyle=orthogonalEdgeStyle;rounded=0;orthogonalLoop=1;jettySize=auto;html=1;entryX=0.472;entryY=0.004;entryDx=0;entryDy=0;entryPerimeter=0;dashed=1;endArrow=none;endFill=0;" edge="1" parent="1">
          <mxGeometry relative="1" as="geometry">
            <mxPoint x="616" y="780" as="sourcePoint" />
            <mxPoint x="979.84" y="845.1599999999999" as="targetPoint" />
            <Array as="points">
              <mxPoint x="616" y="820" />
              <mxPoint x="980" y="820" />
            </Array>
          </mxGeometry>
        </mxCell>
        <mxCell id="GS6s75to7frT3bZNYlam-125" style="edgeStyle=orthogonalEdgeStyle;rounded=0;orthogonalLoop=1;jettySize=auto;html=1;dashed=1;endArrow=none;endFill=0;" edge="1" parent="1">
          <mxGeometry relative="1" as="geometry">
            <mxPoint x="616" y="780" as="sourcePoint" />
            <mxPoint x="316" y="845" as="targetPoint" />
            <Array as="points">
              <mxPoint x="616" y="820" />
              <mxPoint x="316" y="820" />
            </Array>
          </mxGeometry>
        </mxCell>
        <mxCell id="GS6s75to7frT3bZNYlam-103" value="Pelaksana Teknis" style="rounded=0;whiteSpace=wrap;html=1;fontStyle=1" vertex="1" parent="1">
          <mxGeometry x="523" y="730" width="200" height="50" as="geometry" />
        </mxCell>
        <mxCell id="GS6s75to7frT3bZNYlam-104" style="edgeStyle=orthogonalEdgeStyle;rounded=0;orthogonalLoop=1;jettySize=auto;html=1;entryX=0.5;entryY=0;entryDx=0;entryDy=0;endArrow=none;endFill=0;" edge="1" parent="1" source="GS6s75to7frT3bZNYlam-44" target="GS6s75to7frT3bZNYlam-78">
          <mxGeometry relative="1" as="geometry">
            <Array as="points">
              <mxPoint x="1188" y="670" />
              <mxPoint x="1728" y="670" />
            </Array>
          </mxGeometry>
        </mxCell>
        <mxCell id="GS6s75to7frT3bZNYlam-105" style="edgeStyle=orthogonalEdgeStyle;rounded=0;orthogonalLoop=1;jettySize=auto;html=1;entryX=0.5;entryY=0;entryDx=0;entryDy=0;endArrow=none;endFill=0;" edge="1" parent="1" source="GS6s75to7frT3bZNYlam-44" target="GS6s75to7frT3bZNYlam-103">
          <mxGeometry relative="1" as="geometry">
            <Array as="points">
              <mxPoint x="1188" y="670" />
              <mxPoint x="623" y="670" />
            </Array>
          </mxGeometry>
        </mxCell>
        <mxCell id="GS6s75to7frT3bZNYlam-108" value="" style="group;fontStyle=1" vertex="1" connectable="0" parent="1">
          <mxGeometry x="148" y="845" width="290" height="80" as="geometry" />
        </mxCell>
        <mxCell id="GS6s75to7frT3bZNYlam-109" value="&lt;b&gt;Kasi. Pemerintahan&lt;/b&gt;" style="rounded=0;whiteSpace=wrap;html=1;fillColor=#a20025;fontColor=#ffffff;" vertex="1" parent="GS6s75to7frT3bZNYlam-108">
          <mxGeometry x="70" width="220" height="40" as="geometry" />
        </mxCell>
        <mxCell id="GS6s75to7frT3bZNYlam-110" value="M. RUSLAN ABD. GANI" style="rounded=0;whiteSpace=wrap;html=1;" vertex="1" parent="GS6s75to7frT3bZNYlam-108">
          <mxGeometry x="70" y="40" width="220" height="40" as="geometry" />
        </mxCell>
        <mxCell id="GS6s75to7frT3bZNYlam-111" value="" style="rounded=0;whiteSpace=wrap;html=1;" vertex="1" parent="GS6s75to7frT3bZNYlam-108">
          <mxGeometry width="70" height="80" as="geometry" />
        </mxCell>
        <mxCell id="GS6s75to7frT3bZNYlam-112" value="" style="group;fontStyle=1" vertex="1" connectable="0" parent="1">
          <mxGeometry x="478" y="845" width="290" height="80" as="geometry" />
        </mxCell>
        <mxCell id="GS6s75to7frT3bZNYlam-113" value="&lt;b&gt;Kasi. Kesra&lt;/b&gt;" style="rounded=0;whiteSpace=wrap;html=1;fillColor=#a20025;fontColor=#ffffff;" vertex="1" parent="GS6s75to7frT3bZNYlam-112">
          <mxGeometry x="70" width="220" height="40" as="geometry" />
        </mxCell>
        <mxCell id="GS6s75to7frT3bZNYlam-114" value="PUTRI DWI H" style="rounded=0;whiteSpace=wrap;html=1;" vertex="1" parent="GS6s75to7frT3bZNYlam-112">
          <mxGeometry x="70" y="40" width="220" height="40" as="geometry" />
        </mxCell>
        <mxCell id="GS6s75to7frT3bZNYlam-115" value="" style="rounded=0;whiteSpace=wrap;html=1;" vertex="1" parent="GS6s75to7frT3bZNYlam-112">
          <mxGeometry width="70" height="80" as="geometry" />
        </mxCell>
        <mxCell id="GS6s75to7frT3bZNYlam-116" value="" style="group;fontStyle=1" vertex="1" connectable="0" parent="1">
          <mxGeometry x="808" y="845" width="290" height="80" as="geometry" />
        </mxCell>
        <mxCell id="GS6s75to7frT3bZNYlam-117" value="&lt;b&gt;Kasi. Pelayanan&lt;/b&gt;" style="rounded=0;whiteSpace=wrap;html=1;fillColor=#a20025;fontColor=#ffffff;" vertex="1" parent="GS6s75to7frT3bZNYlam-116">
          <mxGeometry x="70" width="220" height="40" as="geometry" />
        </mxCell>
        <mxCell id="GS6s75to7frT3bZNYlam-118" value="NINGRUM" style="rounded=0;whiteSpace=wrap;html=1;" vertex="1" parent="GS6s75to7frT3bZNYlam-116">
          <mxGeometry x="70" y="40" width="220" height="40" as="geometry" />
        </mxCell>
        <mxCell id="GS6s75to7frT3bZNYlam-119" value="" style="rounded=0;whiteSpace=wrap;html=1;" vertex="1" parent="GS6s75to7frT3bZNYlam-116">
          <mxGeometry width="70" height="80" as="geometry" />
        </mxCell>
        <mxCell id="GS6s75to7frT3bZNYlam-126" style="edgeStyle=orthogonalEdgeStyle;rounded=0;orthogonalLoop=1;jettySize=auto;html=1;endArrow=none;endFill=0;entryX=0.341;entryY=0.002;entryDx=0;entryDy=0;entryPerimeter=0;" edge="1" parent="1" target="GS6s75to7frT3bZNYlam-137">
          <mxGeometry relative="1" as="geometry">
            <mxPoint x="1713" y="840" as="targetPoint" />
            <mxPoint x="1713.02" y="780" as="sourcePoint" />
          </mxGeometry>
        </mxCell>
        <mxCell id="GS6s75to7frT3bZNYlam-127" style="edgeStyle=orthogonalEdgeStyle;rounded=0;orthogonalLoop=1;jettySize=auto;html=1;entryX=0.5;entryY=0;entryDx=0;entryDy=0;endArrow=none;endFill=0;" edge="1" parent="1" target="GS6s75to7frT3bZNYlam-141">
          <mxGeometry relative="1" as="geometry">
            <mxPoint x="1713" y="780" as="sourcePoint" />
            <Array as="points">
              <mxPoint x="1713" y="810" />
              <mxPoint x="2078" y="810" />
            </Array>
          </mxGeometry>
        </mxCell>
        <mxCell id="GS6s75to7frT3bZNYlam-128" style="edgeStyle=orthogonalEdgeStyle;rounded=0;orthogonalLoop=1;jettySize=auto;html=1;endArrow=none;endFill=0;" edge="1" parent="1" target="GS6s75to7frT3bZNYlam-133">
          <mxGeometry relative="1" as="geometry">
            <mxPoint x="1713" y="780" as="sourcePoint" />
            <Array as="points">
              <mxPoint x="1713" y="810" />
              <mxPoint x="1418" y="810" />
            </Array>
          </mxGeometry>
        </mxCell>
        <mxCell id="GS6s75to7frT3bZNYlam-129" style="edgeStyle=orthogonalEdgeStyle;rounded=0;orthogonalLoop=1;jettySize=auto;html=1;entryX=0.307;entryY=0.01;entryDx=0;entryDy=0;entryPerimeter=0;endArrow=none;endFill=0;dashed=1;" edge="1" parent="1" target="GS6s75to7frT3bZNYlam-137">
          <mxGeometry relative="1" as="geometry">
            <mxPoint x="1706" y="780" as="sourcePoint" />
            <Array as="points">
              <mxPoint x="1706" y="813" />
              <mxPoint x="1706" y="813" />
            </Array>
          </mxGeometry>
        </mxCell>
        <mxCell id="GS6s75to7frT3bZNYlam-130" style="edgeStyle=orthogonalEdgeStyle;rounded=0;orthogonalLoop=1;jettySize=auto;html=1;entryX=0.472;entryY=0.004;entryDx=0;entryDy=0;entryPerimeter=0;dashed=1;endArrow=none;endFill=0;" edge="1" parent="1">
          <mxGeometry relative="1" as="geometry">
            <mxPoint x="1706" y="780" as="sourcePoint" />
            <mxPoint x="2069.84" y="845.1599999999999" as="targetPoint" />
            <Array as="points">
              <mxPoint x="1706" y="820" />
              <mxPoint x="2070" y="820" />
            </Array>
          </mxGeometry>
        </mxCell>
        <mxCell id="GS6s75to7frT3bZNYlam-131" style="edgeStyle=orthogonalEdgeStyle;rounded=0;orthogonalLoop=1;jettySize=auto;html=1;dashed=1;endArrow=none;endFill=0;" edge="1" parent="1">
          <mxGeometry relative="1" as="geometry">
            <mxPoint x="1706" y="780" as="sourcePoint" />
            <mxPoint x="1406" y="845" as="targetPoint" />
            <Array as="points">
              <mxPoint x="1706" y="820" />
              <mxPoint x="1406" y="820" />
            </Array>
          </mxGeometry>
        </mxCell>
        <mxCell id="GS6s75to7frT3bZNYlam-132" value="" style="group;fontStyle=1" vertex="1" connectable="0" parent="1">
          <mxGeometry x="1238" y="845" width="290" height="80" as="geometry" />
        </mxCell>
        <mxCell id="GS6s75to7frT3bZNYlam-133" value="&lt;b&gt;Kasi. Pemerintahan&lt;/b&gt;" style="rounded=0;whiteSpace=wrap;html=1;fillColor=#a20025;fontColor=#ffffff;" vertex="1" parent="GS6s75to7frT3bZNYlam-132">
          <mxGeometry x="70" width="220" height="40" as="geometry" />
        </mxCell>
        <mxCell id="GS6s75to7frT3bZNYlam-134" value="M. RUSLAN ABD. GANI" style="rounded=0;whiteSpace=wrap;html=1;" vertex="1" parent="GS6s75to7frT3bZNYlam-132">
          <mxGeometry x="70" y="40" width="220" height="40" as="geometry" />
        </mxCell>
        <mxCell id="GS6s75to7frT3bZNYlam-135" value="" style="rounded=0;whiteSpace=wrap;html=1;" vertex="1" parent="GS6s75to7frT3bZNYlam-132">
          <mxGeometry width="70" height="80" as="geometry" />
        </mxCell>
        <mxCell id="GS6s75to7frT3bZNYlam-136" value="" style="group;fontStyle=1" vertex="1" connectable="0" parent="1">
          <mxGeometry x="1568" y="845" width="290" height="80" as="geometry" />
        </mxCell>
        <mxCell id="GS6s75to7frT3bZNYlam-137" value="&lt;b&gt;Kasi. Kesra&lt;/b&gt;" style="rounded=0;whiteSpace=wrap;html=1;fillColor=#a20025;fontColor=#ffffff;" vertex="1" parent="GS6s75to7frT3bZNYlam-136">
          <mxGeometry x="70" width="220" height="40" as="geometry" />
        </mxCell>
        <mxCell id="GS6s75to7frT3bZNYlam-138" value="PUTRI DWI H" style="rounded=0;whiteSpace=wrap;html=1;" vertex="1" parent="GS6s75to7frT3bZNYlam-136">
          <mxGeometry x="70" y="40" width="220" height="40" as="geometry" />
        </mxCell>
        <mxCell id="GS6s75to7frT3bZNYlam-139" value="" style="rounded=0;whiteSpace=wrap;html=1;" vertex="1" parent="GS6s75to7frT3bZNYlam-136">
          <mxGeometry width="70" height="80" as="geometry" />
        </mxCell>
        <mxCell id="GS6s75to7frT3bZNYlam-140" value="" style="group;fontStyle=1" vertex="1" connectable="0" parent="1">
          <mxGeometry x="1898" y="845" width="290" height="80" as="geometry" />
        </mxCell>
        <mxCell id="GS6s75to7frT3bZNYlam-141" value="&lt;b&gt;Kasi. Pelayanan&lt;/b&gt;" style="rounded=0;whiteSpace=wrap;html=1;fillColor=#a20025;fontColor=#ffffff;" vertex="1" parent="GS6s75to7frT3bZNYlam-140">
          <mxGeometry x="70" width="220" height="40" as="geometry" />
        </mxCell>
        <mxCell id="GS6s75to7frT3bZNYlam-142" value="NINGRUM" style="rounded=0;whiteSpace=wrap;html=1;" vertex="1" parent="GS6s75to7frT3bZNYlam-140">
          <mxGeometry x="70" y="40" width="220" height="40" as="geometry" />
        </mxCell>
        <mxCell id="GS6s75to7frT3bZNYlam-143" value="" style="rounded=0;whiteSpace=wrap;html=1;" vertex="1" parent="GS6s75to7frT3bZNYlam-140">
          <mxGeometry width="70" height="80" as="geometry" />
        </mxCell>
        <mxCell id="GS6s75to7frT3bZNYlam-144" style="edgeStyle=orthogonalEdgeStyle;rounded=0;orthogonalLoop=1;jettySize=auto;html=1;endArrow=none;endFill=0;entryX=0.341;entryY=0.002;entryDx=0;entryDy=0;entryPerimeter=0;" edge="1" parent="1" source="GS6s75to7frT3bZNYlam-150" target="GS6s75to7frT3bZNYlam-156">
          <mxGeometry relative="1" as="geometry">
            <mxPoint x="1193" y="1100" as="targetPoint" />
          </mxGeometry>
        </mxCell>
        <mxCell id="GS6s75to7frT3bZNYlam-145" style="edgeStyle=orthogonalEdgeStyle;rounded=0;orthogonalLoop=1;jettySize=auto;html=1;entryX=0.5;entryY=0;entryDx=0;entryDy=0;endArrow=none;endFill=0;" edge="1" parent="1" source="GS6s75to7frT3bZNYlam-150" target="GS6s75to7frT3bZNYlam-160">
          <mxGeometry relative="1" as="geometry">
            <Array as="points">
              <mxPoint x="1193" y="1070" />
              <mxPoint x="1558" y="1070" />
            </Array>
          </mxGeometry>
        </mxCell>
        <mxCell id="GS6s75to7frT3bZNYlam-146" style="edgeStyle=orthogonalEdgeStyle;rounded=0;orthogonalLoop=1;jettySize=auto;html=1;endArrow=none;endFill=0;" edge="1" parent="1" source="GS6s75to7frT3bZNYlam-150" target="GS6s75to7frT3bZNYlam-152">
          <mxGeometry relative="1" as="geometry">
            <Array as="points">
              <mxPoint x="1193" y="1070" />
              <mxPoint x="898" y="1070" />
            </Array>
          </mxGeometry>
        </mxCell>
        <mxCell id="GS6s75to7frT3bZNYlam-147" style="edgeStyle=orthogonalEdgeStyle;rounded=0;orthogonalLoop=1;jettySize=auto;html=1;entryX=0.307;entryY=0.01;entryDx=0;entryDy=0;entryPerimeter=0;endArrow=none;endFill=0;dashed=1;" edge="1" parent="1" source="GS6s75to7frT3bZNYlam-150" target="GS6s75to7frT3bZNYlam-156">
          <mxGeometry relative="1" as="geometry">
            <Array as="points">
              <mxPoint x="1186" y="1073" />
              <mxPoint x="1186" y="1073" />
            </Array>
          </mxGeometry>
        </mxCell>
        <mxCell id="GS6s75to7frT3bZNYlam-148" style="edgeStyle=orthogonalEdgeStyle;rounded=0;orthogonalLoop=1;jettySize=auto;html=1;entryX=0.472;entryY=0.004;entryDx=0;entryDy=0;entryPerimeter=0;dashed=1;endArrow=none;endFill=0;" edge="1" parent="1">
          <mxGeometry relative="1" as="geometry">
            <mxPoint x="1186" y="1040" as="sourcePoint" />
            <mxPoint x="1549.8400000000001" y="1105.1599999999999" as="targetPoint" />
            <Array as="points">
              <mxPoint x="1186" y="1080" />
              <mxPoint x="1550" y="1080" />
            </Array>
          </mxGeometry>
        </mxCell>
        <mxCell id="GS6s75to7frT3bZNYlam-149" style="edgeStyle=orthogonalEdgeStyle;rounded=0;orthogonalLoop=1;jettySize=auto;html=1;dashed=1;endArrow=none;endFill=0;" edge="1" parent="1">
          <mxGeometry relative="1" as="geometry">
            <mxPoint x="1186" y="1040" as="sourcePoint" />
            <mxPoint x="886" y="1105" as="targetPoint" />
            <Array as="points">
              <mxPoint x="1186" y="1080" />
              <mxPoint x="886" y="1080" />
            </Array>
          </mxGeometry>
        </mxCell>
        <mxCell id="GS6s75to7frT3bZNYlam-150" value="Pelaksana Kewilayahan" style="rounded=0;whiteSpace=wrap;html=1;fontStyle=1" vertex="1" parent="1">
          <mxGeometry x="1093" y="990" width="200" height="50" as="geometry" />
        </mxCell>
        <mxCell id="GS6s75to7frT3bZNYlam-151" value="" style="group;fontStyle=1" vertex="1" connectable="0" parent="1">
          <mxGeometry x="718" y="1105" width="290" height="80" as="geometry" />
        </mxCell>
        <mxCell id="GS6s75to7frT3bZNYlam-152" value="&lt;b&gt;Kepala Dusun 1&lt;/b&gt;" style="rounded=0;whiteSpace=wrap;html=1;fillColor=#a20025;fontColor=#ffffff;" vertex="1" parent="GS6s75to7frT3bZNYlam-151">
          <mxGeometry x="70" width="220" height="40" as="geometry" />
        </mxCell>
        <mxCell id="GS6s75to7frT3bZNYlam-153" value="Suganda" style="rounded=0;whiteSpace=wrap;html=1;" vertex="1" parent="GS6s75to7frT3bZNYlam-151">
          <mxGeometry x="70" y="40" width="220" height="40" as="geometry" />
        </mxCell>
        <mxCell id="GS6s75to7frT3bZNYlam-154" value="" style="rounded=0;whiteSpace=wrap;html=1;" vertex="1" parent="GS6s75to7frT3bZNYlam-151">
          <mxGeometry width="70" height="80" as="geometry" />
        </mxCell>
        <mxCell id="GS6s75to7frT3bZNYlam-155" value="" style="group;fontStyle=1" vertex="1" connectable="0" parent="1">
          <mxGeometry x="1048" y="1105" width="290" height="80" as="geometry" />
        </mxCell>
        <mxCell id="GS6s75to7frT3bZNYlam-156" value="&lt;b&gt;Kepala Dusun II&lt;/b&gt;" style="rounded=0;whiteSpace=wrap;html=1;fillColor=#a20025;fontColor=#ffffff;" vertex="1" parent="GS6s75to7frT3bZNYlam-155">
          <mxGeometry x="70" width="220" height="40" as="geometry" />
        </mxCell>
        <mxCell id="GS6s75to7frT3bZNYlam-157" value="" style="rounded=0;whiteSpace=wrap;html=1;" vertex="1" parent="GS6s75to7frT3bZNYlam-155">
          <mxGeometry x="70" y="40" width="220" height="40" as="geometry" />
        </mxCell>
        <mxCell id="GS6s75to7frT3bZNYlam-158" value="" style="rounded=0;whiteSpace=wrap;html=1;" vertex="1" parent="GS6s75to7frT3bZNYlam-155">
          <mxGeometry width="70" height="80" as="geometry" />
        </mxCell>
        <mxCell id="GS6s75to7frT3bZNYlam-159" value="" style="group;fontStyle=1" vertex="1" connectable="0" parent="1">
          <mxGeometry x="1378" y="1105" width="290" height="80" as="geometry" />
        </mxCell>
        <mxCell id="GS6s75to7frT3bZNYlam-160" value="&lt;b&gt;Kepala Dusun III&lt;/b&gt;" style="rounded=0;whiteSpace=wrap;html=1;fillColor=#a20025;fontColor=#ffffff;" vertex="1" parent="GS6s75to7frT3bZNYlam-159">
          <mxGeometry x="70" width="220" height="40" as="geometry" />
        </mxCell>
        <mxCell id="GS6s75to7frT3bZNYlam-161" value="" style="rounded=0;whiteSpace=wrap;html=1;" vertex="1" parent="GS6s75to7frT3bZNYlam-159">
          <mxGeometry x="70" y="40" width="220" height="40" as="geometry" />
        </mxCell>
        <mxCell id="GS6s75to7frT3bZNYlam-162" value="" style="rounded=0;whiteSpace=wrap;html=1;" vertex="1" parent="GS6s75to7frT3bZNYlam-159">
          <mxGeometry width="70" height="80" as="geometry" />
        </mxCell>
        <mxCell id="GS6s75to7frT3bZNYlam-163" style="edgeStyle=orthogonalEdgeStyle;rounded=0;orthogonalLoop=1;jettySize=auto;html=1;dashed=1;endArrow=none;endFill=0;" edge="1" parent="1">
          <mxGeometry relative="1" as="geometry">
            <mxPoint x="1179.0588235294117" y="570" as="sourcePoint" />
            <mxPoint x="1179" y="990" as="targetPoint" />
            <Array as="points">
              <mxPoint x="1179" y="990" />
            </Array>
          </mxGeometry>
        </mxCell>
        <mxCell id="GS6s75to7frT3bZNYlam-165" style="edgeStyle=orthogonalEdgeStyle;rounded=0;orthogonalLoop=1;jettySize=auto;html=1;endArrow=none;endFill=0;" edge="1" parent="1" source="GS6s75to7frT3bZNYlam-44" target="GS6s75to7frT3bZNYlam-150">
          <mxGeometry relative="1" as="geometry">
            <Array as="points">
              <mxPoint x="1188" y="890" />
              <mxPoint x="1188" y="890" />
            </Array>
          </mxGeometry>
        </mxCell>
        <mxCell id="GS6s75to7frT3bZNYlam-166" value="" style="group;fontStyle=1" vertex="1" connectable="0" parent="1">
          <mxGeometry x="1898" y="1010" width="290" height="80" as="geometry" />
        </mxCell>
        <mxCell id="GS6s75to7frT3bZNYlam-167" value="&lt;b&gt;Bendahara&lt;/b&gt;" style="rounded=0;whiteSpace=wrap;html=1;fillColor=#a20025;fontColor=#ffffff;" vertex="1" parent="GS6s75to7frT3bZNYlam-166">
          <mxGeometry x="70" width="220" height="40" as="geometry" />
        </mxCell>
        <mxCell id="GS6s75to7frT3bZNYlam-168" value="" style="rounded=0;whiteSpace=wrap;html=1;" vertex="1" parent="GS6s75to7frT3bZNYlam-166">
          <mxGeometry x="70" y="40" width="220" height="40" as="geometry" />
        </mxCell>
        <mxCell id="GS6s75to7frT3bZNYlam-169" value="" style="rounded=0;whiteSpace=wrap;html=1;" vertex="1" parent="GS6s75to7frT3bZNYlam-166">
          <mxGeometry width="70" height="80" as="geometry" />
        </mxCell>
        <mxCell id="GS6s75to7frT3bZNYlam-170" style="edgeStyle=orthogonalEdgeStyle;rounded=0;orthogonalLoop=1;jettySize=auto;html=1;entryX=0.363;entryY=0.006;entryDx=0;entryDy=0;endArrow=none;endFill=0;entryPerimeter=0;" edge="1" parent="1" source="GS6s75to7frT3bZNYlam-142" target="GS6s75to7frT3bZNYlam-167">
          <mxGeometry relative="1" as="geometry">
            <Array as="points">
              <mxPoint x="2078" y="1010" />
            </Array>
          </mxGeometry>
        </mxCell>
        <mxCell id="GS6s75to7frT3bZNYlam-172" style="edgeStyle=orthogonalEdgeStyle;rounded=0;orthogonalLoop=1;jettySize=auto;html=1;entryX=0.363;entryY=0.006;entryDx=0;entryDy=0;endArrow=none;endFill=0;entryPerimeter=0;dashed=1;" edge="1" parent="1">
          <mxGeometry relative="1" as="geometry">
            <mxPoint x="2068.1399999999994" y="925" as="sourcePoint" />
            <mxPoint x="2038.0000000000002" y="1010.2399999999998" as="targetPoint" />
            <Array as="points">
              <mxPoint x="2068.1400000000003" y="1010" />
            </Array>
          </mxGeometry>
        </mxCell>
        <mxCell id="GS6s75to7frT3bZNYlam-179" value="" style="group;fontStyle=1" vertex="1" connectable="0" parent="1">
          <mxGeometry x="1988" y="1280" width="200" height="80" as="geometry" />
        </mxCell>
        <mxCell id="GS6s75to7frT3bZNYlam-173" value="" style="rounded=0;whiteSpace=wrap;html=1;pointerEvents=0;fillColor=none;gradientColor=none;verticalAlign=top;" vertex="1" parent="GS6s75to7frT3bZNYlam-179">
          <mxGeometry width="200" height="80" as="geometry" />
        </mxCell>
        <mxCell id="GS6s75to7frT3bZNYlam-174" value="" style="endArrow=none;html=1;dashed=1;" edge="1" parent="GS6s75to7frT3bZNYlam-179">
          <mxGeometry width="50" height="50" relative="1" as="geometry">
            <mxPoint x="30" y="50" as="sourcePoint" />
            <mxPoint x="80" y="50" as="targetPoint" />
          </mxGeometry>
        </mxCell>
        <mxCell id="GS6s75to7frT3bZNYlam-175" value="" style="endArrow=none;html=1;" edge="1" parent="GS6s75to7frT3bZNYlam-179">
          <mxGeometry width="50" height="50" relative="1" as="geometry">
            <mxPoint x="30" y="20" as="sourcePoint" />
            <mxPoint x="80" y="20" as="targetPoint" />
          </mxGeometry>
        </mxCell>
        <mxCell id="GS6s75to7frT3bZNYlam-177" value=": Garis Instruksi" style="text;html=1;strokeColor=none;fillColor=none;align=left;verticalAlign=middle;whiteSpace=wrap;rounded=0;pointerEvents=0;fontSize=10;" vertex="1" parent="GS6s75to7frT3bZNYlam-179">
          <mxGeometry x="95" y="13" width="95" height="10" as="geometry" />
        </mxCell>
        <mxCell id="GS6s75to7frT3bZNYlam-178" value=": Garis Koodinasi" style="text;html=1;strokeColor=none;fillColor=none;align=left;verticalAlign=middle;whiteSpace=wrap;rounded=0;pointerEvents=0;fontSize=10;" vertex="1" parent="GS6s75to7frT3bZNYlam-179">
          <mxGeometry x="95" y="43" width="95" height="10" as="geometry" />
        </mxCell>
        <mxCell id="GS6s75to7frT3bZNYlam-181" value="&lt;font&gt;&lt;b&gt;&lt;span style=&quot;font-size: 50px&quot;&gt;STRUKTUR ORGANISASI&lt;/span&gt;&lt;br&gt;&lt;span style=&quot;font-size: 50px&quot;&gt;PEMERINTAH DESA PURWASARI&lt;/span&gt;&lt;br&gt;&lt;font style=&quot;font-size: 40px&quot;&gt;KECAMATAN DRAMAGA KABUPATEN BOGOR&lt;/font&gt;&lt;/b&gt;&lt;/font&gt;" style="text;html=1;strokeColor=none;fillColor=none;align=center;verticalAlign=middle;whiteSpace=wrap;rounded=0;pointerEvents=0;fontSize=10;spacingTop=0;spacing=28;" vertex="1" parent="1">
          <mxGeometry x="449" y="110" width="1438" height="290" as="geometry" />
        </mxCell>
      </root>
    </mxGraphModel>
  </diagram>
</mxfile>
